<?xml version="1.0" encoding="UTF-8" standalone="no"?>
<!-- Created with Digital by H.Neemann -->
<!-- created: Wed Nov 12 16:40:55 CET 2025 -->

<svg
   xmlns:svg="http://www.w3.org/2000/svg"
   xmlns="http://www.w3.org/2000/svg"
   width="123.0mm"
   height="81.9mm"
   viewBox="246 226 820 546">
<g stroke-linecap="square">
<path d="M 360,320 L 380,320 L 400,320" stroke="#008e00" stroke-width="4.0" fill="none"/>
<path d="M 480,320 L 580,320 L 580,360 L 860,360 L 880,360" stroke="#008e00" stroke-width="4.0" fill="none"/>
<path d="M 820,640 L 900,640" stroke="#008e00" stroke-width="4.0" fill="none"/>
<path d="M 820,740 L 880,740 L 880,660 L 900,660" stroke="#008e00" stroke-width="4.0" fill="none"/>
<path d="M 380,320 L 380,300 L 400,300" stroke="#008e00" stroke-width="4.0" fill="none"/>
<path d="M 740,620 L 740,720 L 760,720" stroke="#008e00" stroke-width="4.0" fill="none"/>
<path d="M 580,360 L 580,660 L 760,660" stroke="#008e00" stroke-width="4.0" fill="none"/>
<path d="M 880,500 L 900,500" stroke="#008e00" stroke-width="4.0" fill="none"/>
<path d="M 860,360 L 860,340 L 900,340" stroke="#008e00" stroke-width="4.0" fill="none"/>
<path d="M 380,340 L 400,340" stroke="#008e00" stroke-width="4.0" fill="none"/>
<path d="M 580,660 L 580,760 L 740,760" stroke="#008e00" stroke-width="4.0" fill="none"/>
<path d="M 340,280 L 400,280" stroke="#008e00" stroke-width="4.0" fill="none"/>
<path d="M 820,540 L 840,540 L 840,580 L 740,580 L 740,620 L 760,620" stroke="#008e00" stroke-width="4.0" fill="none"/>
<path d="M 720,480 L 860,480 L 860,520 L 900,520" stroke="#66ff66" stroke-width="4.0" fill="none"/>
<path d="M 720,520 L 740,520" stroke="#66ff66" stroke-width="4.0" fill="none"/>
<path d="M 720,300 L 880,300" stroke="#66ff66" stroke-width="4.0" fill="none"/>
<path d="M 880,620 L 900,620" stroke="#66ff66" stroke-width="4.0" fill="none"/>
<path d="M 720,460 L 900,460" stroke="#66ff66" stroke-width="4.0" fill="none"/>
<path d="M 720,560 L 760,560" stroke="#66ff66" stroke-width="4.0" fill="none"/>
<path d="M 340,340 L 380,340 L 380,360" stroke="#66ff66" stroke-width="4.0" fill="none"/>
<path d="M 1014,324 L 1006,316" stroke="#0000b2" stroke-width="2.0" fill="none"/>
<path d="M 1014,484 L 1006,476" stroke="#0000b2" stroke-width="2.0" fill="none"/>
<path d="M 534,304 L 526,296" stroke="#0000b2" stroke-width="2.0" fill="none"/>
<path d="M 974,564 L 966,556" stroke="#0000b2" stroke-width="2.0" fill="none"/>
<path d="M 814,244 L 806,236" stroke="#0000b2" stroke-width="2.0" fill="none"/>
<path d="M 1014,604 L 1006,596" stroke="#0000b2" stroke-width="2.0" fill="none"/>
<path d="M 814,444 L 806,436" stroke="#0000b2" stroke-width="2.0" fill="none"/>
<path d="M 814,284 L 806,276" stroke="#0000b2" stroke-width="2.0" fill="none"/>
<path d="M 534,284 L 526,276" stroke="#0000b2" stroke-width="2.0" fill="none"/>
<path d="M 360,330 L 360,310" stroke="#000000" stroke-width="6.0" fill="none"/>
<path d="M 880,510 L 880,490" stroke="#000000" stroke-width="6.0" fill="none"/>
<path d="M 960,320 L 1060,320 L 1060,240 L 580,240 L 580,300 L 480,300" stroke="#0000b2" stroke-width="4.0" fill="none"/>
<path d="M 960,480 L 1060,480 L 1060,320" stroke="#0000b2" stroke-width="4.0" fill="none"/>
<path d="M 600,440 L 600,520 L 700,520" stroke="#0000b2" stroke-width="4.0" fill="none"/>
<path d="M 960,600 L 1060,600 L 1060,560 L 880,560 L 880,600 L 900,600" stroke="#0000b2" stroke-width="4.0" fill="none"/>
<path d="M 600,280 L 600,440 L 700,440" stroke="#0000b2" stroke-width="4.0" fill="none"/>
<path d="M 720,440 L 900,440" stroke="#0000b2" stroke-width="4.0" fill="none"/>
<path d="M 720,280 L 900,280" stroke="#0000b2" stroke-width="4.0" fill="none"/>
<path d="M 480,280 L 600,280 L 700,280" stroke="#0000b2" stroke-width="4.0" fill="none"/>
<path d="M 1060,480 L 1060,560" stroke="#0000b2" stroke-width="4.0" fill="none"/>
<path d="M 700,280 L 710,280 L 720,280" stroke="#000000" stroke-width="4.0" fill="none"/>
<path d="M 720,300 L 710,300" stroke="#000000" stroke-width="4.0" fill="none"/>
<path d="M 700,440 L 710,440 L 720,440" stroke="#000000" stroke-width="4.0" fill="none"/>
<path d="M 720,460 L 710,460" stroke="#000000" stroke-width="4.0" fill="none"/>
<path d="M 720,480 L 710,480" stroke="#000000" stroke-width="4.0" fill="none"/>
<path d="M 700,520 L 710,520 L 720,520" stroke="#000000" stroke-width="4.0" fill="none"/>
<path d="M 720,560 L 710,560" stroke="#000000" stroke-width="4.0" fill="none"/>
<path d="M 332,288 L 338,294" stroke="#000000" stroke-width="4.0" fill="none"/>
<g>
<circle cx="380.0" cy="320.0" r="4.0" stroke="#008e00" stroke-width="4.0" fill="#008e00" />
<text text-anchor="end" x="1010.0" y="332.0" fill="#32a232" style="font-size:12px">F0</text>
<text text-anchor="start" x="1010.0" y="317.0" fill="#0000b2" style="font-size:12px">8</text>
<circle cx="1060.0" cy="320.0" r="4.0" stroke="#0000b2" stroke-width="4.0" fill="#0000b2" />
<text text-anchor="end" x="1010.0" y="492.0" fill="#32a232" style="font-size:12px">F0</text>
<text text-anchor="start" x="1010.0" y="477.0" fill="#0000b2" style="font-size:12px">8</text>
<circle cx="1060.0" cy="480.0" r="4.0" stroke="#0000b2" stroke-width="4.0" fill="#0000b2" />
<circle cx="580.0" cy="360.0" r="4.0" stroke="#008e00" stroke-width="4.0" fill="#008e00" />
<circle cx="860.0" cy="360.0" r="4.0" stroke="#008e00" stroke-width="4.0" fill="#008e00" />
<text text-anchor="end" x="650.0" y="532.0" fill="#32a232" style="font-size:12px">C45A</text>
<text text-anchor="end" x="530.0" y="312.0" fill="#32a232" style="font-size:12px">F0</text>
<text text-anchor="start" x="530.0" y="297.0" fill="#0000b2" style="font-size:12px">8</text>
<circle cx="740.0" cy="620.0" r="4.0" stroke="#008e00" stroke-width="4.0" fill="#008e00" />
<text text-anchor="end" x="970.0" y="572.0" fill="#32a232" style="font-size:12px">F0</text>
<text text-anchor="start" x="970.0" y="557.0" fill="#0000b2" style="font-size:12px">8</text>
<circle cx="1060.0" cy="560.0" r="4.0" stroke="#0000b2" stroke-width="4.0" fill="#0000b2" />
<text text-anchor="end" x="810.0" y="252.0" fill="#32a232" style="font-size:12px">F0</text>
<text text-anchor="start" x="810.0" y="237.0" fill="#0000b2" style="font-size:12px">8</text>
<circle cx="580.0" cy="660.0" r="4.0" stroke="#008e00" stroke-width="4.0" fill="#008e00" />
<circle cx="380.0" cy="340.0" r="4.0" stroke="#66ff66" stroke-width="4.0" fill="#66ff66" />
<text text-anchor="end" x="1010.0" y="612.0" fill="#32a232" style="font-size:12px">F0</text>
<text text-anchor="start" x="1010.0" y="597.0" fill="#0000b2" style="font-size:12px">8</text>
<text text-anchor="end" x="650.0" y="452.0" fill="#32a232" style="font-size:12px">C45A</text>
<circle cx="600.0" cy="440.0" r="4.0" stroke="#0000b2" stroke-width="4.0" fill="#0000b2" />
<text text-anchor="end" x="810.0" y="452.0" fill="#32a232" style="font-size:12px">45A</text>
<text text-anchor="start" x="810.0" y="437.0" fill="#0000b2" style="font-size:12px">14</text>
<text text-anchor="end" x="810.0" y="292.0" fill="#32a232" style="font-size:12px">445A</text>
<text text-anchor="start" x="810.0" y="277.0" fill="#0000b2" style="font-size:12px">15</text>
<text text-anchor="end" x="530.0" y="292.0" fill="#32a232" style="font-size:12px">C45A</text>
<text text-anchor="start" x="530.0" y="277.0" fill="#0000b2" style="font-size:12px">16</text>
<circle cx="600.0" cy="280.0" r="4.0" stroke="#0000b2" stroke-width="4.0" fill="#0000b2" />
<text text-anchor="end" x="650.0" y="292.0" fill="#32a232" style="font-size:12px">C45A</text>
</g>
<g>
<path d="M 309,325 L 339,325 L 339,355 L 309,355 Z" stroke="#000000" stroke-width="4.0" fill="none"/>
<path d="M 315,345 L 320,345 L 320,335 L 325,335 L 325,345 L 330,345 L 330,335 L 335,335" stroke="#000000" stroke-width="2.0" fill="none"/>
<circle cx="340.0" cy="340.0" r="2.0" stroke="#b20000" stroke-width="4.0" fill="#b20000" />
</g>
<g>
<path d="M 380,360 L 372,374 L 388,374 Z" stroke="#008e00" stroke-width="4.0" fill="#008e00" fill-opacity="1.0"/>
<path d="M 380,360 L 372,374 L 388,374 Z" stroke="#000000" stroke-width="4.0" fill="none"/>
<text text-anchor="end" x="380.0" y="385.75" fill="#808080" style="font-size:18px" transform="rotate(-90,380.0,379.0)" >CLK</text>
<circle cx="380.0" cy="360.0" r="2.0" stroke="#0000b2" stroke-width="4.0" fill="#0000b2" />
</g>
<g>
<circle cx="360.0" cy="320.0" r="2.0" stroke="#b20000" stroke-width="4.0" fill="#b20000" />
</g>
<g>
<text text-anchor="end" x="698.0" y="277.0" fill="#808080" style="font-size:12px">0-15</text>
<text text-anchor="start" x="722.0" y="277.0" fill="#808080" style="font-size:12px">0-14</text>
<text text-anchor="start" x="722.0" y="297.0" fill="#808080" style="font-size:12px">15</text>
<path d="M 708,278 L 712,278 L 712,302 L 708,302 Z" stroke="#000000" stroke-width="4.0" fill="#000000" fill-opacity="1.0"/>
<circle cx="700.0" cy="280.0" r="2.0" stroke="#0000b2" stroke-width="4.0" fill="#0000b2" />
<circle cx="720.0" cy="280.0" r="2.0" stroke="#b20000" stroke-width="4.0" fill="#b20000" />
<circle cx="720.0" cy="300.0" r="2.0" stroke="#b20000" stroke-width="4.0" fill="#b20000" />
</g>
<g>
<text text-anchor="end" x="698.0" y="437.0" fill="#808080" style="font-size:12px">0-15</text>
<text text-anchor="start" x="722.0" y="437.0" fill="#808080" style="font-size:12px">0-13</text>
<text text-anchor="start" x="722.0" y="457.0" fill="#808080" style="font-size:12px">14</text>
<text text-anchor="start" x="722.0" y="477.0" fill="#808080" style="font-size:12px">15</text>
<path d="M 708,438 L 712,438 L 712,482 L 708,482 Z" stroke="#000000" stroke-width="4.0" fill="#000000" fill-opacity="1.0"/>
<circle cx="700.0" cy="440.0" r="2.0" stroke="#0000b2" stroke-width="4.0" fill="#0000b2" />
<circle cx="720.0" cy="440.0" r="2.0" stroke="#b20000" stroke-width="4.0" fill="#b20000" />
<circle cx="720.0" cy="460.0" r="2.0" stroke="#b20000" stroke-width="4.0" fill="#b20000" />
<circle cx="720.0" cy="480.0" r="2.0" stroke="#b20000" stroke-width="4.0" fill="#b20000" />
</g>
<g>
<text text-anchor="end" x="698.0" y="517.0" fill="#808080" style="font-size:12px">0-15</text>
<text text-anchor="start" x="722.0" y="517.0" fill="#808080" style="font-size:12px">14</text>
<text text-anchor="start" x="722.0" y="557.0" fill="#808080" style="font-size:12px">15</text>
<path d="M 708,518 L 712,518 L 712,562 L 708,562 Z" stroke="#000000" stroke-width="4.0" fill="#000000" fill-opacity="1.0"/>
<circle cx="700.0" cy="520.0" r="2.0" stroke="#0000b2" stroke-width="4.0" fill="#0000b2" />
<circle cx="720.0" cy="520.0" r="2.0" stroke="#b20000" stroke-width="4.0" fill="#b20000" />
<circle cx="720.0" cy="560.0" r="2.0" stroke="#b20000" stroke-width="4.0" fill="#b20000" />
</g>
<g>
<path d="M 761,510 L 819,510 L 819,570 L 761,570 Z" stroke="#000000" stroke-width="4.0" fill="none"/>
<text text-anchor="middle" x="790.0" y="532.0" fill="#000000" style="font-size:24px">&amp;</text>
<circle cx="750.0" cy="520.0" r="8.0" stroke="#000000" stroke-width="4.0" fill="none" />
<circle cx="740.0" cy="520.0" r="2.0" stroke="#0000b2" stroke-width="4.0" fill="#0000b2" />
<circle cx="760.0" cy="560.0" r="2.0" stroke="#0000b2" stroke-width="4.0" fill="#0000b2" />
<circle cx="820.0" cy="540.0" r="2.0" stroke="#b20000" stroke-width="4.0" fill="#b20000" />
</g>
<g>
<path d="M 761,610 L 819,610 L 819,670 L 761,670 Z" stroke="#000000" stroke-width="4.0" fill="none"/>
<text text-anchor="middle" x="790.0" y="632.0" fill="#000000" style="font-size:24px">&amp;</text>
<circle cx="760.0" cy="620.0" r="2.0" stroke="#0000b2" stroke-width="4.0" fill="#0000b2" />
<circle cx="760.0" cy="660.0" r="2.0" stroke="#0000b2" stroke-width="4.0" fill="#0000b2" />
<circle cx="820.0" cy="640.0" r="2.0" stroke="#b20000" stroke-width="4.0" fill="#b20000" />
</g>
<g>
<path d="M 761,710 L 819,710 L 819,770 L 761,770 Z" stroke="#000000" stroke-width="4.0" fill="none"/>
<text text-anchor="middle" x="790.0" y="732.0" fill="#000000" style="font-size:24px">&amp;</text>
<circle cx="750.0" cy="760.0" r="8.0" stroke="#000000" stroke-width="4.0" fill="none" />
<circle cx="760.0" cy="720.0" r="2.0" stroke="#0000b2" stroke-width="4.0" fill="#0000b2" />
<circle cx="740.0" cy="760.0" r="2.0" stroke="#0000b2" stroke-width="4.0" fill="#0000b2" />
<circle cx="820.0" cy="740.0" r="2.0" stroke="#b20000" stroke-width="4.0" fill="#b20000" />
</g>
<g>
<path d="M 901,270 L 959,270 L 959,370 L 901,370 Z" stroke="#000000" stroke-width="4.0" fill="none"/>
<text text-anchor="middle" x="930.0" y="262.0" fill="#000000" style="font-size:24px">RAM 32K</text>
<text text-anchor="start" x="904.0" y="286.75" fill="#808080" style="font-size:18px">A</text>
<text text-anchor="start" x="904.0" y="306.75" fill="#808080" style="font-size:18px">CS</text>
<text text-anchor="start" x="904.0" y="346.75" fill="#808080" style="font-size:18px">WE</text>
<text text-anchor="start" x="904.0" y="366.75" fill="#808080" style="font-size:18px">OE</text>
<text text-anchor="end" x="956.0" y="326.75" fill="#808080" style="font-size:18px">D</text>
<text text-anchor="middle" x="930.0" y="387.5" fill="#808080" style="font-size:18px">RAM</text>
<circle cx="890.0" cy="300.0" r="8.0" stroke="#000000" stroke-width="4.0" fill="none" />
<circle cx="890.0" cy="360.0" r="8.0" stroke="#000000" stroke-width="4.0" fill="none" />
<circle cx="900.0" cy="280.0" r="2.0" stroke="#0000b2" stroke-width="4.0" fill="#0000b2" />
<circle cx="880.0" cy="300.0" r="2.0" stroke="#0000b2" stroke-width="4.0" fill="#0000b2" />
<circle cx="900.0" cy="340.0" r="2.0" stroke="#0000b2" stroke-width="4.0" fill="#0000b2" />
<circle cx="880.0" cy="360.0" r="2.0" stroke="#0000b2" stroke-width="4.0" fill="#0000b2" />
<circle cx="960.0" cy="320.0" r="2.0" stroke="#b20000" stroke-width="4.0" fill="#b20000" />
</g>
<g>
<circle cx="880.0" cy="500.0" r="2.0" stroke="#b20000" stroke-width="4.0" fill="#b20000" />
</g>
<g>
<path d="M 901,590 L 959,590 L 959,670 L 901,670 Z" stroke="#000000" stroke-width="4.0" fill="none"/>
<text text-anchor="start" x="904.0" y="606.75" fill="#808080" style="font-size:18px">in</text>
<path d="M 901,627 L 908,620 L 901,613" stroke="#000000" stroke-width="2.0" fill="none"/>
<text text-anchor="start" x="911.0" y="626.75" fill="#808080" style="font-size:18px">C</text>
<text text-anchor="start" x="904.0" y="646.75" fill="#808080" style="font-size:18px">wr</text>
<text text-anchor="start" x="904.0" y="666.75" fill="#808080" style="font-size:18px">rd</text>
<text text-anchor="end" x="956.0" y="606.75" fill="#808080" style="font-size:18px">out</text>
<text text-anchor="end" x="956.0" y="626.75" fill="#808080" style="font-size:18px">av</text>
<text text-anchor="middle" x="930.0" y="687.5" fill="#808080" style="font-size:18px">Telnet</text>
<circle cx="900.0" cy="600.0" r="2.0" stroke="#0000b2" stroke-width="4.0" fill="#0000b2" />
<circle cx="900.0" cy="620.0" r="2.0" stroke="#0000b2" stroke-width="4.0" fill="#0000b2" />
<circle cx="900.0" cy="640.0" r="2.0" stroke="#0000b2" stroke-width="4.0" fill="#0000b2" />
<circle cx="900.0" cy="660.0" r="2.0" stroke="#0000b2" stroke-width="4.0" fill="#0000b2" />
<circle cx="960.0" cy="600.0" r="2.0" stroke="#b20000" stroke-width="4.0" fill="#b20000" />
<circle cx="960.0" cy="620.0" r="2.0" stroke="#b20000" stroke-width="4.0" fill="#b20000" />
</g>
<g>
<path d="M 880,620 L 866,612 L 866,628 Z" stroke="#66ff66" stroke-width="4.0" fill="#66ff66" fill-opacity="1.0"/>
<path d="M 880,620 L 866,612 L 866,628 Z" stroke="#000000" stroke-width="4.0" fill="none"/>
<text text-anchor="end" x="861.0" y="626.75" fill="#808080" style="font-size:18px">CLK</text>
<circle cx="880.0" cy="620.0" r="2.0" stroke="#0000b2" stroke-width="4.0" fill="#0000b2" />
</g>
<g>
<path d="M 302,258 L 332,258 L 339,265 L 339,295 L 309,295 L 302,288 Z" stroke="#000000" stroke-width="4.0" fill="none"/>
<path d="M 332,259 L 332,288 L 303,288" stroke="#000000" stroke-width="4.0" fill="none"/>
<text text-anchor="end" x="295.0" y="285.0" fill="#000000" style="font-size:24px">RST</text>
<circle cx="340.0" cy="280.0" r="2.0" stroke="#b20000" stroke-width="4.0" fill="#b20000" />
</g>
<g>
<path d="M 901,430 L 959,430 L 959,530 L 901,530 Z" stroke="#000000" stroke-width="4.0" fill="none"/>
<text text-anchor="middle" x="930.0" y="422.0" fill="#000000" style="font-size:24px">BASIC-ROM 16K</text>
<text text-anchor="start" x="904.0" y="446.75" fill="#808080" style="font-size:18px">A</text>
<text text-anchor="start" x="904.0" y="466.75" fill="#808080" style="font-size:18px">CS</text>
<text text-anchor="start" x="904.0" y="506.75" fill="#808080" style="font-size:18px">WE</text>
<text text-anchor="start" x="904.0" y="526.75" fill="#808080" style="font-size:18px">OE</text>
<text text-anchor="end" x="956.0" y="486.75" fill="#808080" style="font-size:18px">D</text>
<text text-anchor="middle" x="930.0" y="547.5" fill="#808080" style="font-size:18px">RAM</text>
<circle cx="900.0" cy="440.0" r="2.0" stroke="#0000b2" stroke-width="4.0" fill="#0000b2" />
<circle cx="900.0" cy="460.0" r="2.0" stroke="#0000b2" stroke-width="4.0" fill="#0000b2" />
<circle cx="900.0" cy="500.0" r="2.0" stroke="#0000b2" stroke-width="4.0" fill="#0000b2" />
<circle cx="900.0" cy="520.0" r="2.0" stroke="#0000b2" stroke-width="4.0" fill="#0000b2" />
<circle cx="960.0" cy="480.0" r="2.0" stroke="#b20000" stroke-width="4.0" fill="#b20000" />
</g>
<g>
<path d="M 401,266 L 479,266 L 479,354 L 401,354 Z" stroke="#ffffb4" stroke-width="0.0" fill="#ffffb4" fill-opacity="0.7843137254901961"/>
<path d="M 401,266 L 479,266 L 479,354 L 401,354 Z" stroke="#000000" stroke-width="4.0" fill="none"/>
<text text-anchor="middle" x="440.0" y="258.0" fill="#000000" style="font-size:24px">6502</text>
<text text-anchor="start" x="404.0" y="286.75" fill="#808080" style="font-size:18px">RST</text>
<text text-anchor="start" x="404.0" y="306.75" fill="#808080" style="font-size:18px">NMI</text>
<text text-anchor="start" x="404.0" y="326.75" fill="#808080" style="font-size:18px">INT</text>
<path d="M 401,347 L 408,340 L 401,333" stroke="#000000" stroke-width="2.0" fill="none"/>
<text text-anchor="start" x="411.0" y="346.75" fill="#808080" style="font-size:18px">CLK</text>
<text text-anchor="end" x="476.0" y="286.75" fill="#808080" style="font-size:18px">AD</text>
<text text-anchor="end" x="476.0" y="306.75" fill="#808080" style="font-size:18px">DA</text>
<text text-anchor="end" x="476.0" y="326.75" fill="#808080" style="font-size:18px">WR</text>
<text text-anchor="middle" x="440.0" y="371.5" fill="#808080" style="font-size:18px">CPU</text>
<circle cx="400.0" cy="280.0" r="2.0" stroke="#0000b2" stroke-width="4.0" fill="#0000b2" />
<circle cx="400.0" cy="300.0" r="2.0" stroke="#0000b2" stroke-width="4.0" fill="#0000b2" />
<circle cx="400.0" cy="320.0" r="2.0" stroke="#0000b2" stroke-width="4.0" fill="#0000b2" />
<circle cx="400.0" cy="340.0" r="2.0" stroke="#0000b2" stroke-width="4.0" fill="#0000b2" />
<circle cx="480.0" cy="280.0" r="2.0" stroke="#b20000" stroke-width="4.0" fill="#b20000" />
<circle cx="480.0" cy="300.0" r="2.0" stroke="#b20000" stroke-width="4.0" fill="#b20000" />
<circle cx="480.0" cy="320.0" r="2.0" stroke="#b20000" stroke-width="4.0" fill="#b20000" />
</g>
</g>
</svg>