<?xml version="1.0" encoding="UTF-8" standalone="no"?>
<!-- Created with Digital by H.Neemann -->
<!-- created: Mon Nov 03 13:52:45 CET 2025 -->

<svg
   xmlns:svg="http://www.w3.org/2000/svg"
   xmlns="http://www.w3.org/2000/svg"
   width="122.4mm"
   height="114.45mm"
   viewBox="61 289 816 763">
<g stroke-linecap="square">
<path d="M 680,960 L 720,960" stroke="#0000b2" stroke-width="4.0" fill="none"/>
<path d="M 580,960 L 600,960" stroke="#0000b2" stroke-width="4.0" fill="none"/>
<path d="M 620,320 L 640,320" stroke="#0000b2" stroke-width="4.0" fill="none"/>
<path d="M 360,580 L 380,580" stroke="#0000b2" stroke-width="4.0" fill="none"/>
<path d="M 540,580 L 580,580" stroke="#0000b2" stroke-width="4.0" fill="none"/>
<path d="M 600,580 L 620,580" stroke="#0000b2" stroke-width="4.0" fill="none"/>
<path d="M 500,580 L 520,580 L 520,600 L 580,600" stroke="#0000b2" stroke-width="4.0" fill="none"/>
<path d="M 300,840 L 340,840" stroke="#0000b2" stroke-width="4.0" fill="none"/>
<path d="M 500,780 L 520,780" stroke="#0000b2" stroke-width="4.0" fill="none"/>
<path d="M 440,820 L 440,780 L 460,780" stroke="#0000b2" stroke-width="4.0" fill="none"/>
<path d="M 320,760 L 320,780 L 340,780" stroke="#0000b2" stroke-width="4.0" fill="none"/>
<path d="M 700,760 L 700,780 L 720,780" stroke="#0000b2" stroke-width="4.0" fill="none"/>
<path d="M 280,460 L 300,460" stroke="#0000b2" stroke-width="4.0" fill="none"/>
<path d="M 500,460 L 520,460" stroke="#0000b2" stroke-width="4.0" fill="none"/>
<path d="M 580,1040 L 600,1040" stroke="#0000b2" stroke-width="4.0" fill="none"/>
<path d="M 180,400 L 200,400" stroke="#0000b2" stroke-width="4.0" fill="none"/>
<path d="M 780,980 L 800,980" stroke="#0000b2" stroke-width="4.0" fill="none"/>
<path d="M 580,980 L 620,980" stroke="#0000b2" stroke-width="4.0" fill="none"/>
<path d="M 200,660 L 220,660" stroke="#0000b2" stroke-width="4.0" fill="none"/>
<path d="M 500,340 L 520,340" stroke="#0000b2" stroke-width="4.0" fill="none"/>
<path d="M 580,340 L 600,340 L 640,340" stroke="#0000b2" stroke-width="4.0" fill="none"/>
<path d="M 280,340 L 300,340 L 400,340" stroke="#0000b2" stroke-width="4.0" fill="none"/>
<path d="M 140,600 L 160,600" stroke="#0000b2" stroke-width="4.0" fill="none"/>
<path d="M 280,600 L 300,600" stroke="#0000b2" stroke-width="4.0" fill="none"/>
<path d="M 140,540 L 160,540" stroke="#0000b2" stroke-width="4.0" fill="none"/>
<path d="M 300,860 L 340,860" stroke="#0000b2" stroke-width="4.0" fill="none"/>
<path d="M 680,860 L 700,860 L 720,860" stroke="#0000b2" stroke-width="4.0" fill="none"/>
<path d="M 140,480 L 160,480" stroke="#0000b2" stroke-width="4.0" fill="none"/>
<path d="M 360,480 L 380,480" stroke="#0000b2" stroke-width="4.0" fill="none"/>
<path d="M 580,480 L 600,480" stroke="#0000b2" stroke-width="4.0" fill="none"/>
<path d="M 320,780 L 320,800 L 340,800" stroke="#0000b2" stroke-width="4.0" fill="none"/>
<path d="M 700,780 L 700,800 L 720,800" stroke="#0000b2" stroke-width="4.0" fill="none"/>
<path d="M 460,740 L 480,740 L 480,760" stroke="#0000b2" stroke-width="4.0" fill="none"/>
<path d="M 680,740 L 700,740 L 720,740" stroke="#0000b2" stroke-width="4.0" fill="none"/>
<path d="M 300,740 L 320,740 L 340,740" stroke="#0000b2" stroke-width="4.0" fill="none"/>
<path d="M 140,420 L 160,420 L 200,420" stroke="#0000b2" stroke-width="4.0" fill="none"/>
<path d="M 400,420 L 420,420 L 420,380" stroke="#0000b2" stroke-width="4.0" fill="none"/>
<path d="M 440,360 L 460,360 L 520,360" stroke="#0000b2" stroke-width="4.0" fill="none"/>
<path d="M 580,360 L 640,360" stroke="#0000b2" stroke-width="4.0" fill="none"/>
<path d="M 580,1000 L 620,1000" stroke="#0000b2" stroke-width="4.0" fill="none"/>
<path d="M 460,320 L 460,300 L 480,300" stroke="#0000b2" stroke-width="4.0" fill="none"/>
<path d="M 580,940 L 600,940" stroke="#0000b2" stroke-width="4.0" fill="none"/>
<path d="M 500,560 L 520,560" stroke="#0000b2" stroke-width="4.0" fill="none"/>
<path d="M 540,560 L 620,560" stroke="#0000b2" stroke-width="4.0" fill="none"/>
<path d="M 280,560 L 300,560" stroke="#0000b2" stroke-width="4.0" fill="none"/>
<path d="M 300,880 L 340,880" stroke="#0000b2" stroke-width="4.0" fill="none"/>
<path d="M 680,880 L 720,880" stroke="#0000b2" stroke-width="4.0" fill="none"/>
<path d="M 500,500 L 520,500" stroke="#0000b2" stroke-width="4.0" fill="none"/>
<path d="M 280,500 L 300,500" stroke="#0000b2" stroke-width="4.0" fill="none"/>
<path d="M 300,820 L 340,820" stroke="#0000b2" stroke-width="4.0" fill="none"/>
<path d="M 760,820 L 800,820" stroke="#0000b2" stroke-width="4.0" fill="none"/>
<path d="M 380,820 L 440,820 L 520,820" stroke="#0000b2" stroke-width="4.0" fill="none"/>
<path d="M 700,740 L 700,760 L 720,760" stroke="#0000b2" stroke-width="4.0" fill="none"/>
<path d="M 320,740 L 320,760 L 340,760" stroke="#0000b2" stroke-width="4.0" fill="none"/>
<path d="M 300,340 L 300,380 L 320,380" stroke="#0000b2" stroke-width="4.0" fill="none"/>
<path d="M 380,380 L 400,380" stroke="#0000b2" stroke-width="4.0" fill="none"/>
<path d="M 500,380 L 520,380" stroke="#0000b2" stroke-width="4.0" fill="none"/>
<path d="M 680,1020 L 700,1020 L 700,1000 L 720,1000" stroke="#0000b2" stroke-width="4.0" fill="none"/>
<path d="M 580,1020 L 620,1020" stroke="#0000b2" stroke-width="4.0" fill="none"/>
<path d="M 140,700 L 180,700 L 360,700 L 740,700 L 740,740" stroke="#0000b2" stroke-width="4.0" fill="none"/>
<path d="M 160,400 L 160,420" stroke="#0000b2" stroke-width="4.0" fill="none"/>
<path d="M 360,700 L 360,740" stroke="#0000b2" stroke-width="4.0" fill="none"/>
<path d="M 460,340 L 460,360" stroke="#0000b2" stroke-width="4.0" fill="none"/>
<path d="M 180,660 L 180,700" stroke="#0000b2" stroke-width="4.0" fill="none"/>
<path d="M 600,320 L 600,340" stroke="#0000b2" stroke-width="4.0" fill="none"/>
<path d="M 720,840 L 700,840 L 700,820 L 720,820" stroke="#0000b2" stroke-width="4.0" fill="none"/>
<path d="M 700,840 L 700,860" stroke="#0000b2" stroke-width="4.0" fill="none"/>
<path d="M 480,760 L 480,773" stroke="#000000" stroke-width="4.0" fill="none"/>
<path d="M 520,560 L 530,560 L 540,560" stroke="#000000" stroke-width="4.0" fill="none"/>
<path d="M 540,580 L 530,580" stroke="#000000" stroke-width="4.0" fill="none"/>
<path d="M 580,580 L 590,580 L 600,580" stroke="#000000" stroke-width="4.0" fill="none"/>
<path d="M 580,600 L 590,600" stroke="#000000" stroke-width="4.0" fill="none"/>
<path d="M 180,660 L 190,660 L 200,660" stroke="#000000" stroke-width="4.0" fill="none"/>
<path d="M 160,400 L 170,400 L 180,400" stroke="#000000" stroke-width="4.0" fill="none"/>
<path d="M 600,320 L 610,320 L 620,320" stroke="#000000" stroke-width="4.0" fill="none"/>
<path d="M 460,340 L 460,330 L 460,320" stroke="#000000" stroke-width="4.0" fill="none"/>
<path d="M 680,870 L 680,850" stroke="#000000" stroke-width="6.0" fill="none"/>
<g>
<circle cx="700.0" cy="840.0" r="4.0" stroke="#0000b2" stroke-width="4.0" fill="#0000b2" />
<circle cx="320.0" cy="780.0" r="4.0" stroke="#0000b2" stroke-width="4.0" fill="#0000b2" />
<circle cx="700.0" cy="780.0" r="4.0" stroke="#0000b2" stroke-width="4.0" fill="#0000b2" />
<circle cx="600.0" cy="340.0" r="4.0" stroke="#0000b2" stroke-width="4.0" fill="#0000b2" />
<circle cx="300.0" cy="340.0" r="4.0" stroke="#0000b2" stroke-width="4.0" fill="#0000b2" />
<circle cx="700.0" cy="860.0" r="4.0" stroke="#0000b2" stroke-width="4.0" fill="#0000b2" />
<circle cx="700.0" cy="740.0" r="4.0" stroke="#0000b2" stroke-width="4.0" fill="#0000b2" />
<circle cx="320.0" cy="740.0" r="4.0" stroke="#0000b2" stroke-width="4.0" fill="#0000b2" />
<circle cx="160.0" cy="420.0" r="4.0" stroke="#0000b2" stroke-width="4.0" fill="#0000b2" />
<circle cx="460.0" cy="360.0" r="4.0" stroke="#0000b2" stroke-width="4.0" fill="#0000b2" />
<circle cx="440.0" cy="820.0" r="4.0" stroke="#0000b2" stroke-width="4.0" fill="#0000b2" />
<circle cx="700.0" cy="760.0" r="4.0" stroke="#0000b2" stroke-width="4.0" fill="#0000b2" />
<circle cx="320.0" cy="760.0" r="4.0" stroke="#0000b2" stroke-width="4.0" fill="#0000b2" />
<circle cx="180.0" cy="700.0" r="4.0" stroke="#0000b2" stroke-width="4.0" fill="#0000b2" />
<circle cx="360.0" cy="700.0" r="4.0" stroke="#0000b2" stroke-width="4.0" fill="#0000b2" />
</g>
<g>
<path d="M 109,405 L 139,405 L 139,435 L 109,435 Z" stroke="#000000" stroke-width="4.0" fill="none"/>
<circle cx="124.0" cy="420.0" r="9.0" stroke="#000000" stroke-width="4.0" fill="none" />
<text text-anchor="end" x="95.0" y="429.0" fill="#000000" style="font-size:24px"><tspan style="font-style:italic;">A</tspan></text>
<circle cx="140.0" cy="420.0" r="2.0" stroke="#b20000" stroke-width="4.0" fill="#b20000" />
</g>
<g>
<path d="M 109,465 L 139,465 L 139,495 L 109,495 Z" stroke="#000000" stroke-width="4.0" fill="none"/>
<circle cx="124.0" cy="480.0" r="9.0" stroke="#000000" stroke-width="4.0" fill="none" />
<text text-anchor="end" x="95.0" y="489.0" fill="#000000" style="font-size:24px"><tspan style="font-style:italic;">B</tspan></text>
<circle cx="140.0" cy="480.0" r="2.0" stroke="#b20000" stroke-width="4.0" fill="#b20000" />
</g>
<g>
<path d="M 109,525 L 139,525 L 139,555 L 109,555 Z" stroke="#000000" stroke-width="4.0" fill="none"/>
<circle cx="124.0" cy="540.0" r="9.0" stroke="#000000" stroke-width="4.0" fill="none" />
<text text-anchor="end" x="95.0" y="549.0" fill="#000000" style="font-size:24px"><tspan style="font-style:italic;">C<tspan style="font-size:80%;baseline-shift:sub;">i</tspan></tspan></text>
<circle cx="140.0" cy="540.0" r="2.0" stroke="#b20000" stroke-width="4.0" fill="#b20000" />
</g>
<g>
<path d="M 109,585 L 139,585 L 139,615 L 109,615 Z" stroke="#000000" stroke-width="4.0" fill="none"/>
<circle cx="124.0" cy="600.0" r="9.0" stroke="#000000" stroke-width="4.0" fill="none" />
<text text-anchor="end" x="95.0" y="609.0" fill="#000000" style="font-size:24px"><tspan style="font-style:italic;">D<tspan style="font-size:80%;baseline-shift:sub;">i</tspan></tspan></text>
<circle cx="140.0" cy="600.0" r="2.0" stroke="#b20000" stroke-width="4.0" fill="#b20000" />
</g>
<g>
<circle cx="536.0" cy="780.0" r="9.0" stroke="#000000" stroke-width="4.0" fill="none" />
<circle cx="536.0" cy="780.0" r="15.0" stroke="#000000" stroke-width="4.0" fill="none" />
<text text-anchor="start" x="565.0" y="789.0" fill="#000000" style="font-size:24px"><tspan style="font-style:italic;">BUS</tspan></text>
<circle cx="520.0" cy="780.0" r="2.0" stroke="#0000b2" stroke-width="4.0" fill="#0000b2" />
</g>
<g>
<circle cx="536.0" cy="820.0" r="9.0" stroke="#000000" stroke-width="4.0" fill="none" />
<circle cx="536.0" cy="820.0" r="15.0" stroke="#000000" stroke-width="4.0" fill="none" />
<text text-anchor="start" x="565.0" y="829.0" fill="#000000" style="font-size:24px"><tspan style="font-style:italic;">Y</tspan></text>
<circle cx="520.0" cy="820.0" r="2.0" stroke="#0000b2" stroke-width="4.0" fill="#0000b2" />
</g>
<g>
<circle cx="816.0" cy="820.0" r="9.0" stroke="#000000" stroke-width="4.0" fill="none" />
<circle cx="816.0" cy="820.0" r="15.0" stroke="#000000" stroke-width="4.0" fill="none" />
<text text-anchor="start" x="845.0" y="829.0" fill="#000000" style="font-size:24px"><tspan style="font-style:italic;">C<tspan style="font-size:80%;baseline-shift:sub;">o</tspan></tspan></text>
<circle cx="800.0" cy="820.0" r="2.0" stroke="#0000b2" stroke-width="4.0" fill="#0000b2" />
</g>
<g>
<circle cx="816.0" cy="980.0" r="9.0" stroke="#000000" stroke-width="4.0" fill="none" />
<circle cx="816.0" cy="980.0" r="15.0" stroke="#000000" stroke-width="4.0" fill="none" />
<text text-anchor="start" x="845.0" y="989.0" fill="#000000" style="font-size:24px"><tspan style="font-style:italic;">V</tspan></text>
<circle cx="800.0" cy="980.0" r="2.0" stroke="#0000b2" stroke-width="4.0" fill="#0000b2" />
</g>
<g>
<path d="M 200,420 L 214,428 L 214,412 Z" stroke="#000000" stroke-width="4.0" fill="none"/>
<text text-anchor="start" x="219.0" y="426.75" fill="#808080" style="font-size:18px">A</text>
<circle cx="200.0" cy="420.0" r="2.0" stroke="#0000b2" stroke-width="4.0" fill="#0000b2" />
</g>
<g>
<path d="M 160,480 L 174,488 L 174,472 Z" stroke="#000000" stroke-width="4.0" fill="none"/>
<text text-anchor="start" x="179.0" y="486.75" fill="#808080" style="font-size:18px">B</text>
<circle cx="160.0" cy="480.0" r="2.0" stroke="#0000b2" stroke-width="4.0" fill="#0000b2" />
</g>
<g>
<path d="M 160,540 L 174,548 L 174,532 Z" stroke="#000000" stroke-width="4.0" fill="none"/>
<text text-anchor="start" x="179.0" y="546.75" fill="#808080" style="font-size:18px">C<tspan style="font-size:80%;baseline-shift:sub;">i</tspan></text>
<circle cx="160.0" cy="540.0" r="2.0" stroke="#0000b2" stroke-width="4.0" fill="#0000b2" />
</g>
<g>
<path d="M 341,736 L 379,745 L 379,895 L 341,904 Z" stroke="#000000" stroke-width="4.0" fill="none"/>
<text text-anchor="start" x="343.0" y="755.5" fill="#808080" style="font-size:18px">0</text>
<circle cx="360.0" cy="740.0" r="2.0" stroke="#0000b2" stroke-width="4.0" fill="#0000b2" />
<circle cx="340.0" cy="740.0" r="2.0" stroke="#0000b2" stroke-width="4.0" fill="#0000b2" />
<circle cx="340.0" cy="760.0" r="2.0" stroke="#0000b2" stroke-width="4.0" fill="#0000b2" />
<circle cx="340.0" cy="780.0" r="2.0" stroke="#0000b2" stroke-width="4.0" fill="#0000b2" />
<circle cx="340.0" cy="800.0" r="2.0" stroke="#0000b2" stroke-width="4.0" fill="#0000b2" />
<circle cx="340.0" cy="820.0" r="2.0" stroke="#0000b2" stroke-width="4.0" fill="#0000b2" />
<circle cx="340.0" cy="840.0" r="2.0" stroke="#0000b2" stroke-width="4.0" fill="#0000b2" />
<circle cx="340.0" cy="860.0" r="2.0" stroke="#0000b2" stroke-width="4.0" fill="#0000b2" />
<circle cx="340.0" cy="880.0" r="2.0" stroke="#0000b2" stroke-width="4.0" fill="#0000b2" />
<circle cx="380.0" cy="820.0" r="2.0" stroke="#b20000" stroke-width="4.0" fill="#b20000" />
</g>
<g>
<path d="M 461,768 L 499,780 L 461,792 Z" stroke="#000000" stroke-width="4.0" fill="none"/>
<circle cx="460.0" cy="780.0" r="2.0" stroke="#0000b2" stroke-width="4.0" fill="#0000b2" />
<circle cx="480.0" cy="760.0" r="2.0" stroke="#0000b2" stroke-width="4.0" fill="#0000b2" />
<circle cx="500.0" cy="780.0" r="2.0" stroke="#b20000" stroke-width="4.0" fill="#b20000" />
</g>
<g>
<path d="M 109,685 L 139,685 L 139,715 L 109,715 Z" stroke="#000000" stroke-width="4.0" fill="none"/>
<circle cx="124.0" cy="700.0" r="9.0" stroke="#000000" stroke-width="4.0" fill="none" />
<text text-anchor="end" x="95.0" y="709.0" fill="#000000" style="font-size:24px"><tspan style="font-style:italic;">Op</tspan></text>
<circle cx="140.0" cy="700.0" r="2.0" stroke="#b20000" stroke-width="4.0" fill="#b20000" />
</g>
<g>
<path d="M 300,740 L 286,732 L 286,748 Z" stroke="#000000" stroke-width="4.0" fill="none"/>
<text text-anchor="end" x="281.0" y="746.75" fill="#808080" style="font-size:18px">Y<tspan style="font-size:80%;baseline-shift:sub;">SUM</tspan></text>
<circle cx="300.0" cy="740.0" r="2.0" stroke="#0000b2" stroke-width="4.0" fill="#0000b2" />
</g>
<g>
<path d="M 721,736 L 759,745 L 759,895 L 721,904 Z" stroke="#000000" stroke-width="4.0" fill="none"/>
<text text-anchor="start" x="723.0" y="755.5" fill="#808080" style="font-size:18px">0</text>
<circle cx="740.0" cy="740.0" r="2.0" stroke="#0000b2" stroke-width="4.0" fill="#0000b2" />
<circle cx="720.0" cy="740.0" r="2.0" stroke="#0000b2" stroke-width="4.0" fill="#0000b2" />
<circle cx="720.0" cy="760.0" r="2.0" stroke="#0000b2" stroke-width="4.0" fill="#0000b2" />
<circle cx="720.0" cy="780.0" r="2.0" stroke="#0000b2" stroke-width="4.0" fill="#0000b2" />
<circle cx="720.0" cy="800.0" r="2.0" stroke="#0000b2" stroke-width="4.0" fill="#0000b2" />
<circle cx="720.0" cy="820.0" r="2.0" stroke="#0000b2" stroke-width="4.0" fill="#0000b2" />
<circle cx="720.0" cy="840.0" r="2.0" stroke="#0000b2" stroke-width="4.0" fill="#0000b2" />
<circle cx="720.0" cy="860.0" r="2.0" stroke="#0000b2" stroke-width="4.0" fill="#0000b2" />
<circle cx="720.0" cy="880.0" r="2.0" stroke="#0000b2" stroke-width="4.0" fill="#0000b2" />
<circle cx="760.0" cy="820.0" r="2.0" stroke="#b20000" stroke-width="4.0" fill="#b20000" />
</g>
<g>
<path d="M 680,740 L 666,732 L 666,748 Z" stroke="#000000" stroke-width="4.0" fill="none"/>
<text text-anchor="end" x="661.0" y="746.75" fill="#808080" style="font-size:18px">C<tspan style="font-size:80%;baseline-shift:sub;">o</tspan></text>
<circle cx="680.0" cy="740.0" r="2.0" stroke="#0000b2" stroke-width="4.0" fill="#0000b2" />
</g>
<g>
<path d="M 301,450 L 359,450 L 359,510 L 301,510 Z" stroke="#000000" stroke-width="4.0" fill="none"/>
<text text-anchor="middle" x="330.0" y="472.0" fill="#000000" style="font-size:24px">&amp;</text>
<circle cx="300.0" cy="460.0" r="2.0" stroke="#0000b2" stroke-width="4.0" fill="#0000b2" />
<circle cx="300.0" cy="500.0" r="2.0" stroke="#0000b2" stroke-width="4.0" fill="#0000b2" />
<circle cx="360.0" cy="480.0" r="2.0" stroke="#b20000" stroke-width="4.0" fill="#b20000" />
</g>
<g>
<path d="M 280,460 L 266,452 L 266,468 Z" stroke="#000000" stroke-width="4.0" fill="none"/>
<text text-anchor="end" x="261.0" y="466.75" fill="#808080" style="font-size:18px">A</text>
<circle cx="280.0" cy="460.0" r="2.0" stroke="#0000b2" stroke-width="4.0" fill="#0000b2" />
</g>
<g>
<path d="M 280,500 L 266,492 L 266,508 Z" stroke="#000000" stroke-width="4.0" fill="none"/>
<text text-anchor="end" x="261.0" y="506.75" fill="#808080" style="font-size:18px">B</text>
<circle cx="280.0" cy="500.0" r="2.0" stroke="#0000b2" stroke-width="4.0" fill="#0000b2" />
</g>
<g>
<path d="M 380,480 L 394,488 L 394,472 Z" stroke="#000000" stroke-width="4.0" fill="none"/>
<text text-anchor="start" x="399.0" y="486.75" fill="#808080" style="font-size:18px">Y<tspan style="font-size:80%;baseline-shift:sub;">AND</tspan></text>
<circle cx="380.0" cy="480.0" r="2.0" stroke="#0000b2" stroke-width="4.0" fill="#0000b2" />
</g>
<g>
<path d="M 500,460 L 486,452 L 486,468 Z" stroke="#000000" stroke-width="4.0" fill="none"/>
<text text-anchor="end" x="481.0" y="466.75" fill="#808080" style="font-size:18px">A</text>
<circle cx="500.0" cy="460.0" r="2.0" stroke="#0000b2" stroke-width="4.0" fill="#0000b2" />
</g>
<g>
<path d="M 600,480 L 614,488 L 614,472 Z" stroke="#000000" stroke-width="4.0" fill="none"/>
<text text-anchor="start" x="619.0" y="486.75" fill="#808080" style="font-size:18px">Y<tspan style="font-size:80%;baseline-shift:sub;">OR</tspan></text>
<circle cx="600.0" cy="480.0" r="2.0" stroke="#0000b2" stroke-width="4.0" fill="#0000b2" />
</g>
<g>
<path d="M 521,450 L 579,450 L 579,510 L 521,510 Z" stroke="#000000" stroke-width="4.0" fill="none"/>
<text text-anchor="middle" x="550.0" y="472.0" fill="#000000" style="font-size:24px">≥1</text>
<circle cx="520.0" cy="460.0" r="2.0" stroke="#0000b2" stroke-width="4.0" fill="#0000b2" />
<circle cx="520.0" cy="500.0" r="2.0" stroke="#0000b2" stroke-width="4.0" fill="#0000b2" />
<circle cx="580.0" cy="480.0" r="2.0" stroke="#b20000" stroke-width="4.0" fill="#b20000" />
</g>
<g>
<path d="M 301,550 L 359,550 L 359,610 L 301,610 Z" stroke="#000000" stroke-width="4.0" fill="none"/>
<text text-anchor="middle" x="330.0" y="572.0" fill="#000000" style="font-size:24px">=1</text>
<circle cx="300.0" cy="560.0" r="2.0" stroke="#0000b2" stroke-width="4.0" fill="#0000b2" />
<circle cx="300.0" cy="600.0" r="2.0" stroke="#0000b2" stroke-width="4.0" fill="#0000b2" />
<circle cx="360.0" cy="580.0" r="2.0" stroke="#b20000" stroke-width="4.0" fill="#b20000" />
</g>
<g>
<path d="M 280,560 L 266,552 L 266,568 Z" stroke="#000000" stroke-width="4.0" fill="none"/>
<text text-anchor="end" x="261.0" y="566.75" fill="#808080" style="font-size:18px">A</text>
<circle cx="280.0" cy="560.0" r="2.0" stroke="#0000b2" stroke-width="4.0" fill="#0000b2" />
</g>
<g>
<path d="M 380,580 L 394,588 L 394,572 Z" stroke="#000000" stroke-width="4.0" fill="none"/>
<text text-anchor="start" x="399.0" y="586.75" fill="#808080" style="font-size:18px">Y<tspan style="font-size:80%;baseline-shift:sub;">XOR</tspan></text>
<circle cx="380.0" cy="580.0" r="2.0" stroke="#0000b2" stroke-width="4.0" fill="#0000b2" />
</g>
<g>
<path d="M 500,560 L 486,552 L 486,568 Z" stroke="#000000" stroke-width="4.0" fill="none"/>
<text text-anchor="end" x="481.0" y="566.75" fill="#808080" style="font-size:18px">A</text>
<circle cx="500.0" cy="560.0" r="2.0" stroke="#0000b2" stroke-width="4.0" fill="#0000b2" />
</g>
<g>
<path d="M 500,580 L 486,572 L 486,588 Z" stroke="#000000" stroke-width="4.0" fill="none"/>
<text text-anchor="end" x="481.0" y="586.75" fill="#808080" style="font-size:18px">C<tspan style="font-size:80%;baseline-shift:sub;">i</tspan></text>
<circle cx="500.0" cy="580.0" r="2.0" stroke="#0000b2" stroke-width="4.0" fill="#0000b2" />
</g>
<g>
<path d="M 620,580 L 634,588 L 634,572 Z" stroke="#000000" stroke-width="4.0" fill="none"/>
<text text-anchor="start" x="639.0" y="586.75" fill="#808080" style="font-size:18px">Y<tspan style="font-size:80%;baseline-shift:sub;">SHR</tspan></text>
<circle cx="620.0" cy="580.0" r="2.0" stroke="#0000b2" stroke-width="4.0" fill="#0000b2" />
</g>
<g>
<path d="M 300,820 L 286,812 L 286,828 Z" stroke="#000000" stroke-width="4.0" fill="none"/>
<text text-anchor="end" x="281.0" y="826.75" fill="#808080" style="font-size:18px">Y<tspan style="font-size:80%;baseline-shift:sub;">AND</tspan></text>
<circle cx="300.0" cy="820.0" r="2.0" stroke="#0000b2" stroke-width="4.0" fill="#0000b2" />
</g>
<g>
<path d="M 300,840 L 286,832 L 286,848 Z" stroke="#000000" stroke-width="4.0" fill="none"/>
<text text-anchor="end" x="281.0" y="846.75" fill="#808080" style="font-size:18px">Y<tspan style="font-size:80%;baseline-shift:sub;">OR</tspan></text>
<circle cx="300.0" cy="840.0" r="2.0" stroke="#0000b2" stroke-width="4.0" fill="#0000b2" />
</g>
<g>
<path d="M 300,860 L 286,852 L 286,868 Z" stroke="#000000" stroke-width="4.0" fill="none"/>
<text text-anchor="end" x="281.0" y="866.75" fill="#808080" style="font-size:18px">Y<tspan style="font-size:80%;baseline-shift:sub;">XOR</tspan></text>
<circle cx="300.0" cy="860.0" r="2.0" stroke="#0000b2" stroke-width="4.0" fill="#0000b2" />
</g>
<g>
<path d="M 620,560 L 634,568 L 634,552 Z" stroke="#000000" stroke-width="4.0" fill="none"/>
<text text-anchor="start" x="639.0" y="566.75" fill="#808080" style="font-size:18px">C<tspan style="font-size:80%;baseline-shift:sub;">SHR</tspan></text>
<circle cx="620.0" cy="560.0" r="2.0" stroke="#0000b2" stroke-width="4.0" fill="#0000b2" />
</g>
<g>
<path d="M 300,880 L 286,872 L 286,888 Z" stroke="#000000" stroke-width="4.0" fill="none"/>
<text text-anchor="end" x="281.0" y="886.75" fill="#808080" style="font-size:18px">Y<tspan style="font-size:80%;baseline-shift:sub;">SHR</tspan></text>
<circle cx="300.0" cy="880.0" r="2.0" stroke="#0000b2" stroke-width="4.0" fill="#0000b2" />
</g>
<g>
<path d="M 680,880 L 666,872 L 666,888 Z" stroke="#000000" stroke-width="4.0" fill="none"/>
<text text-anchor="end" x="661.0" y="886.75" fill="#808080" style="font-size:18px">C<tspan style="font-size:80%;baseline-shift:sub;">SHR</tspan></text>
<circle cx="680.0" cy="880.0" r="2.0" stroke="#0000b2" stroke-width="4.0" fill="#0000b2" />
</g>
<g>
<text text-anchor="end" x="518.0" y="557.0" fill="#808080" style="font-size:12px">0-7</text>
<text text-anchor="start" x="542.0" y="557.0" fill="#808080" style="font-size:12px">0</text>
<text text-anchor="start" x="542.0" y="577.0" fill="#808080" style="font-size:12px">1-7</text>
<path d="M 528,558 L 532,558 L 532,582 L 528,582 Z" stroke="#000000" stroke-width="4.0" fill="#000000" fill-opacity="1.0"/>
<circle cx="520.0" cy="560.0" r="2.0" stroke="#0000b2" stroke-width="4.0" fill="#0000b2" />
<circle cx="540.0" cy="560.0" r="2.0" stroke="#b20000" stroke-width="4.0" fill="#b20000" />
<circle cx="540.0" cy="580.0" r="2.0" stroke="#b20000" stroke-width="4.0" fill="#b20000" />
</g>
<g>
<text text-anchor="end" x="578.0" y="577.0" fill="#808080" style="font-size:12px">0-6</text>
<text text-anchor="end" x="578.0" y="597.0" fill="#808080" style="font-size:12px">7</text>
<text text-anchor="start" x="602.0" y="577.0" fill="#808080" style="font-size:12px">0-7</text>
<path d="M 588,578 L 592,578 L 592,602 L 588,602 Z" stroke="#000000" stroke-width="4.0" fill="#000000" fill-opacity="1.0"/>
<circle cx="580.0" cy="580.0" r="2.0" stroke="#0000b2" stroke-width="4.0" fill="#0000b2" />
<circle cx="580.0" cy="600.0" r="2.0" stroke="#0000b2" stroke-width="4.0" fill="#0000b2" />
<circle cx="600.0" cy="580.0" r="2.0" stroke="#b20000" stroke-width="4.0" fill="#b20000" />
</g>
<g>
<path d="M 621,930 L 679,930 L 679,990 L 621,990 Z" stroke="#000000" stroke-width="4.0" fill="none"/>
<text text-anchor="middle" x="650.0" y="952.0" fill="#000000" style="font-size:24px">&amp;</text>
<circle cx="610.0" cy="940.0" r="8.0" stroke="#000000" stroke-width="4.0" fill="none" />
<circle cx="610.0" cy="960.0" r="8.0" stroke="#000000" stroke-width="4.0" fill="none" />
<circle cx="600.0" cy="940.0" r="2.0" stroke="#0000b2" stroke-width="4.0" fill="#0000b2" />
<circle cx="600.0" cy="960.0" r="2.0" stroke="#0000b2" stroke-width="4.0" fill="#0000b2" />
<circle cx="620.0" cy="980.0" r="2.0" stroke="#0000b2" stroke-width="4.0" fill="#0000b2" />
<circle cx="680.0" cy="960.0" r="2.0" stroke="#b20000" stroke-width="4.0" fill="#b20000" />
</g>
<g>
<path d="M 621,990 L 679,990 L 679,1050 L 621,1050 Z" stroke="#000000" stroke-width="4.0" fill="none"/>
<text text-anchor="middle" x="650.0" y="1012.0" fill="#000000" style="font-size:24px">&amp;</text>
<circle cx="610.0" cy="1040.0" r="8.0" stroke="#000000" stroke-width="4.0" fill="none" />
<circle cx="620.0" cy="1000.0" r="2.0" stroke="#0000b2" stroke-width="4.0" fill="#0000b2" />
<circle cx="620.0" cy="1020.0" r="2.0" stroke="#0000b2" stroke-width="4.0" fill="#0000b2" />
<circle cx="600.0" cy="1040.0" r="2.0" stroke="#0000b2" stroke-width="4.0" fill="#0000b2" />
<circle cx="680.0" cy="1020.0" r="2.0" stroke="#b20000" stroke-width="4.0" fill="#b20000" />
</g>
<g>
<path d="M 721,950 L 779,950 L 779,1010 L 721,1010 Z" stroke="#000000" stroke-width="4.0" fill="none"/>
<text text-anchor="middle" x="750.0" y="972.0" fill="#000000" style="font-size:24px">≥1</text>
<circle cx="720.0" cy="960.0" r="2.0" stroke="#0000b2" stroke-width="4.0" fill="#0000b2" />
<circle cx="720.0" cy="1000.0" r="2.0" stroke="#0000b2" stroke-width="4.0" fill="#0000b2" />
<circle cx="780.0" cy="980.0" r="2.0" stroke="#b20000" stroke-width="4.0" fill="#b20000" />
</g>
<g>
<path d="M 401,336 L 439,345 L 439,375 L 401,384 Z" stroke="#000000" stroke-width="4.0" fill="none"/>
<text text-anchor="start" x="403.0" y="355.5" fill="#808080" style="font-size:18px">0</text>
<circle cx="420.0" cy="380.0" r="2.0" stroke="#0000b2" stroke-width="4.0" fill="#0000b2" />
<circle cx="400.0" cy="340.0" r="2.0" stroke="#0000b2" stroke-width="4.0" fill="#0000b2" />
<circle cx="400.0" cy="380.0" r="2.0" stroke="#0000b2" stroke-width="4.0" fill="#0000b2" />
<circle cx="440.0" cy="360.0" r="2.0" stroke="#b20000" stroke-width="4.0" fill="#b20000" />
</g>
<g>
<path d="M 321,360 L 359,360 L 359,400 L 321,400 Z" stroke="#000000" stroke-width="4.0" fill="none"/>
<circle cx="370.0" cy="380.0" r="9.0" stroke="#000000" stroke-width="4.0" fill="none" />
<text text-anchor="middle" x="340.0" y="382.0" fill="#000000" style="font-size:24px">1</text>
<circle cx="320.0" cy="380.0" r="2.0" stroke="#0000b2" stroke-width="4.0" fill="#0000b2" />
<circle cx="380.0" cy="380.0" r="2.0" stroke="#b20000" stroke-width="4.0" fill="#b20000" />
</g>
<g>
<path d="M 500,380 L 486,372 L 486,388 Z" stroke="#000000" stroke-width="4.0" fill="none"/>
<text text-anchor="end" x="481.0" y="386.75" fill="#808080" style="font-size:18px">C<tspan style="font-size:80%;baseline-shift:sub;">i</tspan></text>
<circle cx="500.0" cy="380.0" r="2.0" stroke="#0000b2" stroke-width="4.0" fill="#0000b2" />
</g>
<g>
<path d="M 280,340 L 266,332 L 266,348 Z" stroke="#000000" stroke-width="4.0" fill="none"/>
<text text-anchor="end" x="261.0" y="346.75" fill="#808080" style="font-size:18px">B</text>
<circle cx="280.0" cy="340.0" r="2.0" stroke="#0000b2" stroke-width="4.0" fill="#0000b2" />
</g>
<g>
<text text-anchor="end" x="178.0" y="657.0" fill="#808080" style="font-size:12px">0-2</text>
<text text-anchor="start" x="202.0" y="657.0" fill="#808080" style="font-size:12px">0</text>
<path d="M 188,658 L 192,658 L 192,662 L 188,662 Z" stroke="#000000" stroke-width="4.0" fill="#000000" fill-opacity="1.0"/>
<circle cx="180.0" cy="660.0" r="2.0" stroke="#0000b2" stroke-width="4.0" fill="#0000b2" />
<circle cx="200.0" cy="660.0" r="2.0" stroke="#b20000" stroke-width="4.0" fill="#b20000" />
</g>
<g>
<path d="M 220,660 L 234,668 L 234,652 Z" stroke="#000000" stroke-width="4.0" fill="none"/>
<text text-anchor="start" x="239.0" y="666.75" fill="#808080" style="font-size:18px">SUB</text>
<circle cx="220.0" cy="660.0" r="2.0" stroke="#0000b2" stroke-width="4.0" fill="#0000b2" />
</g>
<g>
<path d="M 400,420 L 386,412 L 386,428 Z" stroke="#000000" stroke-width="4.0" fill="none"/>
<text text-anchor="end" x="381.0" y="426.75" fill="#808080" style="font-size:18px">SUB</text>
<circle cx="400.0" cy="420.0" r="2.0" stroke="#0000b2" stroke-width="4.0" fill="#0000b2" />
</g>
<g>
<path d="M 521,330 L 579,330 L 579,390 L 521,390 Z" stroke="#000000" stroke-width="4.0" fill="none"/>
<text text-anchor="start" x="524.0" y="346.75" fill="#808080" style="font-size:18px">a</text>
<text text-anchor="start" x="524.0" y="366.75" fill="#808080" style="font-size:18px">b</text>
<text text-anchor="start" x="524.0" y="386.75" fill="#808080" style="font-size:18px">c<tspan style="font-size:80%;baseline-shift:sub;">i</tspan></text>
<text text-anchor="end" x="576.0" y="346.75" fill="#808080" style="font-size:18px">s</text>
<text text-anchor="end" x="576.0" y="366.75" fill="#808080" style="font-size:18px">c<tspan style="font-size:80%;baseline-shift:sub;">o</tspan></text>
<text text-anchor="middle" x="550.0" y="407.5" fill="#808080" style="font-size:18px">Add</text>
<circle cx="520.0" cy="340.0" r="2.0" stroke="#0000b2" stroke-width="4.0" fill="#0000b2" />
<circle cx="520.0" cy="360.0" r="2.0" stroke="#0000b2" stroke-width="4.0" fill="#0000b2" />
<circle cx="520.0" cy="380.0" r="2.0" stroke="#0000b2" stroke-width="4.0" fill="#0000b2" />
<circle cx="580.0" cy="340.0" r="2.0" stroke="#b20000" stroke-width="4.0" fill="#b20000" />
<circle cx="580.0" cy="360.0" r="2.0" stroke="#b20000" stroke-width="4.0" fill="#b20000" />
</g>
<g>
<path d="M 500,340 L 486,332 L 486,348 Z" stroke="#000000" stroke-width="4.0" fill="none"/>
<text text-anchor="end" x="481.0" y="346.75" fill="#808080" style="font-size:18px">A</text>
<circle cx="500.0" cy="340.0" r="2.0" stroke="#0000b2" stroke-width="4.0" fill="#0000b2" />
</g>
<g>
<path d="M 640,340 L 654,348 L 654,332 Z" stroke="#000000" stroke-width="4.0" fill="none"/>
<text text-anchor="start" x="659.0" y="346.75" fill="#808080" style="font-size:18px">Y<tspan style="font-size:80%;baseline-shift:sub;">SUM</tspan></text>
<circle cx="640.0" cy="340.0" r="2.0" stroke="#0000b2" stroke-width="4.0" fill="#0000b2" />
</g>
<g>
<path d="M 640,360 L 654,368 L 654,352 Z" stroke="#000000" stroke-width="4.0" fill="none"/>
<text text-anchor="start" x="659.0" y="366.75" fill="#808080" style="font-size:18px">C<tspan style="font-size:80%;baseline-shift:sub;">o</tspan></text>
<circle cx="640.0" cy="360.0" r="2.0" stroke="#0000b2" stroke-width="4.0" fill="#0000b2" />
</g>
<g>
<path d="M 580,940 L 566,932 L 566,948 Z" stroke="#000000" stroke-width="4.0" fill="none"/>
<text text-anchor="end" x="561.0" y="946.75" fill="#808080" style="font-size:18px">A<tspan style="font-size:80%;baseline-shift:sub;">SI</tspan></text>
<circle cx="580.0" cy="940.0" r="2.0" stroke="#0000b2" stroke-width="4.0" fill="#0000b2" />
</g>
<g>
<path d="M 580,960 L 566,952 L 566,968 Z" stroke="#000000" stroke-width="4.0" fill="none"/>
<text text-anchor="end" x="561.0" y="966.75" fill="#808080" style="font-size:18px">B<tspan style="font-size:80%;baseline-shift:sub;">SI</tspan></text>
<circle cx="580.0" cy="960.0" r="2.0" stroke="#0000b2" stroke-width="4.0" fill="#0000b2" />
</g>
<g>
<path d="M 580,980 L 566,972 L 566,988 Z" stroke="#000000" stroke-width="4.0" fill="none"/>
<text text-anchor="end" x="561.0" y="986.75" fill="#808080" style="font-size:18px">Y<tspan style="font-size:80%;baseline-shift:sub;">SI</tspan></text>
<circle cx="580.0" cy="980.0" r="2.0" stroke="#0000b2" stroke-width="4.0" fill="#0000b2" />
</g>
<g>
<path d="M 580,1000 L 566,992 L 566,1008 Z" stroke="#000000" stroke-width="4.0" fill="none"/>
<text text-anchor="end" x="561.0" y="1006.75" fill="#808080" style="font-size:18px">A<tspan style="font-size:80%;baseline-shift:sub;">SI</tspan></text>
<circle cx="580.0" cy="1000.0" r="2.0" stroke="#0000b2" stroke-width="4.0" fill="#0000b2" />
</g>
<g>
<path d="M 580,1020 L 566,1012 L 566,1028 Z" stroke="#000000" stroke-width="4.0" fill="none"/>
<text text-anchor="end" x="561.0" y="1026.75" fill="#808080" style="font-size:18px">B<tspan style="font-size:80%;baseline-shift:sub;">SI</tspan></text>
<circle cx="580.0" cy="1020.0" r="2.0" stroke="#0000b2" stroke-width="4.0" fill="#0000b2" />
</g>
<g>
<path d="M 580,1040 L 566,1032 L 566,1048 Z" stroke="#000000" stroke-width="4.0" fill="none"/>
<text text-anchor="end" x="561.0" y="1046.75" fill="#808080" style="font-size:18px">Y<tspan style="font-size:80%;baseline-shift:sub;">SI</tspan></text>
<circle cx="580.0" cy="1040.0" r="2.0" stroke="#0000b2" stroke-width="4.0" fill="#0000b2" />
</g>
<g>
<circle cx="680.0" cy="860.0" r="2.0" stroke="#b20000" stroke-width="4.0" fill="#b20000" />
</g>
<g>
<path d="M 429,725 L 459,725 L 459,755 L 429,755 Z" stroke="#000000" stroke-width="4.0" fill="none"/>
<circle cx="444.0" cy="740.0" r="9.0" stroke="#000000" stroke-width="4.0" fill="none" />
<text text-anchor="end" x="415.0" y="749.0" fill="#000000" style="font-size:24px"><tspan style="font-style:italic;">OE</tspan></text>
<circle cx="460.0" cy="740.0" r="2.0" stroke="#b20000" stroke-width="4.0" fill="#b20000" />
</g>
<g>
<path d="M 160,600 L 174,608 L 174,592 Z" stroke="#000000" stroke-width="4.0" fill="none"/>
<text text-anchor="start" x="179.0" y="606.75" fill="#808080" style="font-size:18px">D<tspan style="font-size:80%;baseline-shift:sub;">i</tspan></text>
<circle cx="160.0" cy="600.0" r="2.0" stroke="#0000b2" stroke-width="4.0" fill="#0000b2" />
</g>
<g>
</g>
<g>
</g>
<g>
</g>
<g>
<path d="M 500,500 L 486,492 L 486,508 Z" stroke="#000000" stroke-width="4.0" fill="none"/>
<text text-anchor="end" x="481.0" y="506.75" fill="#808080" style="font-size:18px">B</text>
<circle cx="500.0" cy="500.0" r="2.0" stroke="#0000b2" stroke-width="4.0" fill="#0000b2" />
</g>
<g>
<path d="M 280,600 L 266,592 L 266,608 Z" stroke="#000000" stroke-width="4.0" fill="none"/>
<text text-anchor="end" x="261.0" y="606.75" fill="#808080" style="font-size:18px">B</text>
<circle cx="280.0" cy="600.0" r="2.0" stroke="#0000b2" stroke-width="4.0" fill="#0000b2" />
</g>
<g>
<text text-anchor="end" x="158.0" y="397.0" fill="#808080" style="font-size:12px">0-7</text>
<text text-anchor="start" x="182.0" y="397.0" fill="#808080" style="font-size:12px">7</text>
<path d="M 168,398 L 172,398 L 172,402 L 168,402 Z" stroke="#000000" stroke-width="4.0" fill="#000000" fill-opacity="1.0"/>
<circle cx="160.0" cy="400.0" r="2.0" stroke="#0000b2" stroke-width="4.0" fill="#0000b2" />
<circle cx="180.0" cy="400.0" r="2.0" stroke="#b20000" stroke-width="4.0" fill="#b20000" />
</g>
<g>
<path d="M 200,400 L 214,408 L 214,392 Z" stroke="#000000" stroke-width="4.0" fill="none"/>
<text text-anchor="start" x="219.0" y="406.75" fill="#808080" style="font-size:18px">A<tspan style="font-size:80%;baseline-shift:sub;">SI</tspan></text>
<circle cx="200.0" cy="400.0" r="2.0" stroke="#0000b2" stroke-width="4.0" fill="#0000b2" />
</g>
<g>
<text text-anchor="end" x="598.0" y="317.0" fill="#808080" style="font-size:12px">0-7</text>
<text text-anchor="start" x="622.0" y="317.0" fill="#808080" style="font-size:12px">7</text>
<path d="M 608,318 L 612,318 L 612,322 L 608,322 Z" stroke="#000000" stroke-width="4.0" fill="#000000" fill-opacity="1.0"/>
<circle cx="600.0" cy="320.0" r="2.0" stroke="#0000b2" stroke-width="4.0" fill="#0000b2" />
<circle cx="620.0" cy="320.0" r="2.0" stroke="#b20000" stroke-width="4.0" fill="#b20000" />
</g>
<g>
<path d="M 640,320 L 654,328 L 654,312 Z" stroke="#000000" stroke-width="4.0" fill="none"/>
<text text-anchor="start" x="659.0" y="326.75" fill="#808080" style="font-size:18px">Y<tspan style="font-size:80%;baseline-shift:sub;">SI</tspan></text>
<circle cx="640.0" cy="320.0" r="2.0" stroke="#0000b2" stroke-width="4.0" fill="#0000b2" />
</g>
<g>
<text text-anchor="end" x="457.0" y="342.0" fill="#808080" style="font-size:12px" transform="rotate(-90,457.0,342.0)" >0-7</text>
<text text-anchor="start" x="457.0" y="318.0" fill="#808080" style="font-size:12px" transform="rotate(-90,457.0,318.0)" >7</text>
<path d="M 458,332 L 458,328 L 462,328 L 462,332 Z" stroke="#000000" stroke-width="4.0" fill="#000000" fill-opacity="1.0"/>
<circle cx="460.0" cy="340.0" r="2.0" stroke="#0000b2" stroke-width="4.0" fill="#0000b2" />
<circle cx="460.0" cy="320.0" r="2.0" stroke="#b20000" stroke-width="4.0" fill="#b20000" />
</g>
<g>
<path d="M 480,300 L 494,308 L 494,292 Z" stroke="#000000" stroke-width="4.0" fill="none"/>
<text text-anchor="start" x="499.0" y="306.75" fill="#808080" style="font-size:18px">B<tspan style="font-size:80%;baseline-shift:sub;">SI</tspan></text>
<circle cx="480.0" cy="300.0" r="2.0" stroke="#0000b2" stroke-width="4.0" fill="#0000b2" />
</g>
</g>
</svg>