<?xml version="1.0" encoding="UTF-8" standalone="no"?>
<!-- Created with Digital by H.Neemann -->
<!-- created: Thu Jan 16 20:14:23 CET 2025 -->

<svg
   xmlns:svg="http://www.w3.org/2000/svg"
   xmlns="http://www.w3.org/2000/svg"
   width="151.05mm"
   height="49.65mm"
   viewBox="443 206 1007 331">
<g stroke-linecap="square">
<path d="M 1010,380 L 1030,380" stroke="#000000" stroke-width="6.0" fill="none"/>
<path d="M 880,320 L 900,320" stroke="#0000b2" stroke-width="4.0" fill="none"/>
<path d="M 1020,320 L 1040,320" stroke="#0000b2" stroke-width="4.0" fill="none"/>
<path d="M 1100,320 L 1240,320 L 1240,260 L 1260,260" stroke="#0000b2" stroke-width="4.0" fill="none"/>
<path d="M 1240,480 L 1260,480" stroke="#0000b2" stroke-width="4.0" fill="none"/>
<path d="M 1100,420 L 1140,420" stroke="#0000b2" stroke-width="4.0" fill="none"/>
<path d="M 1020,260 L 1040,260" stroke="#0000b2" stroke-width="4.0" fill="none"/>
<path d="M 880,260 L 900,260" stroke="#0000b2" stroke-width="4.0" fill="none"/>
<path d="M 680,260 L 760,260" stroke="#0000b2" stroke-width="4.0" fill="none"/>
<path d="M 880,360 L 900,360" stroke="#0000b2" stroke-width="4.0" fill="none"/>
<path d="M 1020,380 L 1020,360 L 1040,360" stroke="#0000b2" stroke-width="4.0" fill="none"/>
<path d="M 1240,360 L 1280,360 L 1280,260" stroke="#0000b2" stroke-width="4.0" fill="none"/>
<path d="M 1120,460 L 1120,520 L 1360,520" stroke="#0000b2" stroke-width="4.0" fill="none"/>
<path d="M 1100,460 L 1120,460 L 1140,460" stroke="#0000b2" stroke-width="4.0" fill="none"/>
<path d="M 1300,460 L 1340,460 L 1340,280 L 1360,280" stroke="#0000b2" stroke-width="4.0" fill="none"/>
<path d="M 540,460 L 560,460" stroke="#0000b2" stroke-width="4.0" fill="none"/>
<path d="M 940,240 L 1040,240" stroke="#0000b2" stroke-width="4.0" fill="none"/>
<path d="M 1100,240 L 1120,240" stroke="#0000b2" stroke-width="4.0" fill="none"/>
<path d="M 1300,240 L 1360,240" stroke="#0000b2" stroke-width="4.0" fill="none"/>
<path d="M 740,240 L 760,240" stroke="#0000b2" stroke-width="4.0" fill="none"/>
<path d="M 480,240 L 500,240" stroke="#0000b2" stroke-width="4.0" fill="none"/>
<path d="M 560,240 L 620,240" stroke="#0000b2" stroke-width="4.0" fill="none"/>
<path d="M 820,240 L 840,240 L 840,280 L 920,280 L 920,260" stroke="#0000b2" stroke-width="4.0" fill="none"/>
<path d="M 540,400 L 560,400" stroke="#0000b2" stroke-width="4.0" fill="none"/>
<path d="M 540,340 L 560,340" stroke="#0000b2" stroke-width="4.0" fill="none"/>
<path d="M 940,340 L 1040,340" stroke="#0000b2" stroke-width="4.0" fill="none"/>
<path d="M 1200,440 L 1260,440" stroke="#0000b2" stroke-width="4.0" fill="none"/>
<path d="M 600,280 L 620,280" stroke="#0000b2" stroke-width="4.0" fill="none"/>
<path d="M 900,380 L 920,380 L 920,360" stroke="#0000b2" stroke-width="4.0" fill="none"/>
<path d="M 560,220 L 760,220" stroke="#0000b2" stroke-width="4.0" fill="none"/>
<path d="M 480,220 L 500,220" stroke="#0000b2" stroke-width="4.0" fill="none"/>
<path d="M 880,220 L 900,220" stroke="#0000b2" stroke-width="4.0" fill="none"/>
<path d="M 1020,220 L 1040,220" stroke="#0000b2" stroke-width="4.0" fill="none"/>
<path d="M 1100,220 L 1260,220" stroke="#0000b2" stroke-width="4.0" fill="none"/>
<path d="M 1280,360 L 1280,440" stroke="#0000b2" stroke-width="4.0" fill="none"/>
<g>
<circle cx="1280.0" cy="360.0" r="4.0" stroke="#0000b2" stroke-width="4.0" fill="#0000b2" />
<circle cx="1120.0" cy="460.0" r="4.0" stroke="#0000b2" stroke-width="4.0" fill="#0000b2" />
</g>
<g>
<path d="M 1041,210 L 1099,210 L 1099,270 L 1041,270 Z" stroke="#000000" stroke-width="4.0" fill="none"/>
<text text-anchor="start" x="1044.0" y="226.75" fill="#808080" style="font-size:18px">a</text>
<text text-anchor="start" x="1044.0" y="246.75" fill="#808080" style="font-size:18px">b</text>
<text text-anchor="start" x="1044.0" y="266.75" fill="#808080" style="font-size:18px">c<tspan style="font-size:80%;baseline-shift:sub;">i</tspan></text>
<text text-anchor="end" x="1096.0" y="226.75" fill="#808080" style="font-size:18px">s</text>
<text text-anchor="end" x="1096.0" y="246.75" fill="#808080" style="font-size:18px">c<tspan style="font-size:80%;baseline-shift:sub;">o</tspan></text>
<text text-anchor="middle" x="1070.0" y="287.5" fill="#808080" style="font-size:18px">Add</text>
<circle cx="1040.0" cy="220.0" r="2.0" stroke="#0000b2" stroke-width="4.0" fill="#0000b2" />
<circle cx="1040.0" cy="240.0" r="2.0" stroke="#0000b2" stroke-width="4.0" fill="#0000b2" />
<circle cx="1040.0" cy="260.0" r="2.0" stroke="#0000b2" stroke-width="4.0" fill="#0000b2" />
<circle cx="1100.0" cy="220.0" r="2.0" stroke="#b20000" stroke-width="4.0" fill="#b20000" />
<circle cx="1100.0" cy="240.0" r="2.0" stroke="#b20000" stroke-width="4.0" fill="#b20000" />
</g>
<g>
<path d="M 501,210 L 559,210 L 559,270 L 501,270 Z" stroke="#000000" stroke-width="4.0" fill="none"/>
<text text-anchor="start" x="504.0" y="226.75" fill="#808080" style="font-size:18px">a</text>
<text text-anchor="start" x="504.0" y="246.75" fill="#808080" style="font-size:18px">b</text>
<text text-anchor="end" x="556.0" y="226.75" fill="#808080" style="font-size:18px">&gt;</text>
<text text-anchor="end" x="556.0" y="246.75" fill="#808080" style="font-size:18px">=</text>
<text text-anchor="end" x="556.0" y="266.75" fill="#808080" style="font-size:18px">&lt;</text>
<circle cx="500.0" cy="220.0" r="2.0" stroke="#0000b2" stroke-width="4.0" fill="#0000b2" />
<circle cx="500.0" cy="240.0" r="2.0" stroke="#0000b2" stroke-width="4.0" fill="#0000b2" />
<circle cx="560.0" cy="220.0" r="2.0" stroke="#b20000" stroke-width="4.0" fill="#b20000" />
<circle cx="560.0" cy="240.0" r="2.0" stroke="#b20000" stroke-width="4.0" fill="#b20000" />
<circle cx="560.0" cy="260.0" r="2.0" stroke="#b20000" stroke-width="4.0" fill="#b20000" />
</g>
<g>
<text text-anchor="end" x="477.0" y="249.0" fill="#000000" style="font-size:24px">9</text>
<circle cx="480.0" cy="240.0" r="2.0" stroke="#b20000" stroke-width="4.0" fill="#b20000" />
</g>
<g>
<path d="M 901,216 L 939,225 L 939,255 L 901,264 Z" stroke="#000000" stroke-width="4.0" fill="none"/>
<text text-anchor="start" x="903.0" y="235.5" fill="#808080" style="font-size:18px">0</text>
<circle cx="920.0" cy="260.0" r="2.0" stroke="#0000b2" stroke-width="4.0" fill="#0000b2" />
<circle cx="900.0" cy="220.0" r="2.0" stroke="#0000b2" stroke-width="4.0" fill="#0000b2" />
<circle cx="900.0" cy="260.0" r="2.0" stroke="#0000b2" stroke-width="4.0" fill="#0000b2" />
<circle cx="940.0" cy="240.0" r="2.0" stroke="#b20000" stroke-width="4.0" fill="#b20000" />
</g>
<g>
<text text-anchor="end" x="877.0" y="229.0" fill="#000000" style="font-size:24px">0</text>
<circle cx="880.0" cy="220.0" r="2.0" stroke="#b20000" stroke-width="4.0" fill="#b20000" />
</g>
<g>
<text text-anchor="end" x="877.0" y="269.0" fill="#000000" style="font-size:24px">6</text>
<circle cx="880.0" cy="260.0" r="2.0" stroke="#b20000" stroke-width="4.0" fill="#b20000" />
</g>
<g>
<path d="M 761,210 L 819,210 L 819,270 L 761,270 Z" stroke="#000000" stroke-width="4.0" fill="none"/>
<text text-anchor="middle" x="790.0" y="232.0" fill="#000000" style="font-size:24px">≥1</text>
<circle cx="760.0" cy="220.0" r="2.0" stroke="#0000b2" stroke-width="4.0" fill="#0000b2" />
<circle cx="760.0" cy="240.0" r="2.0" stroke="#0000b2" stroke-width="4.0" fill="#0000b2" />
<circle cx="760.0" cy="260.0" r="2.0" stroke="#0000b2" stroke-width="4.0" fill="#0000b2" />
<circle cx="820.0" cy="240.0" r="2.0" stroke="#b20000" stroke-width="4.0" fill="#b20000" />
</g>
<g>
<path d="M 509,325 L 539,325 L 539,355 L 509,355 Z" stroke="#000000" stroke-width="4.0" fill="none"/>
<circle cx="524.0" cy="340.0" r="9.0" stroke="#000000" stroke-width="4.0" fill="none" />
<text text-anchor="end" x="495.0" y="349.0" fill="#000000" style="font-size:24px"><tspan style="font-style:italic;">S<tspan style="font-size:80%;baseline-shift:sub;">i</tspan></tspan></text>
<circle cx="540.0" cy="340.0" r="2.0" stroke="#b20000" stroke-width="4.0" fill="#b20000" />
</g>
<g>
<path d="M 509,385 L 539,385 L 539,415 L 509,415 Z" stroke="#000000" stroke-width="4.0" fill="none"/>
<circle cx="524.0" cy="400.0" r="9.0" stroke="#000000" stroke-width="4.0" fill="none" />
<text text-anchor="end" x="495.0" y="409.0" fill="#000000" style="font-size:24px"><tspan style="font-style:italic;">C<tspan style="font-size:80%;baseline-shift:sub;">i</tspan></tspan></text>
<circle cx="540.0" cy="400.0" r="2.0" stroke="#b20000" stroke-width="4.0" fill="#b20000" />
</g>
<g>
<path d="M 509,445 L 539,445 L 539,475 L 509,475 Z" stroke="#000000" stroke-width="4.0" fill="none"/>
<circle cx="524.0" cy="460.0" r="9.0" stroke="#000000" stroke-width="4.0" fill="none" />
<text text-anchor="end" x="495.0" y="469.0" fill="#000000" style="font-size:24px"><tspan style="font-style:italic;">C<tspan style="font-size:80%;baseline-shift:sub;">di</tspan></tspan></text>
<circle cx="540.0" cy="460.0" r="2.0" stroke="#b20000" stroke-width="4.0" fill="#b20000" />
</g>
<g>
<path d="M 901,316 L 939,325 L 939,355 L 901,364 Z" stroke="#000000" stroke-width="4.0" fill="none"/>
<text text-anchor="start" x="903.0" y="335.5" fill="#808080" style="font-size:18px">0</text>
<circle cx="920.0" cy="360.0" r="2.0" stroke="#0000b2" stroke-width="4.0" fill="#0000b2" />
<circle cx="900.0" cy="320.0" r="2.0" stroke="#0000b2" stroke-width="4.0" fill="#0000b2" />
<circle cx="900.0" cy="360.0" r="2.0" stroke="#0000b2" stroke-width="4.0" fill="#0000b2" />
<circle cx="940.0" cy="340.0" r="2.0" stroke="#b20000" stroke-width="4.0" fill="#b20000" />
</g>
<g>
<text text-anchor="end" x="877.0" y="329.0" fill="#000000" style="font-size:24px">6</text>
<circle cx="880.0" cy="320.0" r="2.0" stroke="#b20000" stroke-width="4.0" fill="#b20000" />
</g>
<g>
<text text-anchor="end" x="877.0" y="369.0" fill="#000000" style="font-size:24px">0</text>
<circle cx="880.0" cy="360.0" r="2.0" stroke="#b20000" stroke-width="4.0" fill="#b20000" />
</g>
<g>
<circle cx="1020.0" cy="380.0" r="2.0" stroke="#b20000" stroke-width="4.0" fill="#b20000" />
</g>
<g>
<circle cx="1376.0" cy="240.0" r="9.0" stroke="#000000" stroke-width="4.0" fill="none" />
<circle cx="1376.0" cy="240.0" r="15.0" stroke="#000000" stroke-width="4.0" fill="none" />
<text text-anchor="start" x="1405.0" y="249.0" fill="#000000" style="font-size:24px"><tspan style="font-style:italic;">D<tspan style="font-size:80%;baseline-shift:sub;">o</tspan></tspan></text>
<circle cx="1360.0" cy="240.0" r="2.0" stroke="#0000b2" stroke-width="4.0" fill="#0000b2" />
</g>
<g>
<circle cx="1376.0" cy="280.0" r="9.0" stroke="#000000" stroke-width="4.0" fill="none" />
<circle cx="1376.0" cy="280.0" r="15.0" stroke="#000000" stroke-width="4.0" fill="none" />
<text text-anchor="start" x="1405.0" y="289.0" fill="#000000" style="font-size:24px"><tspan style="font-style:italic;">C<tspan style="font-size:80%;baseline-shift:sub;">o</tspan></tspan></text>
<circle cx="1360.0" cy="280.0" r="2.0" stroke="#0000b2" stroke-width="4.0" fill="#0000b2" />
</g>
<g>
<path d="M 1261,216 L 1299,225 L 1299,255 L 1261,264 Z" stroke="#000000" stroke-width="4.0" fill="none"/>
<text text-anchor="start" x="1263.0" y="235.5" fill="#808080" style="font-size:18px">0</text>
<circle cx="1280.0" cy="260.0" r="2.0" stroke="#0000b2" stroke-width="4.0" fill="#0000b2" />
<circle cx="1260.0" cy="220.0" r="2.0" stroke="#0000b2" stroke-width="4.0" fill="#0000b2" />
<circle cx="1260.0" cy="260.0" r="2.0" stroke="#0000b2" stroke-width="4.0" fill="#0000b2" />
<circle cx="1300.0" cy="240.0" r="2.0" stroke="#b20000" stroke-width="4.0" fill="#b20000" />
</g>
<g>
<path d="M 1209,345 L 1239,345 L 1239,375 L 1209,375 Z" stroke="#000000" stroke-width="4.0" fill="none"/>
<circle cx="1224.0" cy="360.0" r="9.0" stroke="#000000" stroke-width="4.0" fill="none" />
<text text-anchor="end" x="1195.0" y="369.0" fill="#000000" style="font-size:24px"><tspan style="font-style:italic;">SUB</tspan></text>
<circle cx="1240.0" cy="360.0" r="2.0" stroke="#b20000" stroke-width="4.0" fill="#b20000" />
</g>
<g>
<path d="M 1041,310 L 1099,310 L 1099,370 L 1041,370 Z" stroke="#000000" stroke-width="4.0" fill="none"/>
<text text-anchor="start" x="1044.0" y="326.75" fill="#808080" style="font-size:18px">a</text>
<text text-anchor="start" x="1044.0" y="346.75" fill="#808080" style="font-size:18px">b</text>
<text text-anchor="start" x="1044.0" y="366.75" fill="#808080" style="font-size:18px">c<tspan style="font-size:80%;baseline-shift:sub;">i</tspan></text>
<text text-anchor="end" x="1096.0" y="326.75" fill="#808080" style="font-size:18px">s</text>
<text text-anchor="end" x="1096.0" y="346.75" fill="#808080" style="font-size:18px">c<tspan style="font-size:80%;baseline-shift:sub;">o</tspan></text>
<text text-anchor="middle" x="1070.0" y="387.5" fill="#808080" style="font-size:18px">Sub</text>
<circle cx="1040.0" cy="320.0" r="2.0" stroke="#0000b2" stroke-width="4.0" fill="#0000b2" />
<circle cx="1040.0" cy="340.0" r="2.0" stroke="#0000b2" stroke-width="4.0" fill="#0000b2" />
<circle cx="1040.0" cy="360.0" r="2.0" stroke="#0000b2" stroke-width="4.0" fill="#0000b2" />
<circle cx="1100.0" cy="320.0" r="2.0" stroke="#b20000" stroke-width="4.0" fill="#b20000" />
<circle cx="1100.0" cy="340.0" r="2.0" stroke="#b20000" stroke-width="4.0" fill="#b20000" />
</g>
<g>
<path d="M 560,340 L 574,348 L 574,332 Z" stroke="#000000" stroke-width="4.0" fill="none"/>
<text text-anchor="start" x="579.0" y="346.75" fill="#808080" style="font-size:18px">S<tspan style="font-size:80%;baseline-shift:sub;">i</tspan></text>
<circle cx="560.0" cy="340.0" r="2.0" stroke="#0000b2" stroke-width="4.0" fill="#0000b2" />
</g>
<g>
<path d="M 560,400 L 574,408 L 574,392 Z" stroke="#000000" stroke-width="4.0" fill="none"/>
<text text-anchor="start" x="579.0" y="406.75" fill="#808080" style="font-size:18px">C<tspan style="font-size:80%;baseline-shift:sub;">i</tspan></text>
<circle cx="560.0" cy="400.0" r="2.0" stroke="#0000b2" stroke-width="4.0" fill="#0000b2" />
</g>
<g>
<path d="M 740,240 L 726,232 L 726,248 Z" stroke="#000000" stroke-width="4.0" fill="none"/>
<text text-anchor="end" x="721.0" y="246.75" fill="#808080" style="font-size:18px">C<tspan style="font-size:80%;baseline-shift:sub;">i</tspan></text>
<circle cx="740.0" cy="240.0" r="2.0" stroke="#0000b2" stroke-width="4.0" fill="#0000b2" />
</g>
<g>
<path d="M 480,220 L 466,212 L 466,228 Z" stroke="#000000" stroke-width="4.0" fill="none"/>
<text text-anchor="end" x="461.0" y="226.75" fill="#808080" style="font-size:18px">S<tspan style="font-size:80%;baseline-shift:sub;">i</tspan></text>
<circle cx="480.0" cy="220.0" r="2.0" stroke="#0000b2" stroke-width="4.0" fill="#0000b2" />
</g>
<g>
<path d="M 1020,220 L 1006,212 L 1006,228 Z" stroke="#000000" stroke-width="4.0" fill="none"/>
<text text-anchor="end" x="1001.0" y="226.75" fill="#808080" style="font-size:18px">S<tspan style="font-size:80%;baseline-shift:sub;">i</tspan></text>
<circle cx="1020.0" cy="220.0" r="2.0" stroke="#0000b2" stroke-width="4.0" fill="#0000b2" />
</g>
<g>
<path d="M 1020,320 L 1006,312 L 1006,328 Z" stroke="#000000" stroke-width="4.0" fill="none"/>
<text text-anchor="end" x="1001.0" y="326.75" fill="#808080" style="font-size:18px">S<tspan style="font-size:80%;baseline-shift:sub;">i</tspan></text>
<circle cx="1020.0" cy="320.0" r="2.0" stroke="#0000b2" stroke-width="4.0" fill="#0000b2" />
</g>
<g>
<path d="M 900,380 L 886,372 L 886,388 Z" stroke="#000000" stroke-width="4.0" fill="none"/>
<text text-anchor="end" x="881.0" y="386.75" fill="#808080" style="font-size:18px">C<tspan style="font-size:80%;baseline-shift:sub;">i</tspan></text>
<circle cx="900.0" cy="380.0" r="2.0" stroke="#0000b2" stroke-width="4.0" fill="#0000b2" />
</g>
<g>
<circle cx="1376.0" cy="520.0" r="9.0" stroke="#000000" stroke-width="4.0" fill="none" />
<circle cx="1376.0" cy="520.0" r="15.0" stroke="#000000" stroke-width="4.0" fill="none" />
<text text-anchor="start" x="1405.0" y="529.0" fill="#000000" style="font-size:24px"><tspan style="font-style:italic;">C<tspan style="font-size:80%;baseline-shift:sub;">do</tspan></tspan></text>
<circle cx="1360.0" cy="520.0" r="2.0" stroke="#0000b2" stroke-width="4.0" fill="#0000b2" />
</g>
<g>
<path d="M 1120,240 L 1134,248 L 1134,232 Z" stroke="#000000" stroke-width="4.0" fill="none"/>
<text text-anchor="start" x="1139.0" y="246.75" fill="#808080" style="font-size:18px">C<tspan style="font-size:80%;baseline-shift:sub;">do</tspan></text>
<circle cx="1120.0" cy="240.0" r="2.0" stroke="#0000b2" stroke-width="4.0" fill="#0000b2" />
</g>
<g>
<path d="M 1141,410 L 1199,410 L 1199,470 L 1141,470 Z" stroke="#000000" stroke-width="4.0" fill="none"/>
<text text-anchor="middle" x="1170.0" y="432.0" fill="#000000" style="font-size:24px">≥1</text>
<circle cx="1140.0" cy="420.0" r="2.0" stroke="#0000b2" stroke-width="4.0" fill="#0000b2" />
<circle cx="1140.0" cy="460.0" r="2.0" stroke="#0000b2" stroke-width="4.0" fill="#0000b2" />
<circle cx="1200.0" cy="440.0" r="2.0" stroke="#b20000" stroke-width="4.0" fill="#b20000" />
</g>
<g>
<path d="M 560,460 L 574,468 L 574,452 Z" stroke="#000000" stroke-width="4.0" fill="none"/>
<text text-anchor="start" x="579.0" y="466.75" fill="#808080" style="font-size:18px">C<tspan style="font-size:80%;baseline-shift:sub;">di</tspan></text>
<circle cx="560.0" cy="460.0" r="2.0" stroke="#0000b2" stroke-width="4.0" fill="#0000b2" />
</g>
<g>
<path d="M 1020,260 L 1006,252 L 1006,268 Z" stroke="#000000" stroke-width="4.0" fill="none"/>
<text text-anchor="end" x="1001.0" y="266.75" fill="#808080" style="font-size:18px">C<tspan style="font-size:80%;baseline-shift:sub;">di</tspan></text>
<circle cx="1020.0" cy="260.0" r="2.0" stroke="#0000b2" stroke-width="4.0" fill="#0000b2" />
</g>
<g>
<path d="M 1100,460 L 1086,452 L 1086,468 Z" stroke="#000000" stroke-width="4.0" fill="none"/>
<text text-anchor="end" x="1081.0" y="466.75" fill="#808080" style="font-size:18px">C<tspan style="font-size:80%;baseline-shift:sub;">do</tspan></text>
<circle cx="1100.0" cy="460.0" r="2.0" stroke="#0000b2" stroke-width="4.0" fill="#0000b2" />
</g>
<g>
<path d="M 1100,420 L 1086,412 L 1086,428 Z" stroke="#000000" stroke-width="4.0" fill="none"/>
<text text-anchor="end" x="1081.0" y="426.75" fill="#808080" style="font-size:18px">C<tspan style="font-size:80%;baseline-shift:sub;">i</tspan></text>
<circle cx="1100.0" cy="420.0" r="2.0" stroke="#0000b2" stroke-width="4.0" fill="#0000b2" />
</g>
<g>
<path d="M 1261,436 L 1299,445 L 1299,475 L 1261,484 Z" stroke="#000000" stroke-width="4.0" fill="none"/>
<text text-anchor="start" x="1263.0" y="455.5" fill="#808080" style="font-size:18px">0</text>
<circle cx="1280.0" cy="440.0" r="2.0" stroke="#0000b2" stroke-width="4.0" fill="#0000b2" />
<circle cx="1260.0" cy="440.0" r="2.0" stroke="#0000b2" stroke-width="4.0" fill="#0000b2" />
<circle cx="1260.0" cy="480.0" r="2.0" stroke="#0000b2" stroke-width="4.0" fill="#0000b2" />
<circle cx="1300.0" cy="460.0" r="2.0" stroke="#b20000" stroke-width="4.0" fill="#b20000" />
</g>
<g>
<path d="M 1240,480 L 1226,472 L 1226,488 Z" stroke="#000000" stroke-width="4.0" fill="none"/>
<text text-anchor="end" x="1221.0" y="486.75" fill="#808080" style="font-size:18px">C<tspan style="font-size:80%;baseline-shift:sub;">i</tspan></text>
<circle cx="1240.0" cy="480.0" r="2.0" stroke="#0000b2" stroke-width="4.0" fill="#0000b2" />
</g>
<g>
<path d="M 600,280 L 586,272 L 586,288 Z" stroke="#000000" stroke-width="4.0" fill="none"/>
<text text-anchor="end" x="581.0" y="286.75" fill="#808080" style="font-size:18px">C<tspan style="font-size:80%;baseline-shift:sub;">di</tspan></text>
<circle cx="600.0" cy="280.0" r="2.0" stroke="#0000b2" stroke-width="4.0" fill="#0000b2" />
</g>
<g>
<path d="M 621,230 L 679,230 L 679,290 L 621,290 Z" stroke="#000000" stroke-width="4.0" fill="none"/>
<text text-anchor="middle" x="650.0" y="252.0" fill="#000000" style="font-size:24px">&amp;</text>
<circle cx="620.0" cy="240.0" r="2.0" stroke="#0000b2" stroke-width="4.0" fill="#0000b2" />
<circle cx="620.0" cy="280.0" r="2.0" stroke="#0000b2" stroke-width="4.0" fill="#0000b2" />
<circle cx="680.0" cy="260.0" r="2.0" stroke="#b20000" stroke-width="4.0" fill="#b20000" />
</g>
</g>
</svg>