<?xml version="1.0" encoding="UTF-8" standalone="no"?>
<!-- Created with Digital by H.Neemann -->
<!-- created: Thu Jan 16 20:28:08 CET 2025 -->

<svg
   xmlns:svg="http://www.w3.org/2000/svg"
   xmlns="http://www.w3.org/2000/svg"
   width="178.05mm"
   height="76.65mm"
   viewBox="164 162 1187 511">
<g stroke-linecap="square">
<path d="M 500,320 L 520,320" stroke="#0000b2" stroke-width="4.0" fill="none"/>
<path d="M 840,320 L 880,320" stroke="#0000b2" stroke-width="4.0" fill="none"/>
<path d="M 840,640 L 880,640" stroke="#0000b2" stroke-width="4.0" fill="none"/>
<path d="M 1220,480 L 1240,480" stroke="#0000b2" stroke-width="4.0" fill="none"/>
<path d="M 1040,480 L 1060,480" stroke="#0000b2" stroke-width="4.0" fill="none"/>
<path d="M 840,480 L 880,480" stroke="#0000b2" stroke-width="4.0" fill="none"/>
<path d="M 560,480 L 580,480 L 580,300 L 600,300" stroke="#0000b2" stroke-width="4.0" fill="none"/>
<path d="M 500,480 L 520,480" stroke="#0000b2" stroke-width="4.0" fill="none"/>
<path d="M 620,260 L 660,260 L 680,260" stroke="#0000b2" stroke-width="4.0" fill="none"/>
<path d="M 1220,580 L 1240,580" stroke="#0000b2" stroke-width="4.0" fill="none"/>
<path d="M 1040,580 L 1060,580" stroke="#0000b2" stroke-width="4.0" fill="none"/>
<path d="M 840,580 L 880,580" stroke="#0000b2" stroke-width="4.0" fill="none"/>
<path d="M 1220,420 L 1240,420" stroke="#0000b2" stroke-width="4.0" fill="none"/>
<path d="M 1040,420 L 1060,420" stroke="#0000b2" stroke-width="4.0" fill="none"/>
<path d="M 840,420 L 880,420" stroke="#0000b2" stroke-width="4.0" fill="none"/>
<path d="M 500,420 L 520,420" stroke="#0000b2" stroke-width="4.0" fill="none"/>
<path d="M 500,520 L 520,520" stroke="#0000b2" stroke-width="4.0" fill="none"/>
<path d="M 1220,520 L 1240,520" stroke="#0000b2" stroke-width="4.0" fill="none"/>
<path d="M 1040,520 L 1060,520" stroke="#0000b2" stroke-width="4.0" fill="none"/>
<path d="M 840,520 L 880,520" stroke="#0000b2" stroke-width="4.0" fill="none"/>
<path d="M 280,180 L 280,200 L 300,200" stroke="#0000b2" stroke-width="4.0" fill="none"/>
<path d="M 360,200 L 380,200 L 380,260 L 600,260" stroke="#0000b2" stroke-width="4.0" fill="none"/>
<path d="M 280,360 L 300,360" stroke="#0000b2" stroke-width="4.0" fill="none"/>
<path d="M 1220,360 L 1240,360" stroke="#0000b2" stroke-width="4.0" fill="none"/>
<path d="M 1040,360 L 1060,360" stroke="#0000b2" stroke-width="4.0" fill="none"/>
<path d="M 840,360 L 880,360" stroke="#0000b2" stroke-width="4.0" fill="none"/>
<path d="M 500,360 L 520,360" stroke="#0000b2" stroke-width="4.0" fill="none"/>
<path d="M 1220,460 L 1240,460" stroke="#0000b2" stroke-width="4.0" fill="none"/>
<path d="M 1040,460 L 1060,460" stroke="#0000b2" stroke-width="4.0" fill="none"/>
<path d="M 840,460 L 880,460" stroke="#0000b2" stroke-width="4.0" fill="none"/>
<path d="M 500,460 L 520,460" stroke="#0000b2" stroke-width="4.0" fill="none"/>
<path d="M 660,280 L 660,300 L 680,300" stroke="#0000b2" stroke-width="4.0" fill="none"/>
<path d="M 840,300 L 1020,300 L 1020,320" stroke="#0000b2" stroke-width="4.0" fill="none"/>
<path d="M 500,600 L 500,620 L 520,620" stroke="#0000b2" stroke-width="4.0" fill="none"/>
<path d="M 840,620 L 880,620" stroke="#0000b2" stroke-width="4.0" fill="none"/>
<path d="M 500,400 L 520,400" stroke="#0000b2" stroke-width="4.0" fill="none"/>
<path d="M 1220,400 L 1240,400" stroke="#0000b2" stroke-width="4.0" fill="none"/>
<path d="M 1040,400 L 1060,400" stroke="#0000b2" stroke-width="4.0" fill="none"/>
<path d="M 840,400 L 880,400" stroke="#0000b2" stroke-width="4.0" fill="none"/>
<path d="M 280,240 L 300,240" stroke="#0000b2" stroke-width="4.0" fill="none"/>
<path d="M 1220,560 L 1240,560" stroke="#0000b2" stroke-width="4.0" fill="none"/>
<path d="M 1040,560 L 1060,560" stroke="#0000b2" stroke-width="4.0" fill="none"/>
<path d="M 840,560 L 880,560" stroke="#0000b2" stroke-width="4.0" fill="none"/>
<path d="M 280,340 L 300,340" stroke="#0000b2" stroke-width="4.0" fill="none"/>
<path d="M 360,340 L 380,340 L 380,280 L 600,280" stroke="#0000b2" stroke-width="4.0" fill="none"/>
<path d="M 1040,340 L 1060,340" stroke="#0000b2" stroke-width="4.0" fill="none"/>
<path d="M 1220,340 L 1240,340" stroke="#0000b2" stroke-width="4.0" fill="none"/>
<path d="M 840,340 L 880,340" stroke="#0000b2" stroke-width="4.0" fill="none"/>
<path d="M 500,340 L 520,340" stroke="#0000b2" stroke-width="4.0" fill="none"/>
<path d="M 520,660 L 540,660 L 560,660" stroke="#0000b2" stroke-width="4.0" fill="none"/>
<path d="M 1220,500 L 1240,500" stroke="#0000b2" stroke-width="4.0" fill="none"/>
<path d="M 1040,500 L 1060,500" stroke="#0000b2" stroke-width="4.0" fill="none"/>
<path d="M 840,500 L 880,500" stroke="#0000b2" stroke-width="4.0" fill="none"/>
<path d="M 500,500 L 520,500" stroke="#0000b2" stroke-width="4.0" fill="none"/>
<path d="M 1220,600 L 1240,600" stroke="#0000b2" stroke-width="4.0" fill="none"/>
<path d="M 840,600 L 880,600" stroke="#0000b2" stroke-width="4.0" fill="none"/>
<path d="M 500,580 L 500,600 L 520,600" stroke="#0000b2" stroke-width="4.0" fill="none"/>
<path d="M 740,280 L 780,280 L 820,280" stroke="#0000b2" stroke-width="4.0" fill="none"/>
<path d="M 840,280 L 1200,280 L 1200,320" stroke="#0000b2" stroke-width="4.0" fill="none"/>
<path d="M 1220,440 L 1240,440" stroke="#0000b2" stroke-width="4.0" fill="none"/>
<path d="M 1040,440 L 1060,440" stroke="#0000b2" stroke-width="4.0" fill="none"/>
<path d="M 840,440 L 880,440" stroke="#0000b2" stroke-width="4.0" fill="none"/>
<path d="M 500,440 L 520,440" stroke="#0000b2" stroke-width="4.0" fill="none"/>
<path d="M 280,220 L 300,220" stroke="#0000b2" stroke-width="4.0" fill="none"/>
<path d="M 840,540 L 880,540" stroke="#0000b2" stroke-width="4.0" fill="none"/>
<path d="M 1220,540 L 1240,540" stroke="#0000b2" stroke-width="4.0" fill="none"/>
<path d="M 1040,540 L 1060,540" stroke="#0000b2" stroke-width="4.0" fill="none"/>
<path d="M 500,540 L 520,540" stroke="#0000b2" stroke-width="4.0" fill="none"/>
<path d="M 500,380 L 520,380" stroke="#0000b2" stroke-width="4.0" fill="none"/>
<path d="M 840,380 L 880,380" stroke="#0000b2" stroke-width="4.0" fill="none"/>
<path d="M 1220,380 L 1240,380" stroke="#0000b2" stroke-width="4.0" fill="none"/>
<path d="M 1040,380 L 1060,380" stroke="#0000b2" stroke-width="4.0" fill="none"/>
<path d="M 660,200 L 660,260" stroke="#0000b2" stroke-width="4.0" fill="none"/>
<path d="M 520,580 L 500,580 L 500,560 L 520,560" stroke="#0000b2" stroke-width="4.0" fill="none"/>
<path d="M 500,620 L 500,640" stroke="#0000b2" stroke-width="4.0" fill="none"/>
<path d="M 780,240 L 780,280" stroke="#0000b2" stroke-width="4.0" fill="none"/>
<path d="M 540,640 L 540,660" stroke="#0000b2" stroke-width="4.0" fill="none"/>
<path d="M 280,174 L 280,180" stroke="#000000" stroke-width="4.0" fill="none"/>
<path d="M 600,260 L 610,260 L 620,260" stroke="#000000" stroke-width="4.0" fill="none"/>
<path d="M 600,280 L 610,280" stroke="#000000" stroke-width="4.0" fill="none"/>
<path d="M 600,300 L 610,300" stroke="#000000" stroke-width="4.0" fill="none"/>
<path d="M 660,274 L 660,280" stroke="#000000" stroke-width="4.0" fill="none"/>
<path d="M 820,280 L 830,280 L 840,280" stroke="#000000" stroke-width="4.0" fill="none"/>
<path d="M 840,300 L 830,300" stroke="#000000" stroke-width="4.0" fill="none"/>
<path d="M 840,320 L 830,320" stroke="#000000" stroke-width="4.0" fill="none"/>
<path d="M 840,340 L 830,340" stroke="#000000" stroke-width="4.0" fill="none"/>
<path d="M 840,360 L 830,360" stroke="#000000" stroke-width="4.0" fill="none"/>
<path d="M 840,380 L 830,380" stroke="#000000" stroke-width="4.0" fill="none"/>
<path d="M 840,400 L 830,400" stroke="#000000" stroke-width="4.0" fill="none"/>
<path d="M 840,420 L 830,420" stroke="#000000" stroke-width="4.0" fill="none"/>
<path d="M 840,440 L 830,440" stroke="#000000" stroke-width="4.0" fill="none"/>
<path d="M 840,460 L 830,460" stroke="#000000" stroke-width="4.0" fill="none"/>
<path d="M 840,480 L 830,480" stroke="#000000" stroke-width="4.0" fill="none"/>
<path d="M 840,500 L 830,500" stroke="#000000" stroke-width="4.0" fill="none"/>
<path d="M 840,520 L 830,520" stroke="#000000" stroke-width="4.0" fill="none"/>
<path d="M 840,540 L 830,540" stroke="#000000" stroke-width="4.0" fill="none"/>
<path d="M 840,560 L 830,560" stroke="#000000" stroke-width="4.0" fill="none"/>
<path d="M 840,580 L 830,580" stroke="#000000" stroke-width="4.0" fill="none"/>
<path d="M 840,600 L 830,600" stroke="#000000" stroke-width="4.0" fill="none"/>
<path d="M 840,620 L 830,620" stroke="#000000" stroke-width="4.0" fill="none"/>
<path d="M 840,640 L 830,640" stroke="#000000" stroke-width="4.0" fill="none"/>
<path d="M 490,640 L 510,640" stroke="#000000" stroke-width="6.0" fill="none"/>
<g>
<circle cx="660.0" cy="260.0" r="4.0" stroke="#0000b2" stroke-width="4.0" fill="#0000b2" />
<circle cx="500.0" cy="580.0" r="4.0" stroke="#0000b2" stroke-width="4.0" fill="#0000b2" />
<circle cx="500.0" cy="620.0" r="4.0" stroke="#0000b2" stroke-width="4.0" fill="#0000b2" />
<circle cx="540.0" cy="660.0" r="4.0" stroke="#0000b2" stroke-width="4.0" fill="#0000b2" />
<circle cx="500.0" cy="600.0" r="4.0" stroke="#0000b2" stroke-width="4.0" fill="#0000b2" />
<circle cx="780.0" cy="280.0" r="4.0" stroke="#0000b2" stroke-width="4.0" fill="#0000b2" />
</g>
<g>
<path d="M 280,220 L 266,212 L 266,228 Z" stroke="#000000" stroke-width="4.0" fill="none"/>
<text text-anchor="end" x="261.0" y="226.75" fill="#808080" style="font-size:18px">CLK</text>
<circle cx="280.0" cy="220.0" r="2.0" stroke="#0000b2" stroke-width="4.0" fill="#0000b2" />
</g>
<g>
<path d="M 280,360 L 266,352 L 266,368 Z" stroke="#000000" stroke-width="4.0" fill="none"/>
<text text-anchor="end" x="261.0" y="366.75" fill="#808080" style="font-size:18px">WR<tspan style="font-size:80%;baseline-shift:sub;">INST</tspan></text>
<circle cx="280.0" cy="360.0" r="2.0" stroke="#0000b2" stroke-width="4.0" fill="#0000b2" />
</g>
<g>
<path d="M 301,190 L 359,190 L 359,250 L 301,250 Z" stroke="#000000" stroke-width="4.0" fill="none"/>
<text text-anchor="middle" x="330.0" y="182.0" fill="#000000" style="font-size:24px">uSTEP</text>
<text text-anchor="start" x="304.0" y="206.75" fill="#808080" style="font-size:18px">en</text>
<path d="M 301,227 L 308,220 L 301,213" stroke="#000000" stroke-width="2.0" fill="none"/>
<text text-anchor="start" x="311.0" y="226.75" fill="#808080" style="font-size:18px">C</text>
<text text-anchor="start" x="304.0" y="246.75" fill="#808080" style="font-size:18px">clr</text>
<text text-anchor="end" x="356.0" y="206.75" fill="#808080" style="font-size:18px">out</text>
<text text-anchor="end" x="356.0" y="226.75" fill="#808080" style="font-size:18px">ovf</text>
<text text-anchor="middle" x="330.0" y="267.5" fill="#808080" style="font-size:18px">Zähler</text>
<circle cx="300.0" cy="200.0" r="2.0" stroke="#0000b2" stroke-width="4.0" fill="#0000b2" />
<circle cx="300.0" cy="220.0" r="2.0" stroke="#0000b2" stroke-width="4.0" fill="#0000b2" />
<circle cx="300.0" cy="240.0" r="2.0" stroke="#0000b2" stroke-width="4.0" fill="#0000b2" />
<circle cx="360.0" cy="200.0" r="2.0" stroke="#b20000" stroke-width="4.0" fill="#b20000" />
<circle cx="360.0" cy="220.0" r="2.0" stroke="#b20000" stroke-width="4.0" fill="#b20000" />
</g>
<g>
<path d="M 681,250 L 739,250 L 739,310 L 681,310 Z" stroke="#000000" stroke-width="4.0" fill="none"/>
<text text-anchor="middle" x="710.0" y="242.0" fill="#000000" style="font-size:24px">uCODE</text>
<text text-anchor="start" x="684.0" y="266.75" fill="#808080" style="font-size:18px">A</text>
<text text-anchor="start" x="684.0" y="306.75" fill="#808080" style="font-size:18px">sel</text>
<text text-anchor="end" x="736.0" y="286.75" fill="#808080" style="font-size:18px">D</text>
<text text-anchor="middle" x="710.0" y="327.5" fill="#808080" style="font-size:18px">ROM</text>
<circle cx="680.0" cy="260.0" r="2.0" stroke="#0000b2" stroke-width="4.0" fill="#0000b2" />
<circle cx="680.0" cy="300.0" r="2.0" stroke="#0000b2" stroke-width="4.0" fill="#0000b2" />
<circle cx="740.0" cy="280.0" r="2.0" stroke="#b20000" stroke-width="4.0" fill="#b20000" />
</g>
<g>
<path d="M 301,310 L 359,310 L 359,370 L 301,370 Z" stroke="#000000" stroke-width="4.0" fill="none"/>
<text text-anchor="middle" x="330.0" y="302.0" fill="#000000" style="font-size:24px">INSTR</text>
<text text-anchor="start" x="304.0" y="326.75" fill="#808080" style="font-size:18px">D</text>
<path d="M 301,347 L 308,340 L 301,333" stroke="#000000" stroke-width="2.0" fill="none"/>
<text text-anchor="start" x="311.0" y="346.75" fill="#808080" style="font-size:18px">C</text>
<text text-anchor="start" x="304.0" y="366.75" fill="#808080" style="font-size:18px">en</text>
<text text-anchor="end" x="356.0" y="346.75" fill="#808080" style="font-size:18px">Q</text>
<text text-anchor="middle" x="330.0" y="387.5" fill="#808080" style="font-size:18px">Reg</text>
<circle cx="300.0" cy="320.0" r="2.0" stroke="#0000b2" stroke-width="4.0" fill="#0000b2" />
<circle cx="300.0" cy="340.0" r="2.0" stroke="#0000b2" stroke-width="4.0" fill="#0000b2" />
<circle cx="300.0" cy="360.0" r="2.0" stroke="#0000b2" stroke-width="4.0" fill="#0000b2" />
<circle cx="360.0" cy="340.0" r="2.0" stroke="#b20000" stroke-width="4.0" fill="#b20000" />
</g>
<g>
<path d="M 280,340 L 266,332 L 266,348 Z" stroke="#000000" stroke-width="4.0" fill="none"/>
<text text-anchor="end" x="261.0" y="346.75" fill="#808080" style="font-size:18px">CLK</text>
<circle cx="280.0" cy="340.0" r="2.0" stroke="#0000b2" stroke-width="4.0" fill="#0000b2" />
</g>
<g>
<path d="M 270,184 L 280,171 L 290,184" stroke="#000000" stroke-width="4.0" fill="none"/>
<circle cx="280.0" cy="180.0" r="2.0" stroke="#b20000" stroke-width="4.0" fill="#b20000" />
</g>
<g>
<path d="M 280,240 L 266,232 L 266,248 Z" stroke="#000000" stroke-width="4.0" fill="none"/>
<text text-anchor="end" x="261.0" y="246.75" fill="#808080" style="font-size:18px">RST<tspan style="font-size:80%;baseline-shift:sub;">uSTEP</tspan></text>
<circle cx="280.0" cy="240.0" r="2.0" stroke="#0000b2" stroke-width="4.0" fill="#0000b2" />
</g>
<g>
<text text-anchor="end" x="598.0" y="257.0" fill="#808080" style="font-size:12px">0-3</text>
<text text-anchor="end" x="598.0" y="277.0" fill="#808080" style="font-size:12px">4-11</text>
<text text-anchor="end" x="598.0" y="297.0" fill="#808080" style="font-size:12px">12</text>
<text text-anchor="start" x="622.0" y="257.0" fill="#808080" style="font-size:12px">0-12</text>
<path d="M 608,258 L 612,258 L 612,302 L 608,302 Z" stroke="#000000" stroke-width="4.0" fill="#000000" fill-opacity="1.0"/>
<circle cx="600.0" cy="260.0" r="2.0" stroke="#0000b2" stroke-width="4.0" fill="#0000b2" />
<circle cx="600.0" cy="280.0" r="2.0" stroke="#0000b2" stroke-width="4.0" fill="#0000b2" />
<circle cx="600.0" cy="300.0" r="2.0" stroke="#0000b2" stroke-width="4.0" fill="#0000b2" />
<circle cx="620.0" cy="260.0" r="2.0" stroke="#b20000" stroke-width="4.0" fill="#b20000" />
</g>
<g>
<path d="M 650,284 L 660,271 L 670,284" stroke="#000000" stroke-width="4.0" fill="none"/>
<circle cx="660.0" cy="280.0" r="2.0" stroke="#b20000" stroke-width="4.0" fill="#b20000" />
</g>
<g>
<text text-anchor="start" x="382.0" y="208.0" fill="#000000" style="font-size:24px">?</text>
<circle cx="380.0" cy="200.0" r="2.0" stroke="#0000b2" stroke-width="4.0" fill="#0000b2" />
</g>
<g>
<text text-anchor="start" x="382.0" y="348.0" fill="#000000" style="font-size:24px">?</text>
<circle cx="380.0" cy="340.0" r="2.0" stroke="#0000b2" stroke-width="4.0" fill="#0000b2" />
</g>
<g>
<path d="M 1060,340 L 1074,348 L 1074,332 Z" stroke="#000000" stroke-width="4.0" fill="none"/>
<text text-anchor="start" x="1079.0" y="346.75" fill="#808080" style="font-size:18px">WR<tspan style="font-size:80%;baseline-shift:sub;">PCL</tspan></text>
<circle cx="1060.0" cy="340.0" r="2.0" stroke="#0000b2" stroke-width="4.0" fill="#0000b2" />
</g>
<g>
<path d="M 1060,380 L 1074,388 L 1074,372 Z" stroke="#000000" stroke-width="4.0" fill="none"/>
<text text-anchor="start" x="1079.0" y="386.75" fill="#808080" style="font-size:18px">WR<tspan style="font-size:80%;baseline-shift:sub;">ADDRL</tspan></text>
<circle cx="1060.0" cy="380.0" r="2.0" stroke="#0000b2" stroke-width="4.0" fill="#0000b2" />
</g>
<g>
<path d="M 1181,325 L 1219,316 L 1219,624 L 1181,615 Z" stroke="#000000" stroke-width="4.0" fill="none"/>
<text text-anchor="end" x="1217.0" y="335.5" fill="#808080" style="font-size:18px">0</text>
<circle cx="1200.0" cy="320.0" r="2.0" stroke="#0000b2" stroke-width="4.0" fill="#0000b2" />
<circle cx="1220.0" cy="320.0" r="2.0" stroke="#b20000" stroke-width="4.0" fill="#b20000" />
<circle cx="1220.0" cy="340.0" r="2.0" stroke="#b20000" stroke-width="4.0" fill="#b20000" />
<circle cx="1220.0" cy="360.0" r="2.0" stroke="#b20000" stroke-width="4.0" fill="#b20000" />
<circle cx="1220.0" cy="380.0" r="2.0" stroke="#b20000" stroke-width="4.0" fill="#b20000" />
<circle cx="1220.0" cy="400.0" r="2.0" stroke="#b20000" stroke-width="4.0" fill="#b20000" />
<circle cx="1220.0" cy="420.0" r="2.0" stroke="#b20000" stroke-width="4.0" fill="#b20000" />
<circle cx="1220.0" cy="440.0" r="2.0" stroke="#b20000" stroke-width="4.0" fill="#b20000" />
<circle cx="1220.0" cy="460.0" r="2.0" stroke="#b20000" stroke-width="4.0" fill="#b20000" />
<circle cx="1220.0" cy="480.0" r="2.0" stroke="#b20000" stroke-width="4.0" fill="#b20000" />
<circle cx="1220.0" cy="500.0" r="2.0" stroke="#b20000" stroke-width="4.0" fill="#b20000" />
<circle cx="1220.0" cy="520.0" r="2.0" stroke="#b20000" stroke-width="4.0" fill="#b20000" />
<circle cx="1220.0" cy="540.0" r="2.0" stroke="#b20000" stroke-width="4.0" fill="#b20000" />
<circle cx="1220.0" cy="560.0" r="2.0" stroke="#b20000" stroke-width="4.0" fill="#b20000" />
<circle cx="1220.0" cy="580.0" r="2.0" stroke="#b20000" stroke-width="4.0" fill="#b20000" />
<circle cx="1220.0" cy="600.0" r="2.0" stroke="#b20000" stroke-width="4.0" fill="#b20000" />
<circle cx="1220.0" cy="620.0" r="2.0" stroke="#b20000" stroke-width="4.0" fill="#b20000" />
</g>
<g>
<path d="M 1240,340 L 1254,348 L 1254,332 Z" stroke="#000000" stroke-width="4.0" fill="none"/>
<text text-anchor="start" x="1259.0" y="346.75" fill="#808080" style="font-size:18px">OE<tspan style="font-size:80%;baseline-shift:sub;">PCL</tspan></text>
<circle cx="1240.0" cy="340.0" r="2.0" stroke="#0000b2" stroke-width="4.0" fill="#0000b2" />
</g>
<g>
<path d="M 1001,325 L 1039,316 L 1039,624 L 1001,615 Z" stroke="#000000" stroke-width="4.0" fill="none"/>
<text text-anchor="end" x="1037.0" y="335.5" fill="#808080" style="font-size:18px">0</text>
<circle cx="1020.0" cy="320.0" r="2.0" stroke="#0000b2" stroke-width="4.0" fill="#0000b2" />
<circle cx="1040.0" cy="320.0" r="2.0" stroke="#b20000" stroke-width="4.0" fill="#b20000" />
<circle cx="1040.0" cy="340.0" r="2.0" stroke="#b20000" stroke-width="4.0" fill="#b20000" />
<circle cx="1040.0" cy="360.0" r="2.0" stroke="#b20000" stroke-width="4.0" fill="#b20000" />
<circle cx="1040.0" cy="380.0" r="2.0" stroke="#b20000" stroke-width="4.0" fill="#b20000" />
<circle cx="1040.0" cy="400.0" r="2.0" stroke="#b20000" stroke-width="4.0" fill="#b20000" />
<circle cx="1040.0" cy="420.0" r="2.0" stroke="#b20000" stroke-width="4.0" fill="#b20000" />
<circle cx="1040.0" cy="440.0" r="2.0" stroke="#b20000" stroke-width="4.0" fill="#b20000" />
<circle cx="1040.0" cy="460.0" r="2.0" stroke="#b20000" stroke-width="4.0" fill="#b20000" />
<circle cx="1040.0" cy="480.0" r="2.0" stroke="#b20000" stroke-width="4.0" fill="#b20000" />
<circle cx="1040.0" cy="500.0" r="2.0" stroke="#b20000" stroke-width="4.0" fill="#b20000" />
<circle cx="1040.0" cy="520.0" r="2.0" stroke="#b20000" stroke-width="4.0" fill="#b20000" />
<circle cx="1040.0" cy="540.0" r="2.0" stroke="#b20000" stroke-width="4.0" fill="#b20000" />
<circle cx="1040.0" cy="560.0" r="2.0" stroke="#b20000" stroke-width="4.0" fill="#b20000" />
<circle cx="1040.0" cy="580.0" r="2.0" stroke="#b20000" stroke-width="4.0" fill="#b20000" />
<circle cx="1040.0" cy="600.0" r="2.0" stroke="#b20000" stroke-width="4.0" fill="#b20000" />
<circle cx="1040.0" cy="620.0" r="2.0" stroke="#b20000" stroke-width="4.0" fill="#b20000" />
</g>
<g>
<text text-anchor="end" x="818.0" y="277.0" fill="#808080" style="font-size:12px">0-31</text>
<text text-anchor="start" x="842.0" y="277.0" fill="#808080" style="font-size:12px">0-3</text>
<text text-anchor="start" x="842.0" y="297.0" fill="#808080" style="font-size:12px">4-7</text>
<text text-anchor="start" x="842.0" y="317.0" fill="#808080" style="font-size:12px">8-11</text>
<text text-anchor="start" x="842.0" y="337.0" fill="#808080" style="font-size:12px">12-15</text>
<text text-anchor="start" x="842.0" y="357.0" fill="#808080" style="font-size:12px">16,17</text>
<text text-anchor="start" x="842.0" y="377.0" fill="#808080" style="font-size:12px">18</text>
<text text-anchor="start" x="842.0" y="397.0" fill="#808080" style="font-size:12px">19</text>
<text text-anchor="start" x="842.0" y="417.0" fill="#808080" style="font-size:12px">20</text>
<text text-anchor="start" x="842.0" y="437.0" fill="#808080" style="font-size:12px">21</text>
<text text-anchor="start" x="842.0" y="457.0" fill="#808080" style="font-size:12px">22</text>
<text text-anchor="start" x="842.0" y="477.0" fill="#808080" style="font-size:12px">23</text>
<text text-anchor="start" x="842.0" y="497.0" fill="#808080" style="font-size:12px">24</text>
<text text-anchor="start" x="842.0" y="517.0" fill="#808080" style="font-size:12px">25</text>
<text text-anchor="start" x="842.0" y="537.0" fill="#808080" style="font-size:12px">26</text>
<text text-anchor="start" x="842.0" y="557.0" fill="#808080" style="font-size:12px">27</text>
<text text-anchor="start" x="842.0" y="577.0" fill="#808080" style="font-size:12px">28</text>
<text text-anchor="start" x="842.0" y="597.0" fill="#808080" style="font-size:12px">29</text>
<text text-anchor="start" x="842.0" y="617.0" fill="#808080" style="font-size:12px">30</text>
<text text-anchor="start" x="842.0" y="637.0" fill="#808080" style="font-size:12px">31</text>
<path d="M 828,278 L 832,278 L 832,642 L 828,642 Z" stroke="#000000" stroke-width="4.0" fill="#000000" fill-opacity="1.0"/>
<circle cx="820.0" cy="280.0" r="2.0" stroke="#0000b2" stroke-width="4.0" fill="#0000b2" />
<circle cx="840.0" cy="280.0" r="2.0" stroke="#b20000" stroke-width="4.0" fill="#b20000" />
<circle cx="840.0" cy="300.0" r="2.0" stroke="#b20000" stroke-width="4.0" fill="#b20000" />
<circle cx="840.0" cy="320.0" r="2.0" stroke="#b20000" stroke-width="4.0" fill="#b20000" />
<circle cx="840.0" cy="340.0" r="2.0" stroke="#b20000" stroke-width="4.0" fill="#b20000" />
<circle cx="840.0" cy="360.0" r="2.0" stroke="#b20000" stroke-width="4.0" fill="#b20000" />
<circle cx="840.0" cy="380.0" r="2.0" stroke="#b20000" stroke-width="4.0" fill="#b20000" />
<circle cx="840.0" cy="400.0" r="2.0" stroke="#b20000" stroke-width="4.0" fill="#b20000" />
<circle cx="840.0" cy="420.0" r="2.0" stroke="#b20000" stroke-width="4.0" fill="#b20000" />
<circle cx="840.0" cy="440.0" r="2.0" stroke="#b20000" stroke-width="4.0" fill="#b20000" />
<circle cx="840.0" cy="460.0" r="2.0" stroke="#b20000" stroke-width="4.0" fill="#b20000" />
<circle cx="840.0" cy="480.0" r="2.0" stroke="#b20000" stroke-width="4.0" fill="#b20000" />
<circle cx="840.0" cy="500.0" r="2.0" stroke="#b20000" stroke-width="4.0" fill="#b20000" />
<circle cx="840.0" cy="520.0" r="2.0" stroke="#b20000" stroke-width="4.0" fill="#b20000" />
<circle cx="840.0" cy="540.0" r="2.0" stroke="#b20000" stroke-width="4.0" fill="#b20000" />
<circle cx="840.0" cy="560.0" r="2.0" stroke="#b20000" stroke-width="4.0" fill="#b20000" />
<circle cx="840.0" cy="580.0" r="2.0" stroke="#b20000" stroke-width="4.0" fill="#b20000" />
<circle cx="840.0" cy="600.0" r="2.0" stroke="#b20000" stroke-width="4.0" fill="#b20000" />
<circle cx="840.0" cy="620.0" r="2.0" stroke="#b20000" stroke-width="4.0" fill="#b20000" />
<circle cx="840.0" cy="640.0" r="2.0" stroke="#b20000" stroke-width="4.0" fill="#b20000" />
</g>
<g>
<path d="M 521,316 L 559,325 L 559,635 L 521,644 Z" stroke="#000000" stroke-width="4.0" fill="none"/>
<text text-anchor="start" x="523.0" y="335.5" fill="#808080" style="font-size:18px">0</text>
<circle cx="540.0" cy="640.0" r="2.0" stroke="#0000b2" stroke-width="4.0" fill="#0000b2" />
<circle cx="520.0" cy="320.0" r="2.0" stroke="#0000b2" stroke-width="4.0" fill="#0000b2" />
<circle cx="520.0" cy="340.0" r="2.0" stroke="#0000b2" stroke-width="4.0" fill="#0000b2" />
<circle cx="520.0" cy="360.0" r="2.0" stroke="#0000b2" stroke-width="4.0" fill="#0000b2" />
<circle cx="520.0" cy="380.0" r="2.0" stroke="#0000b2" stroke-width="4.0" fill="#0000b2" />
<circle cx="520.0" cy="400.0" r="2.0" stroke="#0000b2" stroke-width="4.0" fill="#0000b2" />
<circle cx="520.0" cy="420.0" r="2.0" stroke="#0000b2" stroke-width="4.0" fill="#0000b2" />
<circle cx="520.0" cy="440.0" r="2.0" stroke="#0000b2" stroke-width="4.0" fill="#0000b2" />
<circle cx="520.0" cy="460.0" r="2.0" stroke="#0000b2" stroke-width="4.0" fill="#0000b2" />
<circle cx="520.0" cy="480.0" r="2.0" stroke="#0000b2" stroke-width="4.0" fill="#0000b2" />
<circle cx="520.0" cy="500.0" r="2.0" stroke="#0000b2" stroke-width="4.0" fill="#0000b2" />
<circle cx="520.0" cy="520.0" r="2.0" stroke="#0000b2" stroke-width="4.0" fill="#0000b2" />
<circle cx="520.0" cy="540.0" r="2.0" stroke="#0000b2" stroke-width="4.0" fill="#0000b2" />
<circle cx="520.0" cy="560.0" r="2.0" stroke="#0000b2" stroke-width="4.0" fill="#0000b2" />
<circle cx="520.0" cy="580.0" r="2.0" stroke="#0000b2" stroke-width="4.0" fill="#0000b2" />
<circle cx="520.0" cy="600.0" r="2.0" stroke="#0000b2" stroke-width="4.0" fill="#0000b2" />
<circle cx="520.0" cy="620.0" r="2.0" stroke="#0000b2" stroke-width="4.0" fill="#0000b2" />
<circle cx="560.0" cy="480.0" r="2.0" stroke="#b20000" stroke-width="4.0" fill="#b20000" />
</g>
<g>
<path d="M 1060,520 L 1074,528 L 1074,512 Z" stroke="#000000" stroke-width="4.0" fill="none"/>
<text text-anchor="start" x="1079.0" y="526.75" fill="#808080" style="font-size:18px">WR<tspan style="font-size:80%;baseline-shift:sub;">A</tspan></text>
<circle cx="1060.0" cy="520.0" r="2.0" stroke="#0000b2" stroke-width="4.0" fill="#0000b2" />
</g>
<g>
<path d="M 1060,540 L 1074,548 L 1074,532 Z" stroke="#000000" stroke-width="4.0" fill="none"/>
<text text-anchor="start" x="1079.0" y="546.75" fill="#808080" style="font-size:18px">WR<tspan style="font-size:80%;baseline-shift:sub;">B</tspan></text>
<circle cx="1060.0" cy="540.0" r="2.0" stroke="#0000b2" stroke-width="4.0" fill="#0000b2" />
</g>
<g>
<path d="M 520,660 L 506,652 L 506,668 Z" stroke="#000000" stroke-width="4.0" fill="none"/>
<text text-anchor="end" x="501.0" y="666.75" fill="#808080" style="font-size:18px">SEL<tspan style="font-size:80%;baseline-shift:sub;">FLAGIN</tspan></text>
<circle cx="520.0" cy="660.0" r="2.0" stroke="#0000b2" stroke-width="4.0" fill="#0000b2" />
</g>
<g>
<text text-anchor="start" x="1022.0" y="308.0" fill="#000000" style="font-size:24px">?</text>
<circle cx="1020.0" cy="300.0" r="2.0" stroke="#0000b2" stroke-width="4.0" fill="#0000b2" />
</g>
<g>
<text text-anchor="start" x="1202.0" y="288.0" fill="#000000" style="font-size:24px">?</text>
<circle cx="1200.0" cy="280.0" r="2.0" stroke="#0000b2" stroke-width="4.0" fill="#0000b2" />
</g>
<g>
<text text-anchor="start" x="562.0" y="668.0" fill="#000000" style="font-size:24px">?</text>
<circle cx="560.0" cy="660.0" r="2.0" stroke="#0000b2" stroke-width="4.0" fill="#0000b2" />
</g>
<g>
<text text-anchor="start" x="662.0" y="208.0" fill="#000000" style="font-size:24px">?</text>
<circle cx="660.0" cy="200.0" r="2.0" stroke="#0000b2" stroke-width="4.0" fill="#0000b2" />
</g>
<g>
<text text-anchor="start" x="782.0" y="248.0" fill="#000000" style="font-size:24px">?</text>
<circle cx="780.0" cy="240.0" r="2.0" stroke="#0000b2" stroke-width="4.0" fill="#0000b2" />
</g>
<g>
<path d="M 1240,380 L 1254,388 L 1254,372 Z" stroke="#000000" stroke-width="4.0" fill="none"/>
<text text-anchor="start" x="1259.0" y="386.75" fill="#808080" style="font-size:18px">OE<tspan style="font-size:80%;baseline-shift:sub;">ADDRL</tspan></text>
<circle cx="1240.0" cy="380.0" r="2.0" stroke="#0000b2" stroke-width="4.0" fill="#0000b2" />
</g>
<g>
<path d="M 1240,360 L 1254,368 L 1254,352 Z" stroke="#000000" stroke-width="4.0" fill="none"/>
<text text-anchor="start" x="1259.0" y="366.75" fill="#808080" style="font-size:18px">OE<tspan style="font-size:80%;baseline-shift:sub;">PCH</tspan></text>
<circle cx="1240.0" cy="360.0" r="2.0" stroke="#0000b2" stroke-width="4.0" fill="#0000b2" />
</g>
<g>
<path d="M 1240,420 L 1254,428 L 1254,412 Z" stroke="#000000" stroke-width="4.0" fill="none"/>
<text text-anchor="start" x="1259.0" y="426.75" fill="#808080" style="font-size:18px">OE<tspan style="font-size:80%;baseline-shift:sub;">RAM</tspan></text>
<circle cx="1240.0" cy="420.0" r="2.0" stroke="#0000b2" stroke-width="4.0" fill="#0000b2" />
</g>
<g>
<path d="M 1240,440 L 1254,448 L 1254,432 Z" stroke="#000000" stroke-width="4.0" fill="none"/>
<text text-anchor="start" x="1259.0" y="446.75" fill="#808080" style="font-size:18px">OE<tspan style="font-size:80%;baseline-shift:sub;">ACC</tspan></text>
<circle cx="1240.0" cy="440.0" r="2.0" stroke="#0000b2" stroke-width="4.0" fill="#0000b2" />
</g>
<g>
<path d="M 1240,460 L 1254,468 L 1254,452 Z" stroke="#000000" stroke-width="4.0" fill="none"/>
<text text-anchor="start" x="1259.0" y="466.75" fill="#808080" style="font-size:18px">OE<tspan style="font-size:80%;baseline-shift:sub;">X</tspan></text>
<circle cx="1240.0" cy="460.0" r="2.0" stroke="#0000b2" stroke-width="4.0" fill="#0000b2" />
</g>
<g>
<path d="M 1240,400 L 1254,408 L 1254,392 Z" stroke="#000000" stroke-width="4.0" fill="none"/>
<text text-anchor="start" x="1259.0" y="406.75" fill="#808080" style="font-size:18px">OE<tspan style="font-size:80%;baseline-shift:sub;">ADDRH</tspan></text>
<circle cx="1240.0" cy="400.0" r="2.0" stroke="#0000b2" stroke-width="4.0" fill="#0000b2" />
</g>
<g>
<path d="M 1060,420 L 1074,428 L 1074,412 Z" stroke="#000000" stroke-width="4.0" fill="none"/>
<text text-anchor="start" x="1079.0" y="426.75" fill="#808080" style="font-size:18px">WR<tspan style="font-size:80%;baseline-shift:sub;">RAM</tspan></text>
<circle cx="1060.0" cy="420.0" r="2.0" stroke="#0000b2" stroke-width="4.0" fill="#0000b2" />
</g>
<g>
<path d="M 1060,580 L 1074,588 L 1074,572 Z" stroke="#000000" stroke-width="4.0" fill="none"/>
<text text-anchor="start" x="1079.0" y="586.75" fill="#808080" style="font-size:18px">WR<tspan style="font-size:80%;baseline-shift:sub;">INST</tspan></text>
<circle cx="1060.0" cy="580.0" r="2.0" stroke="#0000b2" stroke-width="4.0" fill="#0000b2" />
</g>
<g>
<path d="M 1060,440 L 1074,448 L 1074,432 Z" stroke="#000000" stroke-width="4.0" fill="none"/>
<text text-anchor="start" x="1079.0" y="446.75" fill="#808080" style="font-size:18px">WR<tspan style="font-size:80%;baseline-shift:sub;">ACC</tspan></text>
<circle cx="1060.0" cy="440.0" r="2.0" stroke="#0000b2" stroke-width="4.0" fill="#0000b2" />
</g>
<g>
<path d="M 1060,460 L 1074,468 L 1074,452 Z" stroke="#000000" stroke-width="4.0" fill="none"/>
<text text-anchor="start" x="1079.0" y="466.75" fill="#808080" style="font-size:18px">WR<tspan style="font-size:80%;baseline-shift:sub;">X</tspan></text>
<circle cx="1060.0" cy="460.0" r="2.0" stroke="#0000b2" stroke-width="4.0" fill="#0000b2" />
</g>
<g>
<path d="M 1060,500 L 1074,508 L 1074,492 Z" stroke="#000000" stroke-width="4.0" fill="none"/>
<text text-anchor="start" x="1079.0" y="506.75" fill="#808080" style="font-size:18px">WR<tspan style="font-size:80%;baseline-shift:sub;">SP</tspan></text>
<circle cx="1060.0" cy="500.0" r="2.0" stroke="#0000b2" stroke-width="4.0" fill="#0000b2" />
</g>
<g>
<path d="M 1060,360 L 1074,368 L 1074,352 Z" stroke="#000000" stroke-width="4.0" fill="none"/>
<text text-anchor="start" x="1079.0" y="366.75" fill="#808080" style="font-size:18px">WR<tspan style="font-size:80%;baseline-shift:sub;">PCH</tspan></text>
<circle cx="1060.0" cy="360.0" r="2.0" stroke="#0000b2" stroke-width="4.0" fill="#0000b2" />
</g>
<g>
<path d="M 1060,400 L 1074,408 L 1074,392 Z" stroke="#000000" stroke-width="4.0" fill="none"/>
<text text-anchor="start" x="1079.0" y="406.75" fill="#808080" style="font-size:18px">WR<tspan style="font-size:80%;baseline-shift:sub;">ADDRH</tspan></text>
<circle cx="1060.0" cy="400.0" r="2.0" stroke="#0000b2" stroke-width="4.0" fill="#0000b2" />
</g>
<g>
<path d="M 1240,520 L 1254,528 L 1254,512 Z" stroke="#000000" stroke-width="4.0" fill="none"/>
<text text-anchor="start" x="1259.0" y="526.75" fill="#808080" style="font-size:18px">OE<tspan style="font-size:80%;baseline-shift:sub;">A</tspan></text>
<circle cx="1240.0" cy="520.0" r="2.0" stroke="#0000b2" stroke-width="4.0" fill="#0000b2" />
</g>
<g>
<path d="M 1240,580 L 1254,588 L 1254,572 Z" stroke="#000000" stroke-width="4.0" fill="none"/>
<text text-anchor="start" x="1259.0" y="586.75" fill="#808080" style="font-size:18px">OE<tspan style="font-size:80%;baseline-shift:sub;">ALU</tspan></text>
<circle cx="1240.0" cy="580.0" r="2.0" stroke="#0000b2" stroke-width="4.0" fill="#0000b2" />
</g>
<g>
<path d="M 1240,540 L 1254,548 L 1254,532 Z" stroke="#000000" stroke-width="4.0" fill="none"/>
<text text-anchor="start" x="1259.0" y="546.75" fill="#808080" style="font-size:18px">OE<tspan style="font-size:80%;baseline-shift:sub;">B</tspan></text>
<circle cx="1240.0" cy="540.0" r="2.0" stroke="#0000b2" stroke-width="4.0" fill="#0000b2" />
</g>
<g>
<path d="M 1240,560 L 1254,568 L 1254,552 Z" stroke="#000000" stroke-width="4.0" fill="none"/>
<text text-anchor="start" x="1259.0" y="566.75" fill="#808080" style="font-size:18px">OE<tspan style="font-size:80%;baseline-shift:sub;">FLAGS</tspan></text>
<circle cx="1240.0" cy="560.0" r="2.0" stroke="#0000b2" stroke-width="4.0" fill="#0000b2" />
</g>
<g>
<path d="M 1240,500 L 1254,508 L 1254,492 Z" stroke="#000000" stroke-width="4.0" fill="none"/>
<text text-anchor="start" x="1259.0" y="506.75" fill="#808080" style="font-size:18px">OE<tspan style="font-size:80%;baseline-shift:sub;">SP</tspan></text>
<circle cx="1240.0" cy="500.0" r="2.0" stroke="#0000b2" stroke-width="4.0" fill="#0000b2" />
</g>
<g>
<path d="M 1240,480 L 1254,488 L 1254,472 Z" stroke="#000000" stroke-width="4.0" fill="none"/>
<text text-anchor="start" x="1259.0" y="486.75" fill="#808080" style="font-size:18px">OE<tspan style="font-size:80%;baseline-shift:sub;">Y</tspan></text>
<circle cx="1240.0" cy="480.0" r="2.0" stroke="#0000b2" stroke-width="4.0" fill="#0000b2" />
</g>
<g>
<path d="M 1060,480 L 1074,488 L 1074,472 Z" stroke="#000000" stroke-width="4.0" fill="none"/>
<text text-anchor="start" x="1079.0" y="486.75" fill="#808080" style="font-size:18px">WR<tspan style="font-size:80%;baseline-shift:sub;">Y</tspan></text>
<circle cx="1060.0" cy="480.0" r="2.0" stroke="#0000b2" stroke-width="4.0" fill="#0000b2" />
</g>
<g>
<path d="M 880,320 L 894,328 L 894,312 Z" stroke="#000000" stroke-width="4.0" fill="none"/>
<text text-anchor="start" x="899.0" y="326.75" fill="#808080" style="font-size:18px">CONST</text>
<circle cx="880.0" cy="320.0" r="2.0" stroke="#0000b2" stroke-width="4.0" fill="#0000b2" />
</g>
<g>
<path d="M 1060,560 L 1074,568 L 1074,552 Z" stroke="#000000" stroke-width="4.0" fill="none"/>
<text text-anchor="start" x="1079.0" y="566.75" fill="#808080" style="font-size:18px">WR<tspan style="font-size:80%;baseline-shift:sub;">FLAGS</tspan></text>
<circle cx="1060.0" cy="560.0" r="2.0" stroke="#0000b2" stroke-width="4.0" fill="#0000b2" />
</g>
<g>
<path d="M 500,380 L 486,372 L 486,388 Z" stroke="#000000" stroke-width="4.0" fill="none"/>
<text text-anchor="end" x="481.0" y="386.75" fill="#808080" style="font-size:18px">N<tspan style="font-size:80%;baseline-shift:sub;">FLAG</tspan></text>
<circle cx="500.0" cy="380.0" r="2.0" stroke="#0000b2" stroke-width="4.0" fill="#0000b2" />
</g>
<g>
<path d="M 500,340 L 486,332 L 486,348 Z" stroke="#000000" stroke-width="4.0" fill="none"/>
<text text-anchor="end" x="481.0" y="346.75" fill="#808080" style="font-size:18px">Z<tspan style="font-size:80%;baseline-shift:sub;">FLAG</tspan></text>
<circle cx="500.0" cy="340.0" r="2.0" stroke="#0000b2" stroke-width="4.0" fill="#0000b2" />
</g>
<g>
<path d="M 500,320 L 486,312 L 486,328 Z" stroke="#000000" stroke-width="4.0" fill="none"/>
<text text-anchor="end" x="481.0" y="326.75" fill="#808080" style="font-size:18px">C<tspan style="font-size:80%;baseline-shift:sub;">FLAG</tspan></text>
<circle cx="500.0" cy="320.0" r="2.0" stroke="#0000b2" stroke-width="4.0" fill="#0000b2" />
</g>
<g>
<path d="M 500,360 L 486,352 L 486,368 Z" stroke="#000000" stroke-width="4.0" fill="none"/>
<text text-anchor="end" x="481.0" y="366.75" fill="#808080" style="font-size:18px">V<tspan style="font-size:80%;baseline-shift:sub;">FLAG</tspan></text>
<circle cx="500.0" cy="360.0" r="2.0" stroke="#0000b2" stroke-width="4.0" fill="#0000b2" />
</g>
<g>
<path d="M 500,420 L 486,412 L 486,428 Z" stroke="#000000" stroke-width="4.0" fill="none"/>
<text text-anchor="end" x="481.0" y="426.75" fill="#808080" style="font-size:18px">N<tspan style="font-size:80%;baseline-shift:sub;">B</tspan></text>
<circle cx="500.0" cy="420.0" r="2.0" stroke="#0000b2" stroke-width="4.0" fill="#0000b2" />
</g>
<g>
<path d="M 500,400 L 486,392 L 486,408 Z" stroke="#000000" stroke-width="4.0" fill="none"/>
<text text-anchor="end" x="481.0" y="406.75" fill="#808080" style="font-size:18px">C<tspan style="font-size:80%;baseline-shift:sub;">ALU</tspan></text>
<circle cx="500.0" cy="400.0" r="2.0" stroke="#0000b2" stroke-width="4.0" fill="#0000b2" />
</g>
<g>
<path d="M 1240,600 L 1254,608 L 1254,592 Z" stroke="#000000" stroke-width="4.0" fill="none"/>
<text text-anchor="start" x="1259.0" y="606.75" fill="#808080" style="font-size:18px">OE<tspan style="font-size:80%;baseline-shift:sub;">CONST</tspan></text>
<circle cx="1240.0" cy="600.0" r="2.0" stroke="#0000b2" stroke-width="4.0" fill="#0000b2" />
</g>
<g>
<path d="M 880,340 L 894,348 L 894,332 Z" stroke="#000000" stroke-width="4.0" fill="none"/>
<text text-anchor="start" x="899.0" y="346.75" fill="#808080" style="font-size:18px">SEL<tspan style="font-size:80%;baseline-shift:sub;">FLAGIN</tspan></text>
<circle cx="880.0" cy="340.0" r="2.0" stroke="#0000b2" stroke-width="4.0" fill="#0000b2" />
</g>
<g>
<path d="M 880,380 L 894,388 L 894,372 Z" stroke="#000000" stroke-width="4.0" fill="none"/>
<text text-anchor="start" x="899.0" y="386.75" fill="#808080" style="font-size:18px">Ci<tspan style="font-size:80%;baseline-shift:sub;">ALU</tspan></text>
<circle cx="880.0" cy="380.0" r="2.0" stroke="#0000b2" stroke-width="4.0" fill="#0000b2" />
</g>
<g>
<path d="M 880,400 L 894,408 L 894,392 Z" stroke="#000000" stroke-width="4.0" fill="none"/>
<text text-anchor="start" x="899.0" y="406.75" fill="#808080" style="font-size:18px">INC<tspan style="font-size:80%;baseline-shift:sub;">PC</tspan></text>
<circle cx="880.0" cy="400.0" r="2.0" stroke="#0000b2" stroke-width="4.0" fill="#0000b2" />
</g>
<g>
<path d="M 880,420 L 894,428 L 894,412 Z" stroke="#000000" stroke-width="4.0" fill="none"/>
<text text-anchor="start" x="899.0" y="426.75" fill="#808080" style="font-size:18px">RST<tspan style="font-size:80%;baseline-shift:sub;">uSTEP</tspan></text>
<circle cx="880.0" cy="420.0" r="2.0" stroke="#0000b2" stroke-width="4.0" fill="#0000b2" />
</g>
<g>
<path d="M 880,360 L 894,368 L 894,352 Z" stroke="#000000" stroke-width="4.0" fill="none"/>
<text text-anchor="start" x="899.0" y="366.75" fill="#808080" style="font-size:18px">SEL<tspan style="font-size:80%;baseline-shift:sub;">ADDR</tspan></text>
<circle cx="880.0" cy="360.0" r="2.0" stroke="#0000b2" stroke-width="4.0" fill="#0000b2" />
</g>
<g>
<path d="M 880,440 L 894,448 L 894,432 Z" stroke="#000000" stroke-width="4.0" fill="none"/>
<text text-anchor="start" x="899.0" y="446.75" fill="#808080" style="font-size:18px">UPD<tspan style="font-size:80%;baseline-shift:sub;">C</tspan></text>
<circle cx="880.0" cy="440.0" r="2.0" stroke="#0000b2" stroke-width="4.0" fill="#0000b2" />
</g>
<g>
<path d="M 880,460 L 894,468 L 894,452 Z" stroke="#000000" stroke-width="4.0" fill="none"/>
<text text-anchor="start" x="899.0" y="466.75" fill="#808080" style="font-size:18px">UPD<tspan style="font-size:80%;baseline-shift:sub;">Z</tspan></text>
<circle cx="880.0" cy="460.0" r="2.0" stroke="#0000b2" stroke-width="4.0" fill="#0000b2" />
</g>
<g>
<path d="M 880,520 L 894,528 L 894,512 Z" stroke="#000000" stroke-width="4.0" fill="none"/>
<text text-anchor="start" x="899.0" y="526.75" fill="#808080" style="font-size:18px">UPD<tspan style="font-size:80%;baseline-shift:sub;">V</tspan></text>
<circle cx="880.0" cy="520.0" r="2.0" stroke="#0000b2" stroke-width="4.0" fill="#0000b2" />
</g>
<g>
<path d="M 880,560 L 894,568 L 894,552 Z" stroke="#000000" stroke-width="4.0" fill="none"/>
<text text-anchor="start" x="899.0" y="566.75" fill="#808080" style="font-size:18px">INC<tspan style="font-size:80%;baseline-shift:sub;">ADDRL</tspan></text>
<circle cx="880.0" cy="560.0" r="2.0" stroke="#0000b2" stroke-width="4.0" fill="#0000b2" />
</g>
<g>
<path d="M 880,580 L 894,588 L 894,572 Z" stroke="#000000" stroke-width="4.0" fill="none"/>
<text text-anchor="start" x="899.0" y="586.75" fill="#808080" style="font-size:18px">INC<tspan style="font-size:80%;baseline-shift:sub;">ADDRH</tspan></text>
<circle cx="880.0" cy="580.0" r="2.0" stroke="#0000b2" stroke-width="4.0" fill="#0000b2" />
</g>
<g>
<path d="M 880,600 L 894,608 L 894,592 Z" stroke="#000000" stroke-width="4.0" fill="none"/>
<text text-anchor="start" x="899.0" y="606.75" fill="#808080" style="font-size:18px">CNT<tspan style="font-size:80%;baseline-shift:sub;">SP</tspan></text>
<circle cx="880.0" cy="600.0" r="2.0" stroke="#0000b2" stroke-width="4.0" fill="#0000b2" />
</g>
<g>
<path d="M 880,620 L 894,628 L 894,612 Z" stroke="#000000" stroke-width="4.0" fill="none"/>
<text text-anchor="start" x="899.0" y="626.75" fill="#808080" style="font-size:18px">DIR<tspan style="font-size:80%;baseline-shift:sub;">SP</tspan></text>
<circle cx="880.0" cy="620.0" r="2.0" stroke="#0000b2" stroke-width="4.0" fill="#0000b2" />
</g>
<g>
<path d="M 880,540 L 894,548 L 894,532 Z" stroke="#000000" stroke-width="4.0" fill="none"/>
<text text-anchor="start" x="899.0" y="546.75" fill="#808080" style="font-size:18px">UPD<tspan style="font-size:80%;baseline-shift:sub;">N</tspan></text>
<circle cx="880.0" cy="540.0" r="2.0" stroke="#0000b2" stroke-width="4.0" fill="#0000b2" />
</g>
<g>
<circle cx="500.0" cy="640.0" r="2.0" stroke="#b20000" stroke-width="4.0" fill="#b20000" />
</g>
<g>
<path d="M 880,480 L 894,488 L 894,472 Z" stroke="#000000" stroke-width="4.0" fill="none"/>
<text text-anchor="start" x="899.0" y="486.75" fill="#808080" style="font-size:18px">UPD<tspan style="font-size:80%;baseline-shift:sub;">I</tspan></text>
<circle cx="880.0" cy="480.0" r="2.0" stroke="#0000b2" stroke-width="4.0" fill="#0000b2" />
</g>
<g>
<path d="M 880,500 L 894,508 L 894,492 Z" stroke="#000000" stroke-width="4.0" fill="none"/>
<text text-anchor="start" x="899.0" y="506.75" fill="#808080" style="font-size:18px">UPD<tspan style="font-size:80%;baseline-shift:sub;">D</tspan></text>
<circle cx="880.0" cy="500.0" r="2.0" stroke="#0000b2" stroke-width="4.0" fill="#0000b2" />
</g>
<g>
<path d="M 880,640 L 894,648 L 894,632 Z" stroke="#000000" stroke-width="4.0" fill="none"/>
<text text-anchor="start" x="899.0" y="646.75" fill="#808080" style="font-size:18px">INT<tspan style="font-size:80%;baseline-shift:sub;">HOLD</tspan></text>
<circle cx="880.0" cy="640.0" r="2.0" stroke="#0000b2" stroke-width="4.0" fill="#0000b2" />
</g>
<g>
<path d="M 500,440 L 486,432 L 486,448 Z" stroke="#000000" stroke-width="4.0" fill="none"/>
<text text-anchor="end" x="481.0" y="446.75" fill="#808080" style="font-size:18px">INTR</text>
<circle cx="500.0" cy="440.0" r="2.0" stroke="#0000b2" stroke-width="4.0" fill="#0000b2" />
</g>
<g>
<path d="M 500,520 L 486,512 L 486,528 Z" stroke="#000000" stroke-width="4.0" fill="none"/>
<text text-anchor="end" x="481.0" y="526.75" fill="#808080" style="font-size:18px">OV<tspan style="font-size:80%;baseline-shift:sub;">ADDRL</tspan></text>
<circle cx="500.0" cy="520.0" r="2.0" stroke="#0000b2" stroke-width="4.0" fill="#0000b2" />
</g>
<g>
<path d="M 500,540 L 486,532 L 486,548 Z" stroke="#000000" stroke-width="4.0" fill="none"/>
<text text-anchor="end" x="481.0" y="546.75" fill="#808080" style="font-size:18px">Z<tspan style="font-size:80%;baseline-shift:sub;">ALU</tspan></text>
<circle cx="500.0" cy="540.0" r="2.0" stroke="#0000b2" stroke-width="4.0" fill="#0000b2" />
</g>
<g>
<path d="M 500,460 L 486,452 L 486,468 Z" stroke="#000000" stroke-width="4.0" fill="none"/>
<text text-anchor="end" x="481.0" y="466.75" fill="#808080" style="font-size:18px">NMI</text>
<circle cx="500.0" cy="460.0" r="2.0" stroke="#0000b2" stroke-width="4.0" fill="#0000b2" />
</g>
<g>
<path d="M 500,480 L 486,472 L 486,488 Z" stroke="#000000" stroke-width="4.0" fill="none"/>
<text text-anchor="end" x="481.0" y="486.75" fill="#808080" style="font-size:18px">RST</text>
<circle cx="500.0" cy="480.0" r="2.0" stroke="#0000b2" stroke-width="4.0" fill="#0000b2" />
</g>
<g>
<path d="M 500,500 L 486,492 L 486,508 Z" stroke="#000000" stroke-width="4.0" fill="none"/>
<text text-anchor="end" x="481.0" y="506.75" fill="#808080" style="font-size:18px">WAK</text>
<circle cx="500.0" cy="500.0" r="2.0" stroke="#0000b2" stroke-width="4.0" fill="#0000b2" />
</g>
</g>
</svg>