<?xml version="1.0" encoding="UTF-8" standalone="no"?>
<!-- Created with Digital by H.Neemann -->
<!-- created: Mon Nov 03 12:08:29 CET 2025 -->

<svg
   xmlns:svg="http://www.w3.org/2000/svg"
   xmlns="http://www.w3.org/2000/svg"
   width="158.55mm"
   height="78.75mm"
   viewBox="399 -31 1057 525">
<g stroke-linecap="square">
<path d="M 480,160 L 520,160 L 520,200" stroke="#0000b2" stroke-width="4.0" fill="none"/>
<path d="M 1320,320 L 1340,320 L 1360,320" stroke="#0000b2" stroke-width="4.0" fill="none"/>
<path d="M 1380,320 L 1400,320" stroke="#0000b2" stroke-width="4.0" fill="none"/>
<path d="M 1200,320 L 1220,320" stroke="#0000b2" stroke-width="4.0" fill="none"/>
<path d="M 560,260 L 580,260" stroke="#0000b2" stroke-width="4.0" fill="none"/>
<path d="M 640,260 L 660,260 L 680,260" stroke="#0000b2" stroke-width="4.0" fill="none"/>
<path d="M 920,260 L 940,260" stroke="#0000b2" stroke-width="4.0" fill="none"/>
<path d="M 1000,260 L 1020,260 L 1040,260" stroke="#0000b2" stroke-width="4.0" fill="none"/>
<path d="M 480,100 L 580,100" stroke="#0000b2" stroke-width="4.0" fill="none"/>
<path d="M 860,100 L 940,100" stroke="#0000b2" stroke-width="4.0" fill="none"/>
<path d="M 480,420 L 500,420" stroke="#0000b2" stroke-width="4.0" fill="none"/>
<path d="M 920,420 L 940,420" stroke="#0000b2" stroke-width="4.0" fill="none"/>
<path d="M 1200,420 L 1220,420" stroke="#0000b2" stroke-width="4.0" fill="none"/>
<path d="M 1320,200 L 1340,200" stroke="#0000b2" stroke-width="4.0" fill="none"/>
<path d="M 1260,200 L 1280,200" stroke="#0000b2" stroke-width="4.0" fill="none"/>
<path d="M 480,200 L 500,200" stroke="#0000b2" stroke-width="4.0" fill="none"/>
<path d="M 540,40 L 560,40 L 560,60 L 580,60" stroke="#0000b2" stroke-width="4.0" fill="none"/>
<path d="M 660,80 L 660,40 L 680,40" stroke="#0000b2" stroke-width="4.0" fill="none"/>
<path d="M 1020,80 L 1020,40 L 1040,40" stroke="#0000b2" stroke-width="4.0" fill="none"/>
<path d="M 1380,360 L 1400,360" stroke="#0000b2" stroke-width="4.0" fill="none"/>
<path d="M 1200,360 L 1220,360" stroke="#0000b2" stroke-width="4.0" fill="none"/>
<path d="M 480,460 L 580,460" stroke="#0000b2" stroke-width="4.0" fill="none"/>
<path d="M 860,460 L 940,460" stroke="#0000b2" stroke-width="4.0" fill="none"/>
<path d="M 1200,460 L 1220,460" stroke="#0000b2" stroke-width="4.0" fill="none"/>
<path d="M 1380,460 L 1400,460" stroke="#0000b2" stroke-width="4.0" fill="none"/>
<path d="M 1260,140 L 1340,140" stroke="#0000b2" stroke-width="4.0" fill="none"/>
<path d="M 920,80 L 940,80" stroke="#0000b2" stroke-width="4.0" fill="none"/>
<path d="M 1000,80 L 1020,80 L 1040,80" stroke="#0000b2" stroke-width="4.0" fill="none"/>
<path d="M 560,80 L 580,80" stroke="#0000b2" stroke-width="4.0" fill="none"/>
<path d="M 640,80 L 660,80 L 680,80" stroke="#0000b2" stroke-width="4.0" fill="none"/>
<path d="M 1260,80 L 1340,80" stroke="#0000b2" stroke-width="4.0" fill="none"/>
<path d="M 540,400 L 560,400 L 560,420 L 580,420" stroke="#0000b2" stroke-width="4.0" fill="none"/>
<path d="M 660,440 L 660,400 L 680,400" stroke="#0000b2" stroke-width="4.0" fill="none"/>
<path d="M 1020,440 L 1020,400 L 1040,400" stroke="#0000b2" stroke-width="4.0" fill="none"/>
<path d="M 1200,400 L 1220,400" stroke="#0000b2" stroke-width="4.0" fill="none"/>
<path d="M 480,240 L 500,240" stroke="#0000b2" stroke-width="4.0" fill="none"/>
<path d="M 920,240 L 940,240" stroke="#0000b2" stroke-width="4.0" fill="none"/>
<path d="M 480,-20 L 520,-20 L 520,20" stroke="#0000b2" stroke-width="4.0" fill="none"/>
<path d="M 480,340 L 520,340 L 520,380" stroke="#0000b2" stroke-width="4.0" fill="none"/>
<path d="M 1380,340 L 1400,340" stroke="#0000b2" stroke-width="4.0" fill="none"/>
<path d="M 1200,340 L 1220,340" stroke="#0000b2" stroke-width="4.0" fill="none"/>
<path d="M 480,20 L 500,20" stroke="#0000b2" stroke-width="4.0" fill="none"/>
<path d="M 920,440 L 940,440" stroke="#0000b2" stroke-width="4.0" fill="none"/>
<path d="M 1000,440 L 1020,440 L 1040,440" stroke="#0000b2" stroke-width="4.0" fill="none"/>
<path d="M 560,440 L 580,440" stroke="#0000b2" stroke-width="4.0" fill="none"/>
<path d="M 640,440 L 660,440 L 680,440" stroke="#0000b2" stroke-width="4.0" fill="none"/>
<path d="M 1200,440 L 1220,440" stroke="#0000b2" stroke-width="4.0" fill="none"/>
<path d="M 1380,440 L 1400,440" stroke="#0000b2" stroke-width="4.0" fill="none"/>
<path d="M 860,280 L 940,280" stroke="#0000b2" stroke-width="4.0" fill="none"/>
<path d="M 480,280 L 580,280" stroke="#0000b2" stroke-width="4.0" fill="none"/>
<path d="M 1280,280 L 1300,280 L 1300,300" stroke="#0000b2" stroke-width="4.0" fill="none"/>
<path d="M 1340,320 L 1340,280 L 1360,280" stroke="#0000b2" stroke-width="4.0" fill="none"/>
<path d="M 1380,380 L 1400,380" stroke="#0000b2" stroke-width="4.0" fill="none"/>
<path d="M 1200,380 L 1220,380" stroke="#0000b2" stroke-width="4.0" fill="none"/>
<path d="M 480,380 L 500,380" stroke="#0000b2" stroke-width="4.0" fill="none"/>
<path d="M 920,60 L 940,60" stroke="#0000b2" stroke-width="4.0" fill="none"/>
<path d="M 480,60 L 500,60" stroke="#0000b2" stroke-width="4.0" fill="none"/>
<path d="M 1020,260 L 1020,220 L 1040,220" stroke="#0000b2" stroke-width="4.0" fill="none"/>
<path d="M 540,220 L 560,220 L 560,240 L 580,240" stroke="#0000b2" stroke-width="4.0" fill="none"/>
<path d="M 660,260 L 660,220 L 680,220" stroke="#0000b2" stroke-width="4.0" fill="none"/>
<path d="M 1280,320 L 1240,320 L 1240,380 L 1260,380" stroke="#0000b2" stroke-width="4.0" fill="none"/>
<path d="M 1300,300 L 1300,313" stroke="#000000" stroke-width="4.0" fill="none"/>
<path d="M 1220,320 L 1230,320 L 1240,320" stroke="#000000" stroke-width="4.0" fill="none"/>
<path d="M 1220,340 L 1230,340" stroke="#000000" stroke-width="4.0" fill="none"/>
<path d="M 1220,360 L 1230,360" stroke="#000000" stroke-width="4.0" fill="none"/>
<path d="M 1220,380 L 1230,380" stroke="#000000" stroke-width="4.0" fill="none"/>
<path d="M 1220,400 L 1230,400" stroke="#000000" stroke-width="4.0" fill="none"/>
<path d="M 1220,420 L 1230,420" stroke="#000000" stroke-width="4.0" fill="none"/>
<path d="M 1220,440 L 1230,440" stroke="#000000" stroke-width="4.0" fill="none"/>
<path d="M 1220,460 L 1230,460" stroke="#000000" stroke-width="4.0" fill="none"/>
<path d="M 1360,320 L 1370,320 L 1380,320" stroke="#000000" stroke-width="4.0" fill="none"/>
<path d="M 1380,340 L 1370,340" stroke="#000000" stroke-width="4.0" fill="none"/>
<path d="M 1380,360 L 1370,360" stroke="#000000" stroke-width="4.0" fill="none"/>
<path d="M 1380,380 L 1370,380" stroke="#000000" stroke-width="4.0" fill="none"/>
<path d="M 1380,400 L 1370,400" stroke="#000000" stroke-width="4.0" fill="none"/>
<path d="M 1380,420 L 1370,420" stroke="#000000" stroke-width="4.0" fill="none"/>
<path d="M 1380,440 L 1370,440" stroke="#000000" stroke-width="4.0" fill="none"/>
<path d="M 1380,460 L 1370,460" stroke="#000000" stroke-width="4.0" fill="none"/>
<path d="M 1194,420 L 1200,420" stroke="#000000" stroke-width="4.0" fill="none"/>
<g>
<circle cx="1340.0" cy="320.0" r="4.0" stroke="#0000b2" stroke-width="4.0" fill="#0000b2" />
<circle cx="660.0" cy="260.0" r="4.0" stroke="#0000b2" stroke-width="4.0" fill="#0000b2" />
<circle cx="1020.0" cy="260.0" r="4.0" stroke="#0000b2" stroke-width="4.0" fill="#0000b2" />
<circle cx="1020.0" cy="80.0" r="4.0" stroke="#0000b2" stroke-width="4.0" fill="#0000b2" />
<circle cx="660.0" cy="80.0" r="4.0" stroke="#0000b2" stroke-width="4.0" fill="#0000b2" />
<circle cx="1020.0" cy="440.0" r="4.0" stroke="#0000b2" stroke-width="4.0" fill="#0000b2" />
<circle cx="660.0" cy="440.0" r="4.0" stroke="#0000b2" stroke-width="4.0" fill="#0000b2" />
</g>
<g>
<path d="M 581,50 L 639,50 L 639,110 L 581,110 Z" stroke="#000000" stroke-width="4.0" fill="none"/>
<text text-anchor="middle" x="610.0" y="42.0" fill="#000000" style="font-size:24px">C</text>
<text text-anchor="start" x="584.0" y="66.75" fill="#808080" style="font-size:18px">D</text>
<path d="M 581,87 L 588,80 L 581,73" stroke="#000000" stroke-width="2.0" fill="none"/>
<text text-anchor="start" x="591.0" y="86.75" fill="#808080" style="font-size:18px">C</text>
<text text-anchor="start" x="584.0" y="106.75" fill="#808080" style="font-size:18px">en</text>
<text text-anchor="end" x="636.0" y="86.75" fill="#808080" style="font-size:18px">Q</text>
<text text-anchor="middle" x="610.0" y="127.5" fill="#808080" style="font-size:18px">Reg</text>
<circle cx="580.0" cy="60.0" r="2.0" stroke="#0000b2" stroke-width="4.0" fill="#0000b2" />
<circle cx="580.0" cy="80.0" r="2.0" stroke="#0000b2" stroke-width="4.0" fill="#0000b2" />
<circle cx="580.0" cy="100.0" r="2.0" stroke="#0000b2" stroke-width="4.0" fill="#0000b2" />
<circle cx="640.0" cy="80.0" r="2.0" stroke="#b20000" stroke-width="4.0" fill="#b20000" />
</g>
<g>
<path d="M 1229,125 L 1259,125 L 1259,155 L 1229,155 Z" stroke="#000000" stroke-width="4.0" fill="none"/>
<circle cx="1244.0" cy="140.0" r="9.0" stroke="#000000" stroke-width="4.0" fill="none" />
<text text-anchor="end" x="1215.0" y="149.0" fill="#000000" style="font-size:24px"><tspan style="font-style:italic;">WR</tspan></text>
<circle cx="1260.0" cy="140.0" r="2.0" stroke="#b20000" stroke-width="4.0" fill="#b20000" />
</g>
<g>
<path d="M 1340,80 L 1354,88 L 1354,72 Z" stroke="#000000" stroke-width="4.0" fill="none"/>
<text text-anchor="start" x="1359.0" y="86.75" fill="#808080" style="font-size:18px">CLK</text>
<circle cx="1340.0" cy="80.0" r="2.0" stroke="#0000b2" stroke-width="4.0" fill="#0000b2" />
</g>
<g>
<path d="M 560,80 L 546,72 L 546,88 Z" stroke="#000000" stroke-width="4.0" fill="none"/>
<text text-anchor="end" x="541.0" y="86.75" fill="#808080" style="font-size:18px">CLK</text>
<circle cx="560.0" cy="80.0" r="2.0" stroke="#0000b2" stroke-width="4.0" fill="#0000b2" />
</g>
<g>
<path d="M 449,5 L 479,5 L 479,35 L 449,35 Z" stroke="#000000" stroke-width="4.0" fill="none"/>
<circle cx="464.0" cy="20.0" r="9.0" stroke="#000000" stroke-width="4.0" fill="none" />
<text text-anchor="end" x="435.0" y="29.0" fill="#000000" style="font-size:24px"><tspan style="font-style:italic;">C<tspan style="font-size:80%;baseline-shift:sub;">i</tspan></tspan></text>
<circle cx="480.0" cy="20.0" r="2.0" stroke="#b20000" stroke-width="4.0" fill="#b20000" />
</g>
<g>
<path d="M 449,185 L 479,185 L 479,215 L 449,215 Z" stroke="#000000" stroke-width="4.0" fill="none"/>
<circle cx="464.0" cy="200.0" r="9.0" stroke="#000000" stroke-width="4.0" fill="none" />
<text text-anchor="end" x="435.0" y="209.0" fill="#000000" style="font-size:24px"><tspan style="font-style:italic;">Z<tspan style="font-size:80%;baseline-shift:sub;">i</tspan></tspan></text>
<circle cx="480.0" cy="200.0" r="2.0" stroke="#b20000" stroke-width="4.0" fill="#b20000" />
</g>
<g>
<circle cx="1376.0" cy="280.0" r="9.0" stroke="#000000" stroke-width="4.0" fill="none" />
<circle cx="1376.0" cy="280.0" r="15.0" stroke="#000000" stroke-width="4.0" fill="none" />
<text text-anchor="start" x="1405.0" y="289.0" fill="#000000" style="font-size:24px"><tspan style="font-style:italic;">BUS</tspan></text>
<circle cx="1360.0" cy="280.0" r="2.0" stroke="#0000b2" stroke-width="4.0" fill="#0000b2" />
</g>
<g>
<path d="M 501,16 L 539,25 L 539,55 L 501,64 Z" stroke="#000000" stroke-width="4.0" fill="none"/>
<text text-anchor="start" x="503.0" y="35.5" fill="#808080" style="font-size:18px">0</text>
<circle cx="520.0" cy="20.0" r="2.0" stroke="#0000b2" stroke-width="4.0" fill="#0000b2" />
<circle cx="500.0" cy="20.0" r="2.0" stroke="#0000b2" stroke-width="4.0" fill="#0000b2" />
<circle cx="500.0" cy="60.0" r="2.0" stroke="#0000b2" stroke-width="4.0" fill="#0000b2" />
<circle cx="540.0" cy="40.0" r="2.0" stroke="#b20000" stroke-width="4.0" fill="#b20000" />
</g>
<g>
<circle cx="696.0" cy="80.0" r="9.0" stroke="#000000" stroke-width="4.0" fill="none" />
<circle cx="696.0" cy="80.0" r="15.0" stroke="#000000" stroke-width="4.0" fill="none" />
<text text-anchor="start" x="725.0" y="89.0" fill="#000000" style="font-size:24px"><tspan style="font-style:italic;">C<tspan style="font-size:80%;baseline-shift:sub;">o</tspan></tspan></text>
<circle cx="680.0" cy="80.0" r="2.0" stroke="#0000b2" stroke-width="4.0" fill="#0000b2" />
</g>
<g>
<path d="M 1281,308 L 1319,320 L 1281,332 Z" stroke="#000000" stroke-width="4.0" fill="none"/>
<circle cx="1280.0" cy="320.0" r="2.0" stroke="#0000b2" stroke-width="4.0" fill="#0000b2" />
<circle cx="1300.0" cy="300.0" r="2.0" stroke="#0000b2" stroke-width="4.0" fill="#0000b2" />
<circle cx="1320.0" cy="320.0" r="2.0" stroke="#b20000" stroke-width="4.0" fill="#b20000" />
</g>
<g>
<path d="M 1229,185 L 1259,185 L 1259,215 L 1229,215 Z" stroke="#000000" stroke-width="4.0" fill="none"/>
<circle cx="1244.0" cy="200.0" r="9.0" stroke="#000000" stroke-width="4.0" fill="none" />
<text text-anchor="end" x="1215.0" y="209.0" fill="#000000" style="font-size:24px"><tspan style="font-style:italic;">B<tspan style="font-size:80%;baseline-shift:sub;">i</tspan></tspan></text>
<circle cx="1260.0" cy="200.0" r="2.0" stroke="#b20000" stroke-width="4.0" fill="#b20000" />
</g>
<g>
<text text-anchor="end" x="1218.0" y="317.0" fill="#808080" style="font-size:12px">0</text>
<text text-anchor="end" x="1218.0" y="337.0" fill="#808080" style="font-size:12px">1</text>
<text text-anchor="end" x="1218.0" y="357.0" fill="#808080" style="font-size:12px">2</text>
<text text-anchor="end" x="1218.0" y="377.0" fill="#808080" style="font-size:12px">3</text>
<text text-anchor="end" x="1218.0" y="397.0" fill="#808080" style="font-size:12px">4</text>
<text text-anchor="end" x="1218.0" y="417.0" fill="#808080" style="font-size:12px">5</text>
<text text-anchor="end" x="1218.0" y="437.0" fill="#808080" style="font-size:12px">6</text>
<text text-anchor="end" x="1218.0" y="457.0" fill="#808080" style="font-size:12px">7</text>
<text text-anchor="start" x="1242.0" y="317.0" fill="#808080" style="font-size:12px">0-7</text>
<path d="M 1228,318 L 1232,318 L 1232,462 L 1228,462 Z" stroke="#000000" stroke-width="4.0" fill="#000000" fill-opacity="1.0"/>
<circle cx="1220.0" cy="320.0" r="2.0" stroke="#0000b2" stroke-width="4.0" fill="#0000b2" />
<circle cx="1220.0" cy="340.0" r="2.0" stroke="#0000b2" stroke-width="4.0" fill="#0000b2" />
<circle cx="1220.0" cy="360.0" r="2.0" stroke="#0000b2" stroke-width="4.0" fill="#0000b2" />
<circle cx="1220.0" cy="380.0" r="2.0" stroke="#0000b2" stroke-width="4.0" fill="#0000b2" />
<circle cx="1220.0" cy="400.0" r="2.0" stroke="#0000b2" stroke-width="4.0" fill="#0000b2" />
<circle cx="1220.0" cy="420.0" r="2.0" stroke="#0000b2" stroke-width="4.0" fill="#0000b2" />
<circle cx="1220.0" cy="440.0" r="2.0" stroke="#0000b2" stroke-width="4.0" fill="#0000b2" />
<circle cx="1220.0" cy="460.0" r="2.0" stroke="#0000b2" stroke-width="4.0" fill="#0000b2" />
<circle cx="1240.0" cy="320.0" r="2.0" stroke="#b20000" stroke-width="4.0" fill="#b20000" />
</g>
<g>
<path d="M 680,40 L 694,48 L 694,32 Z" stroke="#000000" stroke-width="4.0" fill="none"/>
<text text-anchor="start" x="699.0" y="46.75" fill="#808080" style="font-size:18px">C<tspan style="font-size:80%;baseline-shift:sub;">o</tspan></text>
<circle cx="680.0" cy="40.0" r="2.0" stroke="#0000b2" stroke-width="4.0" fill="#0000b2" />
</g>
<g>
<text text-anchor="end" x="1358.0" y="317.0" fill="#808080" style="font-size:12px">0-7</text>
<text text-anchor="start" x="1382.0" y="317.0" fill="#808080" style="font-size:12px">0</text>
<text text-anchor="start" x="1382.0" y="337.0" fill="#808080" style="font-size:12px">1</text>
<text text-anchor="start" x="1382.0" y="357.0" fill="#808080" style="font-size:12px">2</text>
<text text-anchor="start" x="1382.0" y="377.0" fill="#808080" style="font-size:12px">3</text>
<text text-anchor="start" x="1382.0" y="397.0" fill="#808080" style="font-size:12px">4</text>
<text text-anchor="start" x="1382.0" y="417.0" fill="#808080" style="font-size:12px">5</text>
<text text-anchor="start" x="1382.0" y="437.0" fill="#808080" style="font-size:12px">6</text>
<text text-anchor="start" x="1382.0" y="457.0" fill="#808080" style="font-size:12px">7</text>
<path d="M 1368,318 L 1372,318 L 1372,462 L 1368,462 Z" stroke="#000000" stroke-width="4.0" fill="#000000" fill-opacity="1.0"/>
<circle cx="1360.0" cy="320.0" r="2.0" stroke="#0000b2" stroke-width="4.0" fill="#0000b2" />
<circle cx="1380.0" cy="320.0" r="2.0" stroke="#b20000" stroke-width="4.0" fill="#b20000" />
<circle cx="1380.0" cy="340.0" r="2.0" stroke="#b20000" stroke-width="4.0" fill="#b20000" />
<circle cx="1380.0" cy="360.0" r="2.0" stroke="#b20000" stroke-width="4.0" fill="#b20000" />
<circle cx="1380.0" cy="380.0" r="2.0" stroke="#b20000" stroke-width="4.0" fill="#b20000" />
<circle cx="1380.0" cy="400.0" r="2.0" stroke="#b20000" stroke-width="4.0" fill="#b20000" />
<circle cx="1380.0" cy="420.0" r="2.0" stroke="#b20000" stroke-width="4.0" fill="#b20000" />
<circle cx="1380.0" cy="440.0" r="2.0" stroke="#b20000" stroke-width="4.0" fill="#b20000" />
<circle cx="1380.0" cy="460.0" r="2.0" stroke="#b20000" stroke-width="4.0" fill="#b20000" />
</g>
<g>
<path d="M 1400,320 L 1414,328 L 1414,312 Z" stroke="#000000" stroke-width="4.0" fill="none"/>
<text text-anchor="start" x="1419.0" y="326.75" fill="#808080" style="font-size:18px">C<tspan style="font-size:80%;baseline-shift:sub;">B</tspan></text>
<circle cx="1400.0" cy="320.0" r="2.0" stroke="#0000b2" stroke-width="4.0" fill="#0000b2" />
</g>
<g>
<path d="M 1400,340 L 1414,348 L 1414,332 Z" stroke="#000000" stroke-width="4.0" fill="none"/>
<text text-anchor="start" x="1419.0" y="346.75" fill="#808080" style="font-size:18px">Z<tspan style="font-size:80%;baseline-shift:sub;">B</tspan></text>
<circle cx="1400.0" cy="340.0" r="2.0" stroke="#0000b2" stroke-width="4.0" fill="#0000b2" />
</g>
<g>
<path d="M 1400,360 L 1414,368 L 1414,352 Z" stroke="#000000" stroke-width="4.0" fill="none"/>
<text text-anchor="start" x="1419.0" y="366.75" fill="#808080" style="font-size:18px">I<tspan style="font-size:80%;baseline-shift:sub;">B</tspan></text>
<circle cx="1400.0" cy="360.0" r="2.0" stroke="#0000b2" stroke-width="4.0" fill="#0000b2" />
</g>
<g>
<path d="M 480,60 L 466,52 L 466,68 Z" stroke="#000000" stroke-width="4.0" fill="none"/>
<text text-anchor="end" x="461.0" y="66.75" fill="#808080" style="font-size:18px">C<tspan style="font-size:80%;baseline-shift:sub;">B</tspan></text>
<circle cx="480.0" cy="60.0" r="2.0" stroke="#0000b2" stroke-width="4.0" fill="#0000b2" />
</g>
<g>
<path d="M 449,365 L 479,365 L 479,395 L 449,395 Z" stroke="#000000" stroke-width="4.0" fill="none"/>
<circle cx="464.0" cy="380.0" r="9.0" stroke="#000000" stroke-width="4.0" fill="none" />
<text text-anchor="end" x="435.0" y="389.0" fill="#000000" style="font-size:24px"><tspan style="font-style:italic;">V<tspan style="font-size:80%;baseline-shift:sub;">i</tspan></tspan></text>
<circle cx="480.0" cy="380.0" r="2.0" stroke="#b20000" stroke-width="4.0" fill="#b20000" />
</g>
<g>
<path d="M 1200,320 L 1186,312 L 1186,328 Z" stroke="#000000" stroke-width="4.0" fill="none"/>
<text text-anchor="end" x="1181.0" y="326.75" fill="#808080" style="font-size:18px">C<tspan style="font-size:80%;baseline-shift:sub;">o</tspan></text>
<circle cx="1200.0" cy="320.0" r="2.0" stroke="#0000b2" stroke-width="4.0" fill="#0000b2" />
</g>
<g>
<path d="M 581,230 L 639,230 L 639,290 L 581,290 Z" stroke="#000000" stroke-width="4.0" fill="none"/>
<text text-anchor="middle" x="610.0" y="222.0" fill="#000000" style="font-size:24px">Z</text>
<text text-anchor="start" x="584.0" y="246.75" fill="#808080" style="font-size:18px">D</text>
<path d="M 581,267 L 588,260 L 581,253" stroke="#000000" stroke-width="2.0" fill="none"/>
<text text-anchor="start" x="591.0" y="266.75" fill="#808080" style="font-size:18px">C</text>
<text text-anchor="start" x="584.0" y="286.75" fill="#808080" style="font-size:18px">en</text>
<text text-anchor="end" x="636.0" y="266.75" fill="#808080" style="font-size:18px">Q</text>
<text text-anchor="middle" x="610.0" y="307.5" fill="#808080" style="font-size:18px">Reg</text>
<circle cx="580.0" cy="240.0" r="2.0" stroke="#0000b2" stroke-width="4.0" fill="#0000b2" />
<circle cx="580.0" cy="260.0" r="2.0" stroke="#0000b2" stroke-width="4.0" fill="#0000b2" />
<circle cx="580.0" cy="280.0" r="2.0" stroke="#0000b2" stroke-width="4.0" fill="#0000b2" />
<circle cx="640.0" cy="260.0" r="2.0" stroke="#b20000" stroke-width="4.0" fill="#b20000" />
</g>
<g>
<path d="M 560,260 L 546,252 L 546,268 Z" stroke="#000000" stroke-width="4.0" fill="none"/>
<text text-anchor="end" x="541.0" y="266.75" fill="#808080" style="font-size:18px">CLK</text>
<circle cx="560.0" cy="260.0" r="2.0" stroke="#0000b2" stroke-width="4.0" fill="#0000b2" />
</g>
<g>
<path d="M 449,85 L 479,85 L 479,115 L 449,115 Z" stroke="#000000" stroke-width="4.0" fill="none"/>
<circle cx="464.0" cy="100.0" r="9.0" stroke="#000000" stroke-width="4.0" fill="none" />
<text text-anchor="end" x="435.0" y="109.0" fill="#000000" style="font-size:24px"><tspan style="font-style:italic;">U<tspan style="font-size:80%;baseline-shift:sub;">C</tspan></tspan></text>
<circle cx="480.0" cy="100.0" r="2.0" stroke="#b20000" stroke-width="4.0" fill="#b20000" />
</g>
<g>
<circle cx="696.0" cy="260.0" r="9.0" stroke="#000000" stroke-width="4.0" fill="none" />
<circle cx="696.0" cy="260.0" r="15.0" stroke="#000000" stroke-width="4.0" fill="none" />
<text text-anchor="start" x="725.0" y="269.0" fill="#000000" style="font-size:24px"><tspan style="font-style:italic;">Z<tspan style="font-size:80%;baseline-shift:sub;">o</tspan></tspan></text>
<circle cx="680.0" cy="260.0" r="2.0" stroke="#0000b2" stroke-width="4.0" fill="#0000b2" />
</g>
<g>
<path d="M 501,196 L 539,205 L 539,235 L 501,244 Z" stroke="#000000" stroke-width="4.0" fill="none"/>
<text text-anchor="start" x="503.0" y="215.5" fill="#808080" style="font-size:18px">0</text>
<circle cx="520.0" cy="200.0" r="2.0" stroke="#0000b2" stroke-width="4.0" fill="#0000b2" />
<circle cx="500.0" cy="200.0" r="2.0" stroke="#0000b2" stroke-width="4.0" fill="#0000b2" />
<circle cx="500.0" cy="240.0" r="2.0" stroke="#0000b2" stroke-width="4.0" fill="#0000b2" />
<circle cx="540.0" cy="220.0" r="2.0" stroke="#b20000" stroke-width="4.0" fill="#b20000" />
</g>
<g>
<path d="M 680,220 L 694,228 L 694,212 Z" stroke="#000000" stroke-width="4.0" fill="none"/>
<text text-anchor="start" x="699.0" y="226.75" fill="#808080" style="font-size:18px">Z<tspan style="font-size:80%;baseline-shift:sub;">o</tspan></text>
<circle cx="680.0" cy="220.0" r="2.0" stroke="#0000b2" stroke-width="4.0" fill="#0000b2" />
</g>
<g>
<path d="M 480,240 L 466,232 L 466,248 Z" stroke="#000000" stroke-width="4.0" fill="none"/>
<text text-anchor="end" x="461.0" y="246.75" fill="#808080" style="font-size:18px">Z<tspan style="font-size:80%;baseline-shift:sub;">B</tspan></text>
<circle cx="480.0" cy="240.0" r="2.0" stroke="#0000b2" stroke-width="4.0" fill="#0000b2" />
</g>
<g>
<path d="M 1200,340 L 1186,332 L 1186,348 Z" stroke="#000000" stroke-width="4.0" fill="none"/>
<text text-anchor="end" x="1181.0" y="346.75" fill="#808080" style="font-size:18px">Z<tspan style="font-size:80%;baseline-shift:sub;">o</tspan></text>
<circle cx="1200.0" cy="340.0" r="2.0" stroke="#0000b2" stroke-width="4.0" fill="#0000b2" />
</g>
<g>
<path d="M 941,50 L 999,50 L 999,110 L 941,110 Z" stroke="#000000" stroke-width="4.0" fill="none"/>
<text text-anchor="middle" x="970.0" y="42.0" fill="#000000" style="font-size:24px">I</text>
<text text-anchor="start" x="944.0" y="66.75" fill="#808080" style="font-size:18px">D</text>
<path d="M 941,87 L 948,80 L 941,73" stroke="#000000" stroke-width="2.0" fill="none"/>
<text text-anchor="start" x="951.0" y="86.75" fill="#808080" style="font-size:18px">C</text>
<text text-anchor="start" x="944.0" y="106.75" fill="#808080" style="font-size:18px">en</text>
<text text-anchor="end" x="996.0" y="86.75" fill="#808080" style="font-size:18px">Q</text>
<text text-anchor="middle" x="970.0" y="127.5" fill="#808080" style="font-size:18px">Reg</text>
<circle cx="940.0" cy="60.0" r="2.0" stroke="#0000b2" stroke-width="4.0" fill="#0000b2" />
<circle cx="940.0" cy="80.0" r="2.0" stroke="#0000b2" stroke-width="4.0" fill="#0000b2" />
<circle cx="940.0" cy="100.0" r="2.0" stroke="#0000b2" stroke-width="4.0" fill="#0000b2" />
<circle cx="1000.0" cy="80.0" r="2.0" stroke="#b20000" stroke-width="4.0" fill="#b20000" />
</g>
<g>
<path d="M 920,80 L 906,72 L 906,88 Z" stroke="#000000" stroke-width="4.0" fill="none"/>
<text text-anchor="end" x="901.0" y="86.75" fill="#808080" style="font-size:18px">CLK</text>
<circle cx="920.0" cy="80.0" r="2.0" stroke="#0000b2" stroke-width="4.0" fill="#0000b2" />
</g>
<g>
<path d="M 449,265 L 479,265 L 479,295 L 449,295 Z" stroke="#000000" stroke-width="4.0" fill="none"/>
<circle cx="464.0" cy="280.0" r="9.0" stroke="#000000" stroke-width="4.0" fill="none" />
<text text-anchor="end" x="435.0" y="289.0" fill="#000000" style="font-size:24px"><tspan style="font-style:italic;">U<tspan style="font-size:80%;baseline-shift:sub;">Z</tspan></tspan></text>
<circle cx="480.0" cy="280.0" r="2.0" stroke="#b20000" stroke-width="4.0" fill="#b20000" />
</g>
<g>
<circle cx="1056.0" cy="80.0" r="9.0" stroke="#000000" stroke-width="4.0" fill="none" />
<circle cx="1056.0" cy="80.0" r="15.0" stroke="#000000" stroke-width="4.0" fill="none" />
<text text-anchor="start" x="1085.0" y="89.0" fill="#000000" style="font-size:24px"><tspan style="font-style:italic;">I<tspan style="font-size:80%;baseline-shift:sub;">o</tspan></tspan></text>
<circle cx="1040.0" cy="80.0" r="2.0" stroke="#0000b2" stroke-width="4.0" fill="#0000b2" />
</g>
<g>
<path d="M 1040,40 L 1054,48 L 1054,32 Z" stroke="#000000" stroke-width="4.0" fill="none"/>
<text text-anchor="start" x="1059.0" y="46.75" fill="#808080" style="font-size:18px">I<tspan style="font-size:80%;baseline-shift:sub;">o</tspan></text>
<circle cx="1040.0" cy="40.0" r="2.0" stroke="#0000b2" stroke-width="4.0" fill="#0000b2" />
</g>
<g>
<path d="M 920,60 L 906,52 L 906,68 Z" stroke="#000000" stroke-width="4.0" fill="none"/>
<text text-anchor="end" x="901.0" y="66.75" fill="#808080" style="font-size:18px">I<tspan style="font-size:80%;baseline-shift:sub;">B</tspan></text>
<circle cx="920.0" cy="60.0" r="2.0" stroke="#0000b2" stroke-width="4.0" fill="#0000b2" />
</g>
<g>
<path d="M 941,230 L 999,230 L 999,290 L 941,290 Z" stroke="#000000" stroke-width="4.0" fill="none"/>
<text text-anchor="middle" x="970.0" y="222.0" fill="#000000" style="font-size:24px">D</text>
<text text-anchor="start" x="944.0" y="246.75" fill="#808080" style="font-size:18px">D</text>
<path d="M 941,267 L 948,260 L 941,253" stroke="#000000" stroke-width="2.0" fill="none"/>
<text text-anchor="start" x="951.0" y="266.75" fill="#808080" style="font-size:18px">C</text>
<text text-anchor="start" x="944.0" y="286.75" fill="#808080" style="font-size:18px">en</text>
<text text-anchor="end" x="996.0" y="266.75" fill="#808080" style="font-size:18px">Q</text>
<text text-anchor="middle" x="970.0" y="307.5" fill="#808080" style="font-size:18px">Reg</text>
<circle cx="940.0" cy="240.0" r="2.0" stroke="#0000b2" stroke-width="4.0" fill="#0000b2" />
<circle cx="940.0" cy="260.0" r="2.0" stroke="#0000b2" stroke-width="4.0" fill="#0000b2" />
<circle cx="940.0" cy="280.0" r="2.0" stroke="#0000b2" stroke-width="4.0" fill="#0000b2" />
<circle cx="1000.0" cy="260.0" r="2.0" stroke="#b20000" stroke-width="4.0" fill="#b20000" />
</g>
<g>
<path d="M 920,260 L 906,252 L 906,268 Z" stroke="#000000" stroke-width="4.0" fill="none"/>
<text text-anchor="end" x="901.0" y="266.75" fill="#808080" style="font-size:18px">CLK</text>
<circle cx="920.0" cy="260.0" r="2.0" stroke="#0000b2" stroke-width="4.0" fill="#0000b2" />
</g>
<g>
<path d="M 829,85 L 859,85 L 859,115 L 829,115 Z" stroke="#000000" stroke-width="4.0" fill="none"/>
<circle cx="844.0" cy="100.0" r="9.0" stroke="#000000" stroke-width="4.0" fill="none" />
<text text-anchor="end" x="815.0" y="109.0" fill="#000000" style="font-size:24px"><tspan style="font-style:italic;">U<tspan style="font-size:80%;baseline-shift:sub;">I</tspan></tspan></text>
<circle cx="860.0" cy="100.0" r="2.0" stroke="#b20000" stroke-width="4.0" fill="#b20000" />
</g>
<g>
<circle cx="1056.0" cy="260.0" r="9.0" stroke="#000000" stroke-width="4.0" fill="none" />
<circle cx="1056.0" cy="260.0" r="15.0" stroke="#000000" stroke-width="4.0" fill="none" />
<text text-anchor="start" x="1085.0" y="269.0" fill="#000000" style="font-size:24px"><tspan style="font-style:italic;">D<tspan style="font-size:80%;baseline-shift:sub;">o</tspan></tspan></text>
<circle cx="1040.0" cy="260.0" r="2.0" stroke="#0000b2" stroke-width="4.0" fill="#0000b2" />
</g>
<g>
<path d="M 1040,220 L 1054,228 L 1054,212 Z" stroke="#000000" stroke-width="4.0" fill="none"/>
<text text-anchor="start" x="1059.0" y="226.75" fill="#808080" style="font-size:18px">D<tspan style="font-size:80%;baseline-shift:sub;">o</tspan></text>
<circle cx="1040.0" cy="220.0" r="2.0" stroke="#0000b2" stroke-width="4.0" fill="#0000b2" />
</g>
<g>
<path d="M 920,240 L 906,232 L 906,248 Z" stroke="#000000" stroke-width="4.0" fill="none"/>
<text text-anchor="end" x="901.0" y="246.75" fill="#808080" style="font-size:18px">D<tspan style="font-size:80%;baseline-shift:sub;">B</tspan></text>
<circle cx="920.0" cy="240.0" r="2.0" stroke="#0000b2" stroke-width="4.0" fill="#0000b2" />
</g>
<g>
<path d="M 581,410 L 639,410 L 639,470 L 581,470 Z" stroke="#000000" stroke-width="4.0" fill="none"/>
<text text-anchor="middle" x="610.0" y="402.0" fill="#000000" style="font-size:24px">V</text>
<text text-anchor="start" x="584.0" y="426.75" fill="#808080" style="font-size:18px">D</text>
<path d="M 581,447 L 588,440 L 581,433" stroke="#000000" stroke-width="2.0" fill="none"/>
<text text-anchor="start" x="591.0" y="446.75" fill="#808080" style="font-size:18px">C</text>
<text text-anchor="start" x="584.0" y="466.75" fill="#808080" style="font-size:18px">en</text>
<text text-anchor="end" x="636.0" y="446.75" fill="#808080" style="font-size:18px">Q</text>
<text text-anchor="middle" x="610.0" y="487.5" fill="#808080" style="font-size:18px">Reg</text>
<circle cx="580.0" cy="420.0" r="2.0" stroke="#0000b2" stroke-width="4.0" fill="#0000b2" />
<circle cx="580.0" cy="440.0" r="2.0" stroke="#0000b2" stroke-width="4.0" fill="#0000b2" />
<circle cx="580.0" cy="460.0" r="2.0" stroke="#0000b2" stroke-width="4.0" fill="#0000b2" />
<circle cx="640.0" cy="440.0" r="2.0" stroke="#b20000" stroke-width="4.0" fill="#b20000" />
</g>
<g>
<path d="M 560,440 L 546,432 L 546,448 Z" stroke="#000000" stroke-width="4.0" fill="none"/>
<text text-anchor="end" x="541.0" y="446.75" fill="#808080" style="font-size:18px">CLK</text>
<circle cx="560.0" cy="440.0" r="2.0" stroke="#0000b2" stroke-width="4.0" fill="#0000b2" />
</g>
<g>
<path d="M 829,265 L 859,265 L 859,295 L 829,295 Z" stroke="#000000" stroke-width="4.0" fill="none"/>
<circle cx="844.0" cy="280.0" r="9.0" stroke="#000000" stroke-width="4.0" fill="none" />
<text text-anchor="end" x="815.0" y="289.0" fill="#000000" style="font-size:24px"><tspan style="font-style:italic;">U<tspan style="font-size:80%;baseline-shift:sub;">D</tspan></tspan></text>
<circle cx="860.0" cy="280.0" r="2.0" stroke="#b20000" stroke-width="4.0" fill="#b20000" />
</g>
<g>
<path d="M 449,445 L 479,445 L 479,475 L 449,475 Z" stroke="#000000" stroke-width="4.0" fill="none"/>
<circle cx="464.0" cy="460.0" r="9.0" stroke="#000000" stroke-width="4.0" fill="none" />
<text text-anchor="end" x="435.0" y="469.0" fill="#000000" style="font-size:24px"><tspan style="font-style:italic;">U<tspan style="font-size:80%;baseline-shift:sub;">V</tspan></tspan></text>
<circle cx="480.0" cy="460.0" r="2.0" stroke="#b20000" stroke-width="4.0" fill="#b20000" />
</g>
<g>
<circle cx="696.0" cy="440.0" r="9.0" stroke="#000000" stroke-width="4.0" fill="none" />
<circle cx="696.0" cy="440.0" r="15.0" stroke="#000000" stroke-width="4.0" fill="none" />
<text text-anchor="start" x="725.0" y="449.0" fill="#000000" style="font-size:24px"><tspan style="font-style:italic;">V<tspan style="font-size:80%;baseline-shift:sub;">o</tspan></tspan></text>
<circle cx="680.0" cy="440.0" r="2.0" stroke="#0000b2" stroke-width="4.0" fill="#0000b2" />
</g>
<g>
<path d="M 501,376 L 539,385 L 539,415 L 501,424 Z" stroke="#000000" stroke-width="4.0" fill="none"/>
<text text-anchor="start" x="503.0" y="395.5" fill="#808080" style="font-size:18px">0</text>
<circle cx="520.0" cy="380.0" r="2.0" stroke="#0000b2" stroke-width="4.0" fill="#0000b2" />
<circle cx="500.0" cy="380.0" r="2.0" stroke="#0000b2" stroke-width="4.0" fill="#0000b2" />
<circle cx="500.0" cy="420.0" r="2.0" stroke="#0000b2" stroke-width="4.0" fill="#0000b2" />
<circle cx="540.0" cy="400.0" r="2.0" stroke="#b20000" stroke-width="4.0" fill="#b20000" />
</g>
<g>
<path d="M 680,400 L 694,408 L 694,392 Z" stroke="#000000" stroke-width="4.0" fill="none"/>
<text text-anchor="start" x="699.0" y="406.75" fill="#808080" style="font-size:18px">V<tspan style="font-size:80%;baseline-shift:sub;">o</tspan></text>
<circle cx="680.0" cy="400.0" r="2.0" stroke="#0000b2" stroke-width="4.0" fill="#0000b2" />
</g>
<g>
<path d="M 480,420 L 466,412 L 466,428 Z" stroke="#000000" stroke-width="4.0" fill="none"/>
<text text-anchor="end" x="461.0" y="426.75" fill="#808080" style="font-size:18px">V<tspan style="font-size:80%;baseline-shift:sub;">B</tspan></text>
<circle cx="480.0" cy="420.0" r="2.0" stroke="#0000b2" stroke-width="4.0" fill="#0000b2" />
</g>
<g>
<path d="M 941,410 L 999,410 L 999,470 L 941,470 Z" stroke="#000000" stroke-width="4.0" fill="none"/>
<text text-anchor="middle" x="970.0" y="402.0" fill="#000000" style="font-size:24px">N</text>
<text text-anchor="start" x="944.0" y="426.75" fill="#808080" style="font-size:18px">D</text>
<path d="M 941,447 L 948,440 L 941,433" stroke="#000000" stroke-width="2.0" fill="none"/>
<text text-anchor="start" x="951.0" y="446.75" fill="#808080" style="font-size:18px">C</text>
<text text-anchor="start" x="944.0" y="466.75" fill="#808080" style="font-size:18px">en</text>
<text text-anchor="end" x="996.0" y="446.75" fill="#808080" style="font-size:18px">Q</text>
<text text-anchor="middle" x="970.0" y="487.5" fill="#808080" style="font-size:18px">Reg</text>
<circle cx="940.0" cy="420.0" r="2.0" stroke="#0000b2" stroke-width="4.0" fill="#0000b2" />
<circle cx="940.0" cy="440.0" r="2.0" stroke="#0000b2" stroke-width="4.0" fill="#0000b2" />
<circle cx="940.0" cy="460.0" r="2.0" stroke="#0000b2" stroke-width="4.0" fill="#0000b2" />
<circle cx="1000.0" cy="440.0" r="2.0" stroke="#b20000" stroke-width="4.0" fill="#b20000" />
</g>
<g>
<path d="M 920,440 L 906,432 L 906,448 Z" stroke="#000000" stroke-width="4.0" fill="none"/>
<text text-anchor="end" x="901.0" y="446.75" fill="#808080" style="font-size:18px">CLK</text>
<circle cx="920.0" cy="440.0" r="2.0" stroke="#0000b2" stroke-width="4.0" fill="#0000b2" />
</g>
<g>
<path d="M 829,445 L 859,445 L 859,475 L 829,475 Z" stroke="#000000" stroke-width="4.0" fill="none"/>
<circle cx="844.0" cy="460.0" r="9.0" stroke="#000000" stroke-width="4.0" fill="none" />
<text text-anchor="end" x="815.0" y="469.0" fill="#000000" style="font-size:24px"><tspan style="font-style:italic;">U<tspan style="font-size:80%;baseline-shift:sub;">N</tspan></tspan></text>
<circle cx="860.0" cy="460.0" r="2.0" stroke="#b20000" stroke-width="4.0" fill="#b20000" />
</g>
<g>
<path d="M 1249,265 L 1279,265 L 1279,295 L 1249,295 Z" stroke="#000000" stroke-width="4.0" fill="none"/>
<circle cx="1264.0" cy="280.0" r="9.0" stroke="#000000" stroke-width="4.0" fill="none" />
<text text-anchor="end" x="1235.0" y="289.0" fill="#000000" style="font-size:24px"><tspan style="font-style:italic;">OE</tspan></text>
<circle cx="1280.0" cy="280.0" r="2.0" stroke="#b20000" stroke-width="4.0" fill="#b20000" />
</g>
<g>
<circle cx="1056.0" cy="440.0" r="9.0" stroke="#000000" stroke-width="4.0" fill="none" />
<circle cx="1056.0" cy="440.0" r="15.0" stroke="#000000" stroke-width="4.0" fill="none" />
<text text-anchor="start" x="1085.0" y="449.0" fill="#000000" style="font-size:24px"><tspan style="font-style:italic;">N<tspan style="font-size:80%;baseline-shift:sub;">o</tspan></tspan></text>
<circle cx="1040.0" cy="440.0" r="2.0" stroke="#0000b2" stroke-width="4.0" fill="#0000b2" />
</g>
<g>
<path d="M 1040,400 L 1054,408 L 1054,392 Z" stroke="#000000" stroke-width="4.0" fill="none"/>
<text text-anchor="start" x="1059.0" y="406.75" fill="#808080" style="font-size:18px">N<tspan style="font-size:80%;baseline-shift:sub;">o</tspan></text>
<circle cx="1040.0" cy="400.0" r="2.0" stroke="#0000b2" stroke-width="4.0" fill="#0000b2" />
</g>
<g>
<path d="M 920,420 L 906,412 L 906,428 Z" stroke="#000000" stroke-width="4.0" fill="none"/>
<text text-anchor="end" x="901.0" y="426.75" fill="#808080" style="font-size:18px">N<tspan style="font-size:80%;baseline-shift:sub;">B</tspan></text>
<circle cx="920.0" cy="420.0" r="2.0" stroke="#0000b2" stroke-width="4.0" fill="#0000b2" />
</g>
<g>
<path d="M 1340,140 L 1354,148 L 1354,132 Z" stroke="#000000" stroke-width="4.0" fill="none"/>
<text text-anchor="start" x="1359.0" y="146.75" fill="#808080" style="font-size:18px">WR</text>
<circle cx="1340.0" cy="140.0" r="2.0" stroke="#0000b2" stroke-width="4.0" fill="#0000b2" />
</g>
<g>
<path d="M 480,-20 L 466,-28 L 466,-12 Z" stroke="#000000" stroke-width="4.0" fill="none"/>
<text text-anchor="end" x="461.0" y="-13.25" fill="#808080" style="font-size:18px">WR</text>
<circle cx="480.0" cy="-20.0" r="2.0" stroke="#0000b2" stroke-width="4.0" fill="#0000b2" />
</g>
<g>
<path d="M 480,160 L 466,152 L 466,168 Z" stroke="#000000" stroke-width="4.0" fill="none"/>
<text text-anchor="end" x="461.0" y="166.75" fill="#808080" style="font-size:18px">WR</text>
<circle cx="480.0" cy="160.0" r="2.0" stroke="#0000b2" stroke-width="4.0" fill="#0000b2" />
</g>
<g>
<path d="M 480,340 L 466,332 L 466,348 Z" stroke="#000000" stroke-width="4.0" fill="none"/>
<text text-anchor="end" x="461.0" y="346.75" fill="#808080" style="font-size:18px">WR</text>
<circle cx="480.0" cy="340.0" r="2.0" stroke="#0000b2" stroke-width="4.0" fill="#0000b2" />
</g>
<g>
<path d="M 1200,360 L 1186,352 L 1186,368 Z" stroke="#000000" stroke-width="4.0" fill="none"/>
<text text-anchor="end" x="1181.0" y="366.75" fill="#808080" style="font-size:18px">I<tspan style="font-size:80%;baseline-shift:sub;">o</tspan></text>
<circle cx="1200.0" cy="360.0" r="2.0" stroke="#0000b2" stroke-width="4.0" fill="#0000b2" />
</g>
<g>
<path d="M 1200,380 L 1186,372 L 1186,388 Z" stroke="#000000" stroke-width="4.0" fill="none"/>
<text text-anchor="end" x="1181.0" y="386.75" fill="#808080" style="font-size:18px">D<tspan style="font-size:80%;baseline-shift:sub;">o</tspan></text>
<circle cx="1200.0" cy="380.0" r="2.0" stroke="#0000b2" stroke-width="4.0" fill="#0000b2" />
</g>
<g>
<path d="M 1400,380 L 1414,388 L 1414,372 Z" stroke="#000000" stroke-width="4.0" fill="none"/>
<text text-anchor="start" x="1419.0" y="386.75" fill="#808080" style="font-size:18px">D<tspan style="font-size:80%;baseline-shift:sub;">B</tspan></text>
<circle cx="1400.0" cy="380.0" r="2.0" stroke="#0000b2" stroke-width="4.0" fill="#0000b2" />
</g>
<g>
<path d="M 1204,430 L 1191,420 L 1204,410" stroke="#000000" stroke-width="4.0" fill="none"/>
<circle cx="1200.0" cy="420.0" r="2.0" stroke="#b20000" stroke-width="4.0" fill="#b20000" />
</g>
<g>
<path d="M 1200,440 L 1186,432 L 1186,448 Z" stroke="#000000" stroke-width="4.0" fill="none"/>
<text text-anchor="end" x="1181.0" y="446.75" fill="#808080" style="font-size:18px">V<tspan style="font-size:80%;baseline-shift:sub;">o</tspan></text>
<circle cx="1200.0" cy="440.0" r="2.0" stroke="#0000b2" stroke-width="4.0" fill="#0000b2" />
</g>
<g>
<path d="M 1200,460 L 1186,452 L 1186,468 Z" stroke="#000000" stroke-width="4.0" fill="none"/>
<text text-anchor="end" x="1181.0" y="466.75" fill="#808080" style="font-size:18px">N<tspan style="font-size:80%;baseline-shift:sub;">o</tspan></text>
<circle cx="1200.0" cy="460.0" r="2.0" stroke="#0000b2" stroke-width="4.0" fill="#0000b2" />
</g>
<g>
<path d="M 1400,440 L 1414,448 L 1414,432 Z" stroke="#000000" stroke-width="4.0" fill="none"/>
<text text-anchor="start" x="1419.0" y="446.75" fill="#808080" style="font-size:18px">V<tspan style="font-size:80%;baseline-shift:sub;">B</tspan></text>
<circle cx="1400.0" cy="440.0" r="2.0" stroke="#0000b2" stroke-width="4.0" fill="#0000b2" />
</g>
<g>
<path d="M 1400,460 L 1414,468 L 1414,452 Z" stroke="#000000" stroke-width="4.0" fill="none"/>
<text text-anchor="start" x="1419.0" y="466.75" fill="#808080" style="font-size:18px">N<tspan style="font-size:80%;baseline-shift:sub;">B</tspan></text>
<circle cx="1400.0" cy="460.0" r="2.0" stroke="#0000b2" stroke-width="4.0" fill="#0000b2" />
</g>
<g>
<path d="M 1200,400 L 1186,392 L 1186,408 Z" stroke="#000000" stroke-width="4.0" fill="none"/>
<text text-anchor="end" x="1181.0" y="406.75" fill="#808080" style="font-size:18px">B<tspan style="font-size:80%;baseline-shift:sub;">o</tspan></text>
<circle cx="1200.0" cy="400.0" r="2.0" stroke="#0000b2" stroke-width="4.0" fill="#0000b2" />
</g>
<g>
<path d="M 1229,65 L 1259,65 L 1259,95 L 1229,95 Z" stroke="#000000" stroke-width="4.0" fill="none"/>
<text text-anchor="end" x="1215.0" y="89.0" fill="#000000" style="font-size:24px"><tspan style="font-style:italic;">CLK</tspan></text>
<path d="M 1235,85 L 1240,85 L 1240,75 L 1245,75 L 1245,85 L 1250,85 L 1250,75 L 1255,75" stroke="#000000" stroke-width="2.0" fill="none"/>
<circle cx="1260.0" cy="80.0" r="2.0" stroke="#b20000" stroke-width="4.0" fill="#b20000" />
</g>
<g>
<path d="M 1340,200 L 1354,208 L 1354,192 Z" stroke="#000000" stroke-width="4.0" fill="none"/>
<text text-anchor="start" x="1359.0" y="206.75" fill="#808080" style="font-size:18px">B<tspan style="font-size:80%;baseline-shift:sub;">o</tspan></text>
<circle cx="1340.0" cy="200.0" r="2.0" stroke="#0000b2" stroke-width="4.0" fill="#0000b2" />
</g>
<g>
<path d="M 1281,190 L 1299,190 L 1299,210 L 1281,210 Z" stroke="#000000" stroke-width="4.0" fill="none"/>
<circle cx="1310.0" cy="200.0" r="9.0" stroke="#000000" stroke-width="4.0" fill="none" />
<circle cx="1280.0" cy="200.0" r="2.0" stroke="#0000b2" stroke-width="4.0" fill="#0000b2" />
<circle cx="1320.0" cy="200.0" r="2.0" stroke="#b20000" stroke-width="4.0" fill="#b20000" />
</g>
<g>
<circle cx="1276.0" cy="380.0" r="9.0" stroke="#000000" stroke-width="4.0" fill="none" />
<circle cx="1276.0" cy="380.0" r="15.0" stroke="#000000" stroke-width="4.0" fill="none" />
<text text-anchor="start" x="1305.0" y="389.0" fill="#000000" style="font-size:24px"><tspan style="font-style:italic;">REG</tspan></text>
<circle cx="1260.0" cy="380.0" r="2.0" stroke="#0000b2" stroke-width="4.0" fill="#0000b2" />
</g>
</g>
</svg>