<?xml version="1.0" encoding="UTF-8" standalone="no"?>
<!-- Created with Digital by H.Neemann -->
<!-- created: Mon Nov 03 13:33:52 CET 2025 -->

<svg
   xmlns:svg="http://www.w3.org/2000/svg"
   xmlns="http://www.w3.org/2000/svg"
   width="141.75mm"
   height="67.65mm"
   viewBox="360 183 945 451">
<g stroke-linecap="square">
<path d="M 850,620 L 870,620" stroke="#000000" stroke-width="6.0" fill="none"/>
<path d="M 510,420 L 530,420" stroke="#000000" stroke-width="2.0" fill="none"/>
<path d="M 510,425 L 510,415" stroke="#000000" stroke-width="2.0" fill="none"/>
<path d="M 530,425 L 530,415" stroke="#000000" stroke-width="2.0" fill="none"/>
<path d="M 510,480 L 530,480" stroke="#000000" stroke-width="2.0" fill="none"/>
<path d="M 510,485 L 510,475" stroke="#000000" stroke-width="2.0" fill="none"/>
<path d="M 530,485 L 530,475" stroke="#000000" stroke-width="2.0" fill="none"/>
<path d="M 940,320 L 1020,320" stroke="#0000b2" stroke-width="4.0" fill="none"/>
<path d="M 840,320 L 880,320" stroke="#0000b2" stroke-width="4.0" fill="none"/>
<path d="M 540,480 L 560,480" stroke="#0000b2" stroke-width="4.0" fill="none"/>
<path d="M 480,440 L 480,480 L 500,480" stroke="#0000b2" stroke-width="4.0" fill="none"/>
<path d="M 740,420 L 880,420" stroke="#0000b2" stroke-width="4.0" fill="none"/>
<path d="M 540,420 L 560,420" stroke="#0000b2" stroke-width="4.0" fill="none"/>
<path d="M 480,380 L 480,420 L 500,420" stroke="#0000b2" stroke-width="4.0" fill="none"/>
<path d="M 720,580 L 760,580" stroke="#0000b2" stroke-width="4.0" fill="none"/>
<path d="M 600,200 L 640,200" stroke="#0000b2" stroke-width="4.0" fill="none"/>
<path d="M 840,520 L 860,520 L 860,540 L 880,540" stroke="#0000b2" stroke-width="4.0" fill="none"/>
<path d="M 640,460 L 660,460 L 660,440 L 680,440" stroke="#0000b2" stroke-width="4.0" fill="none"/>
<path d="M 840,460 L 860,460" stroke="#0000b2" stroke-width="4.0" fill="none"/>
<path d="M 1100,540 L 1100,460 L 1120,460" stroke="#0000b2" stroke-width="4.0" fill="none"/>
<path d="M 720,620 L 740,620" stroke="#0000b2" stroke-width="4.0" fill="none"/>
<path d="M 780,300 L 880,300" stroke="#0000b2" stroke-width="4.0" fill="none"/>
<path d="M 1080,300 L 1100,300 L 1100,420 L 1120,420" stroke="#0000b2" stroke-width="4.0" fill="none"/>
<path d="M 640,400 L 660,400 L 660,420 L 680,420" stroke="#0000b2" stroke-width="4.0" fill="none"/>
<path d="M 980,440 L 980,400 L 1000,400" stroke="#0000b2" stroke-width="4.0" fill="none"/>
<path d="M 600,240 L 640,240" stroke="#0000b2" stroke-width="4.0" fill="none"/>
<path d="M 840,340 L 860,340" stroke="#0000b2" stroke-width="4.0" fill="none"/>
<path d="M 460,440 L 480,440 L 580,440" stroke="#0000b2" stroke-width="4.0" fill="none"/>
<path d="M 1180,440 L 1220,440" stroke="#0000b2" stroke-width="4.0" fill="none"/>
<path d="M 940,440 L 980,440 L 1120,440" stroke="#0000b2" stroke-width="4.0" fill="none"/>
<path d="M 840,440 L 880,440" stroke="#0000b2" stroke-width="4.0" fill="none"/>
<path d="M 820,600 L 840,600 L 840,580 L 880,580" stroke="#0000b2" stroke-width="4.0" fill="none"/>
<path d="M 860,620 L 860,600 L 880,600" stroke="#0000b2" stroke-width="4.0" fill="none"/>
<path d="M 460,380 L 480,380 L 580,380" stroke="#0000b2" stroke-width="4.0" fill="none"/>
<path d="M 940,540 L 1100,540 L 1120,540" stroke="#0000b2" stroke-width="4.0" fill="none"/>
<path d="M 780,540 L 800,540 L 800,560 L 880,560" stroke="#0000b2" stroke-width="4.0" fill="none"/>
<path d="M 960,220 L 980,220 L 980,280 L 1000,280" stroke="#0000b2" stroke-width="4.0" fill="none"/>
<g>
<circle cx="480.0" cy="440.0" r="4.0" stroke="#0000b2" stroke-width="4.0" fill="#0000b2" />
<circle cx="980.0" cy="440.0" r="4.0" stroke="#0000b2" stroke-width="4.0" fill="#0000b2" />
<circle cx="480.0" cy="380.0" r="4.0" stroke="#0000b2" stroke-width="4.0" fill="#0000b2" />
<circle cx="1100.0" cy="540.0" r="4.0" stroke="#0000b2" stroke-width="4.0" fill="#0000b2" />
</g>
<g>
<path d="M 1121,410 L 1179,410 L 1179,470 L 1121,470 Z" stroke="#000000" stroke-width="4.0" fill="none"/>
<text text-anchor="middle" x="1150.0" y="432.0" fill="#000000" style="font-size:24px">≥1</text>
<circle cx="1120.0" cy="420.0" r="2.0" stroke="#0000b2" stroke-width="4.0" fill="#0000b2" />
<circle cx="1120.0" cy="440.0" r="2.0" stroke="#0000b2" stroke-width="4.0" fill="#0000b2" />
<circle cx="1120.0" cy="460.0" r="2.0" stroke="#0000b2" stroke-width="4.0" fill="#0000b2" />
<circle cx="1180.0" cy="440.0" r="2.0" stroke="#b20000" stroke-width="4.0" fill="#b20000" />
</g>
<g>
<path d="M 881,410 L 939,410 L 939,470 L 881,470 Z" stroke="#000000" stroke-width="4.0" fill="none"/>
<text text-anchor="middle" x="910.0" y="402.0" fill="#000000" style="font-size:24px">NMI</text>
<text text-anchor="start" x="884.0" y="426.75" fill="#808080" style="font-size:18px">D</text>
<path d="M 881,447 L 888,440 L 881,433" stroke="#000000" stroke-width="2.0" fill="none"/>
<text text-anchor="start" x="891.0" y="446.75" fill="#808080" style="font-size:18px">C</text>
<text text-anchor="start" x="884.0" y="466.75" fill="#808080" style="font-size:18px">en</text>
<text text-anchor="end" x="936.0" y="446.75" fill="#808080" style="font-size:18px">Q</text>
<text text-anchor="middle" x="910.0" y="487.5" fill="#808080" style="font-size:18px">Reg</text>
<circle cx="870.0" cy="460.0" r="8.0" stroke="#000000" stroke-width="4.0" fill="none" />
<circle cx="880.0" cy="420.0" r="2.0" stroke="#0000b2" stroke-width="4.0" fill="#0000b2" />
<circle cx="880.0" cy="440.0" r="2.0" stroke="#0000b2" stroke-width="4.0" fill="#0000b2" />
<circle cx="860.0" cy="460.0" r="2.0" stroke="#0000b2" stroke-width="4.0" fill="#0000b2" />
<circle cx="940.0" cy="440.0" r="2.0" stroke="#b20000" stroke-width="4.0" fill="#b20000" />
</g>
<g>
<path d="M 840,440 L 826,432 L 826,448 Z" stroke="#000000" stroke-width="4.0" fill="none"/>
<text text-anchor="end" x="821.0" y="446.75" fill="#808080" style="font-size:18px">CLK</text>
<circle cx="840.0" cy="440.0" r="2.0" stroke="#0000b2" stroke-width="4.0" fill="#0000b2" />
</g>
<g>
<path d="M 840,460 L 826,452 L 826,468 Z" stroke="#000000" stroke-width="4.0" fill="none"/>
<text text-anchor="end" x="821.0" y="466.75" fill="#808080" style="font-size:18px">INT<tspan style="font-size:80%;baseline-shift:sub;">HOLD</tspan></text>
<circle cx="840.0" cy="460.0" r="2.0" stroke="#0000b2" stroke-width="4.0" fill="#0000b2" />
</g>
<g>
<path d="M 1021,270 L 1079,270 L 1079,330 L 1021,330 Z" stroke="#000000" stroke-width="4.0" fill="none"/>
<text text-anchor="middle" x="1050.0" y="292.0" fill="#000000" style="font-size:24px">&amp;</text>
<circle cx="1010.0" cy="280.0" r="8.0" stroke="#000000" stroke-width="4.0" fill="none" />
<circle cx="1000.0" cy="280.0" r="2.0" stroke="#0000b2" stroke-width="4.0" fill="#0000b2" />
<circle cx="1020.0" cy="320.0" r="2.0" stroke="#0000b2" stroke-width="4.0" fill="#0000b2" />
<circle cx="1080.0" cy="300.0" r="2.0" stroke="#b20000" stroke-width="4.0" fill="#b20000" />
</g>
<g>
<path d="M 881,290 L 939,290 L 939,350 L 881,350 Z" stroke="#000000" stroke-width="4.0" fill="none"/>
<text text-anchor="middle" x="910.0" y="282.0" fill="#000000" style="font-size:24px">INT</text>
<text text-anchor="start" x="884.0" y="306.75" fill="#808080" style="font-size:18px">D</text>
<path d="M 881,327 L 888,320 L 881,313" stroke="#000000" stroke-width="2.0" fill="none"/>
<text text-anchor="start" x="891.0" y="326.75" fill="#808080" style="font-size:18px">C</text>
<text text-anchor="start" x="884.0" y="346.75" fill="#808080" style="font-size:18px">en</text>
<text text-anchor="end" x="936.0" y="326.75" fill="#808080" style="font-size:18px">Q</text>
<text text-anchor="middle" x="910.0" y="367.5" fill="#808080" style="font-size:18px">Reg</text>
<circle cx="870.0" cy="340.0" r="8.0" stroke="#000000" stroke-width="4.0" fill="none" />
<circle cx="880.0" cy="300.0" r="2.0" stroke="#0000b2" stroke-width="4.0" fill="#0000b2" />
<circle cx="880.0" cy="320.0" r="2.0" stroke="#0000b2" stroke-width="4.0" fill="#0000b2" />
<circle cx="860.0" cy="340.0" r="2.0" stroke="#0000b2" stroke-width="4.0" fill="#0000b2" />
<circle cx="940.0" cy="320.0" r="2.0" stroke="#b20000" stroke-width="4.0" fill="#b20000" />
</g>
<g>
<path d="M 840,320 L 826,312 L 826,328 Z" stroke="#000000" stroke-width="4.0" fill="none"/>
<text text-anchor="end" x="821.0" y="326.75" fill="#808080" style="font-size:18px">CLK</text>
<circle cx="840.0" cy="320.0" r="2.0" stroke="#0000b2" stroke-width="4.0" fill="#0000b2" />
</g>
<g>
<path d="M 840,340 L 826,332 L 826,348 Z" stroke="#000000" stroke-width="4.0" fill="none"/>
<text text-anchor="end" x="821.0" y="346.75" fill="#808080" style="font-size:18px">INT<tspan style="font-size:80%;baseline-shift:sub;">HOLD</tspan></text>
<circle cx="840.0" cy="340.0" r="2.0" stroke="#0000b2" stroke-width="4.0" fill="#0000b2" />
</g>
<g>
<path d="M 808,505 L 838,505 L 838,535 L 808,535 Z" stroke="#000000" stroke-width="4.0" fill="none"/>
<text text-anchor="start" x="812.0" y="520.5" fill="#808080" style="font-size:18px">R</text>
<circle cx="840.0" cy="520.0" r="2.0" stroke="#b20000" stroke-width="4.0" fill="#b20000" />
</g>
<g>
<path d="M 720,580 L 706,572 L 706,588 Z" stroke="#000000" stroke-width="4.0" fill="none"/>
<text text-anchor="end" x="701.0" y="586.75" fill="#808080" style="font-size:18px">CLK</text>
<circle cx="720.0" cy="580.0" r="2.0" stroke="#0000b2" stroke-width="4.0" fill="#0000b2" />
</g>
<g>
<path d="M 720,620 L 706,612 L 706,628 Z" stroke="#000000" stroke-width="4.0" fill="none"/>
<text text-anchor="end" x="701.0" y="626.75" fill="#808080" style="font-size:18px">INT<tspan style="font-size:80%;baseline-shift:sub;">HOLD</tspan></text>
<circle cx="720.0" cy="620.0" r="2.0" stroke="#0000b2" stroke-width="4.0" fill="#0000b2" />
</g>
<g>
<path d="M 749,285 L 779,285 L 779,315 L 749,315 Z" stroke="#000000" stroke-width="4.0" fill="none"/>
<circle cx="764.0" cy="300.0" r="9.0" stroke="#000000" stroke-width="4.0" fill="none" />
<text text-anchor="end" x="735.0" y="309.0" fill="#000000" style="font-size:24px"><tspan style="font-style:italic;">I<tspan style="font-size:80%;baseline-shift:sub;">in</tspan></tspan></text>
<circle cx="780.0" cy="300.0" r="2.0" stroke="#b20000" stroke-width="4.0" fill="#b20000" />
</g>
<g>
<path d="M 640,200 L 654,208 L 654,192 Z" stroke="#000000" stroke-width="4.0" fill="none"/>
<text text-anchor="start" x="659.0" y="206.75" fill="#808080" style="font-size:18px">CLK</text>
<circle cx="640.0" cy="200.0" r="2.0" stroke="#0000b2" stroke-width="4.0" fill="#0000b2" />
</g>
<g>
<circle cx="1236.0" cy="440.0" r="9.0" stroke="#000000" stroke-width="4.0" fill="none" />
<circle cx="1236.0" cy="440.0" r="15.0" stroke="#000000" stroke-width="4.0" fill="none" />
<text text-anchor="start" x="1265.0" y="449.0" fill="#000000" style="font-size:24px"><tspan style="font-style:italic;">INT</tspan></text>
<circle cx="1220.0" cy="440.0" r="2.0" stroke="#0000b2" stroke-width="4.0" fill="#0000b2" />
</g>
<g>
<circle cx="1016.0" cy="400.0" r="9.0" stroke="#000000" stroke-width="4.0" fill="none" />
<circle cx="1016.0" cy="400.0" r="15.0" stroke="#000000" stroke-width="4.0" fill="none" />
<text text-anchor="start" x="1045.0" y="409.0" fill="#000000" style="font-size:24px"><tspan style="font-style:italic;">NMI</tspan></text>
<circle cx="1000.0" cy="400.0" r="2.0" stroke="#0000b2" stroke-width="4.0" fill="#0000b2" />
</g>
<g>
<circle cx="1136.0" cy="540.0" r="9.0" stroke="#000000" stroke-width="4.0" fill="none" />
<circle cx="1136.0" cy="540.0" r="15.0" stroke="#000000" stroke-width="4.0" fill="none" />
<text text-anchor="start" x="1165.0" y="549.0" fill="#000000" style="font-size:24px"><tspan style="font-style:italic;">RST</tspan></text>
<circle cx="1120.0" cy="540.0" r="2.0" stroke="#0000b2" stroke-width="4.0" fill="#0000b2" />
</g>
<g>
<path d="M 429,365 L 459,365 L 459,395 L 429,395 Z" stroke="#000000" stroke-width="4.0" fill="none"/>
<circle cx="444.0" cy="380.0" r="9.0" stroke="#000000" stroke-width="4.0" fill="none" />
<text text-anchor="end" x="415.0" y="389.0" fill="#000000" style="font-size:24px"><tspan style="font-style:italic;">N<tspan style="font-size:80%;baseline-shift:sub;">in</tspan></tspan></text>
<circle cx="460.0" cy="380.0" r="2.0" stroke="#b20000" stroke-width="4.0" fill="#b20000" />
</g>
<g>
<path d="M 640,240 L 654,248 L 654,232 Z" stroke="#000000" stroke-width="4.0" fill="none"/>
<text text-anchor="start" x="659.0" y="246.75" fill="#808080" style="font-size:18px">INT<tspan style="font-size:80%;baseline-shift:sub;">HOLD</tspan></text>
<circle cx="640.0" cy="240.0" r="2.0" stroke="#0000b2" stroke-width="4.0" fill="#0000b2" />
</g>
<g>
<path d="M 749,525 L 779,525 L 779,555 L 749,555 Z" stroke="#000000" stroke-width="4.0" fill="none"/>
<circle cx="764.0" cy="540.0" r="9.0" stroke="#000000" stroke-width="4.0" fill="none" />
<text text-anchor="end" x="735.0" y="549.0" fill="#000000" style="font-size:24px"><tspan style="font-style:italic;">R<tspan style="font-size:80%;baseline-shift:sub;">in</tspan></tspan></text>
<circle cx="780.0" cy="540.0" r="2.0" stroke="#b20000" stroke-width="4.0" fill="#b20000" />
</g>
<g>
<path d="M 929,205 L 959,205 L 959,235 L 929,235 Z" stroke="#000000" stroke-width="4.0" fill="none"/>
<circle cx="944.0" cy="220.0" r="9.0" stroke="#000000" stroke-width="4.0" fill="none" />
<text text-anchor="end" x="915.0" y="229.0" fill="#000000" style="font-size:24px"><tspan style="font-style:italic;">I<tspan style="font-size:80%;baseline-shift:sub;">flag</tspan></tspan></text>
<circle cx="960.0" cy="220.0" r="2.0" stroke="#b20000" stroke-width="4.0" fill="#b20000" />
</g>
<g>
<path d="M 569,225 L 599,225 L 599,255 L 569,255 Z" stroke="#000000" stroke-width="4.0" fill="none"/>
<circle cx="584.0" cy="240.0" r="9.0" stroke="#000000" stroke-width="4.0" fill="none" />
<text text-anchor="end" x="555.0" y="249.0" fill="#000000" style="font-size:24px"><tspan style="font-style:italic;">HLD</tspan></text>
<circle cx="600.0" cy="240.0" r="2.0" stroke="#b20000" stroke-width="4.0" fill="#b20000" />
</g>
<g>
<path d="M 569,185 L 599,185 L 599,215 L 569,215 Z" stroke="#000000" stroke-width="4.0" fill="none"/>
<text text-anchor="end" x="555.0" y="209.0" fill="#000000" style="font-size:24px"><tspan style="font-style:italic;">CLK</tspan></text>
<path d="M 575,205 L 580,205 L 580,195 L 585,195 L 585,205 L 590,205 L 590,195 L 595,195" stroke="#000000" stroke-width="2.0" fill="none"/>
<circle cx="600.0" cy="200.0" r="2.0" stroke="#b20000" stroke-width="4.0" fill="#b20000" />
</g>
<g>
<path d="M 881,530 L 939,530 L 939,610 L 881,610 Z" stroke="#000000" stroke-width="4.0" fill="none"/>
<text text-anchor="middle" x="910.0" y="522.0" fill="#000000" style="font-size:24px">RST</text>
<text text-anchor="start" x="884.0" y="546.75" fill="#808080" style="font-size:18px">Set</text>
<text text-anchor="start" x="884.0" y="566.75" fill="#808080" style="font-size:18px">D</text>
<path d="M 881,587 L 888,580 L 881,573" stroke="#000000" stroke-width="2.0" fill="none"/>
<text text-anchor="start" x="891.0" y="586.75" fill="#808080" style="font-size:18px">C</text>
<text text-anchor="start" x="884.0" y="606.75" fill="#808080" style="font-size:18px">Clr</text>
<text text-anchor="end" x="936.0" y="546.75" fill="#808080" style="font-size:18px">Q</text>
<text text-anchor="end" x="936.0" y="566.75" fill="#808080" style="font-size:18px"><tspan style="text-decoration:overline;">Q</tspan></text>
<text text-anchor="middle" x="910.0" y="627.5" fill="#808080" style="font-size:18px">D-AS</text>
<circle cx="880.0" cy="540.0" r="2.0" stroke="#0000b2" stroke-width="4.0" fill="#0000b2" />
<circle cx="880.0" cy="560.0" r="2.0" stroke="#0000b2" stroke-width="4.0" fill="#0000b2" />
<circle cx="880.0" cy="580.0" r="2.0" stroke="#0000b2" stroke-width="4.0" fill="#0000b2" />
<circle cx="880.0" cy="600.0" r="2.0" stroke="#0000b2" stroke-width="4.0" fill="#0000b2" />
<circle cx="940.0" cy="540.0" r="2.0" stroke="#b20000" stroke-width="4.0" fill="#b20000" />
<circle cx="940.0" cy="560.0" r="2.0" stroke="#b20000" stroke-width="4.0" fill="#b20000" />
</g>
<g>
<path d="M 761,570 L 819,570 L 819,630 L 761,630 Z" stroke="#000000" stroke-width="4.0" fill="none"/>
<text text-anchor="middle" x="790.0" y="592.0" fill="#000000" style="font-size:24px">&amp;</text>
<circle cx="750.0" cy="620.0" r="8.0" stroke="#000000" stroke-width="4.0" fill="none" />
<circle cx="760.0" cy="580.0" r="2.0" stroke="#0000b2" stroke-width="4.0" fill="#0000b2" />
<circle cx="740.0" cy="620.0" r="2.0" stroke="#0000b2" stroke-width="4.0" fill="#0000b2" />
<circle cx="820.0" cy="600.0" r="2.0" stroke="#b20000" stroke-width="4.0" fill="#b20000" />
</g>
<g>
<circle cx="860.0" cy="620.0" r="2.0" stroke="#b20000" stroke-width="4.0" fill="#b20000" />
</g>
<g>
<path d="M 581,370 L 639,370 L 639,430 L 581,430 Z" stroke="#000000" stroke-width="4.0" fill="none"/>
<text text-anchor="middle" x="610.0" y="392.0" fill="#000000" style="font-size:24px">&amp;</text>
<circle cx="570.0" cy="420.0" r="8.0" stroke="#000000" stroke-width="4.0" fill="none" />
<circle cx="580.0" cy="380.0" r="2.0" stroke="#0000b2" stroke-width="4.0" fill="#0000b2" />
<circle cx="560.0" cy="420.0" r="2.0" stroke="#0000b2" stroke-width="4.0" fill="#0000b2" />
<circle cx="640.0" cy="400.0" r="2.0" stroke="#b20000" stroke-width="4.0" fill="#b20000" />
</g>
<g>
<path d="M 501,410 L 539,410 L 539,430 L 501,430 Z" stroke="#000000" stroke-width="4.0" fill="none"/>
<circle cx="540.0" cy="420.0" r="2.0" stroke="#b20000" stroke-width="4.0" fill="#b20000" />
<circle cx="500.0" cy="420.0" r="2.0" stroke="#0000b2" stroke-width="4.0" fill="#0000b2" />
</g>
<g>
<path d="M 681,410 L 739,410 L 739,450 L 681,450 Z" stroke="#000000" stroke-width="4.0" fill="none"/>
<text text-anchor="start" x="684.0" y="426.75" fill="#808080" style="font-size:18px">S</text>
<text text-anchor="start" x="684.0" y="446.75" fill="#808080" style="font-size:18px">R</text>
<text text-anchor="end" x="736.0" y="426.75" fill="#808080" style="font-size:18px">Q</text>
<text text-anchor="end" x="736.0" y="446.75" fill="#808080" style="font-size:18px"><tspan style="text-decoration:overline;">Q</tspan></text>
<text text-anchor="middle" x="710.0" y="467.5" fill="#808080" style="font-size:18px">RS</text>
<circle cx="680.0" cy="420.0" r="2.0" stroke="#0000b2" stroke-width="4.0" fill="#0000b2" />
<circle cx="680.0" cy="440.0" r="2.0" stroke="#0000b2" stroke-width="4.0" fill="#0000b2" />
<circle cx="740.0" cy="420.0" r="2.0" stroke="#b20000" stroke-width="4.0" fill="#b20000" />
<circle cx="740.0" cy="440.0" r="2.0" stroke="#b20000" stroke-width="4.0" fill="#b20000" />
</g>
<g>
<path d="M 581,430 L 639,430 L 639,490 L 581,490 Z" stroke="#000000" stroke-width="4.0" fill="none"/>
<text text-anchor="middle" x="610.0" y="452.0" fill="#000000" style="font-size:24px">&amp;</text>
<circle cx="570.0" cy="480.0" r="8.0" stroke="#000000" stroke-width="4.0" fill="none" />
<circle cx="580.0" cy="440.0" r="2.0" stroke="#0000b2" stroke-width="4.0" fill="#0000b2" />
<circle cx="560.0" cy="480.0" r="2.0" stroke="#0000b2" stroke-width="4.0" fill="#0000b2" />
<circle cx="640.0" cy="460.0" r="2.0" stroke="#b20000" stroke-width="4.0" fill="#b20000" />
</g>
<g>
<path d="M 501,470 L 539,470 L 539,490 L 501,490 Z" stroke="#000000" stroke-width="4.0" fill="none"/>
<circle cx="540.0" cy="480.0" r="2.0" stroke="#b20000" stroke-width="4.0" fill="#b20000" />
<circle cx="500.0" cy="480.0" r="2.0" stroke="#0000b2" stroke-width="4.0" fill="#0000b2" />
</g>
<g>
<path d="M 460,440 L 446,432 L 446,448 Z" stroke="#000000" stroke-width="4.0" fill="none"/>
<text text-anchor="end" x="441.0" y="446.75" fill="#808080" style="font-size:18px">INT<tspan style="font-size:80%;baseline-shift:sub;">HOLD</tspan></text>
<circle cx="460.0" cy="440.0" r="2.0" stroke="#0000b2" stroke-width="4.0" fill="#0000b2" />
</g>
</g>
</svg>