<?xml version="1.0" encoding="UTF-8" standalone="no"?>
<!-- Created with Digital by H.Neemann -->
<!-- created: Thu Jan 16 20:10:51 CET 2025 -->

<svg
   xmlns:svg="http://www.w3.org/2000/svg"
   xmlns="http://www.w3.org/2000/svg"
   width="61.8mm"
   height="23.1mm"
   viewBox="427 23 412 154">
<g stroke-linecap="square">
<path d="M 520,160 L 540,160 L 540,120 L 560,120" stroke="#0000b2" stroke-width="4.0" fill="none"/>
<path d="M 640,100 L 640,160 L 740,160" stroke="#0000b2" stroke-width="4.0" fill="none"/>
<path d="M 620,100 L 640,100 L 660,100" stroke="#0000b2" stroke-width="4.0" fill="none"/>
<path d="M 700,100 L 720,100 L 740,100" stroke="#0000b2" stroke-width="4.0" fill="none"/>
<path d="M 520,100 L 560,100" stroke="#0000b2" stroke-width="4.0" fill="none"/>
<path d="M 520,40 L 680,40 L 680,80" stroke="#0000b2" stroke-width="4.0" fill="none"/>
<path d="M 560,80 L 540,80 L 540,60 L 720,60 L 720,100" stroke="#0000b2" stroke-width="4.0" fill="none"/>
<path d="M 680,80 L 680,93" stroke="#000000" stroke-width="4.0" fill="none"/>
<g>
<circle cx="640.0" cy="100.0" r="4.0" stroke="#0000b2" stroke-width="4.0" fill="#0000b2" />
<circle cx="720.0" cy="100.0" r="4.0" stroke="#0000b2" stroke-width="4.0" fill="#0000b2" />
</g>
<g>
<path d="M 661,88 L 699,100 L 661,112 Z" stroke="#000000" stroke-width="4.0" fill="none"/>
<circle cx="660.0" cy="100.0" r="2.0" stroke="#0000b2" stroke-width="4.0" fill="#0000b2" />
<circle cx="680.0" cy="80.0" r="2.0" stroke="#0000b2" stroke-width="4.0" fill="#0000b2" />
<circle cx="700.0" cy="100.0" r="2.0" stroke="#b20000" stroke-width="4.0" fill="#b20000" />
</g>
<g>
<path d="M 489,145 L 519,145 L 519,175 L 489,175 Z" stroke="#000000" stroke-width="4.0" fill="none"/>
<circle cx="504.0" cy="160.0" r="9.0" stroke="#000000" stroke-width="4.0" fill="none" />
<text text-anchor="end" x="475.0" y="169.0" fill="#000000" style="font-size:24px"><tspan style="font-style:italic;">WR</tspan></text>
<circle cx="520.0" cy="160.0" r="2.0" stroke="#b20000" stroke-width="4.0" fill="#b20000" />
</g>
<g>
<circle cx="756.0" cy="100.0" r="9.0" stroke="#000000" stroke-width="4.0" fill="none" />
<circle cx="756.0" cy="100.0" r="15.0" stroke="#000000" stroke-width="4.0" fill="none" />
<text text-anchor="start" x="785.0" y="109.0" fill="#000000" style="font-size:24px"><tspan style="font-style:italic;">BUS</tspan></text>
<circle cx="740.0" cy="100.0" r="2.0" stroke="#0000b2" stroke-width="4.0" fill="#0000b2" />
</g>
<g>
<path d="M 489,25 L 519,25 L 519,55 L 489,55 Z" stroke="#000000" stroke-width="4.0" fill="none"/>
<circle cx="504.0" cy="40.0" r="9.0" stroke="#000000" stroke-width="4.0" fill="none" />
<text text-anchor="end" x="475.0" y="49.0" fill="#000000" style="font-size:24px"><tspan style="font-style:italic;">OE</tspan></text>
<circle cx="520.0" cy="40.0" r="2.0" stroke="#b20000" stroke-width="4.0" fill="#b20000" />
</g>
<g>
<circle cx="756.0" cy="160.0" r="9.0" stroke="#000000" stroke-width="4.0" fill="none" />
<circle cx="756.0" cy="160.0" r="15.0" stroke="#000000" stroke-width="4.0" fill="none" />
<text text-anchor="start" x="785.0" y="169.0" fill="#000000" style="font-size:24px"><tspan style="font-style:italic;">REG</tspan></text>
<circle cx="740.0" cy="160.0" r="2.0" stroke="#0000b2" stroke-width="4.0" fill="#0000b2" />
</g>
<g>
<path d="M 561,70 L 619,70 L 619,130 L 561,130 Z" stroke="#000000" stroke-width="4.0" fill="none"/>
<text text-anchor="start" x="564.0" y="86.75" fill="#808080" style="font-size:18px">D</text>
<path d="M 561,107 L 568,100 L 561,93" stroke="#000000" stroke-width="2.0" fill="none"/>
<text text-anchor="start" x="571.0" y="106.75" fill="#808080" style="font-size:18px">C</text>
<text text-anchor="start" x="564.0" y="126.75" fill="#808080" style="font-size:18px">en</text>
<text text-anchor="end" x="616.0" y="106.75" fill="#808080" style="font-size:18px">Q</text>
<text text-anchor="middle" x="590.0" y="147.5" fill="#808080" style="font-size:18px">Reg</text>
<circle cx="560.0" cy="80.0" r="2.0" stroke="#0000b2" stroke-width="4.0" fill="#0000b2" />
<circle cx="560.0" cy="100.0" r="2.0" stroke="#0000b2" stroke-width="4.0" fill="#0000b2" />
<circle cx="560.0" cy="120.0" r="2.0" stroke="#0000b2" stroke-width="4.0" fill="#0000b2" />
<circle cx="620.0" cy="100.0" r="2.0" stroke="#b20000" stroke-width="4.0" fill="#b20000" />
</g>
<g>
<path d="M 489,85 L 519,85 L 519,115 L 489,115 Z" stroke="#000000" stroke-width="4.0" fill="none"/>
<text text-anchor="end" x="475.0" y="109.0" fill="#000000" style="font-size:24px"><tspan style="font-style:italic;">CLK</tspan></text>
<path d="M 495,105 L 500,105 L 500,95 L 505,95 L 505,105 L 510,105 L 510,95 L 515,95" stroke="#000000" stroke-width="2.0" fill="none"/>
<circle cx="520.0" cy="100.0" r="2.0" stroke="#b20000" stroke-width="4.0" fill="#b20000" />
</g>
</g>
</svg>